{"glyphs":{"0":{"ha":694,"x_min":42,"x_max":644,"o":"m 42 414 q 54 632 42 535 q 108 804 66 728 q 213 917 150 880 q 355 955 275 955 q 515 908 446 955 q 614 764 584 861 q 644 500 644 667 q 561 101 644 229 q 331 -27 478 -27 q 200 5 257 -27 q 107 97 144 37 q 57 239 71 157 q 42 414 42 321 m 159 454 q 178 219 159 325 q 242 67 197 113 q 350 20 288 20 q 451 62 410 20 q 510 203 491 103 q 528 452 528 304 q 484 795 528 684 q 338 906 440 906 q 204 820 250 906 q 159 454 159 734 z "},"1":{"ha":694,"x_min":85,"x_max":578,"o":"m 104 766 l 92 770 l 85 826 l 92 833 q 263 896 159 852 q 412 962 367 939 l 429 956 q 418 599 418 659 l 418 347 q 420 173 418 254 q 427 76 422 91 q 440 54 431 62 q 468 43 450 45 q 573 36 486 41 l 578 31 l 578 0 l 573 -5 q 363 0 425 0 q 138 -5 317 0 l 133 0 l 133 31 l 138 36 q 255 47 240 43 q 277 59 269 50 q 290 91 285 67 q 297 231 294 115 q 300 351 300 348 l 300 618 q 299 831 300 814 q 288 848 298 848 q 280 847 285 848 q 250 835 275 846 l 183 805 q 104 766 141 787 z "},"2":{"ha":694,"x_min":23,"x_max":648,"o":"m 31 -7 l 23 0 l 23 31 l 250 272 q 432 502 391 420 q 473 654 473 583 q 423 791 473 736 q 288 846 373 846 q 192 829 233 846 q 137 791 151 812 q 97 673 123 770 l 91 668 l 63 668 l 56 674 q 78 855 72 766 q 197 935 142 918 q 313 952 252 952 q 450 925 385 952 q 556 837 516 898 q 596 696 596 777 q 573 577 596 637 q 504 461 549 517 q 381 327 459 405 l 170 111 l 437 111 q 643 120 561 111 l 648 115 q 644 54 644 92 q 648 1 644 20 l 643 -7 q 493 -2 594 -4 q 359 0 392 0 q 182 -2 294 0 q 31 -7 71 -3 z "},"3":{"ha":694,"x_min":25,"x_max":641,"o":"m 71 16 q 25 208 58 96 l 28 218 l 54 228 l 63 223 q 114 120 87 161 q 192 58 141 79 q 302 36 243 36 q 420 67 376 36 q 488 152 464 98 q 511 273 511 205 q 464 414 511 363 q 334 466 417 466 q 283 460 305 466 q 214 436 260 455 l 206 443 l 221 517 q 294 513 276 513 q 420 570 374 513 q 467 703 467 626 q 418 815 467 770 q 298 861 370 861 q 210 842 252 861 q 141 795 168 823 q 104 705 130 772 l 98 699 l 67 699 l 62 705 l 102 862 q 332 958 187 958 q 511 899 443 958 q 579 751 579 840 q 539 627 579 684 q 428 520 499 570 q 593 450 545 506 q 641 315 641 394 q 523 80 641 184 q 250 -24 405 -24 q 164 -16 204 -24 q 71 16 124 -8 z "},"4":{"ha":694,"x_min":8,"x_max":656,"o":"m 223 -5 l 218 0 l 218 29 l 223 35 q 342 41 323 37 q 370 55 361 44 q 383 108 378 66 q 387 197 387 150 l 387 248 l 239 248 q 20 243 109 248 l 8 280 q 402 920 126 501 l 498 959 l 515 951 q 507 665 507 836 l 505 474 l 505 334 q 650 338 599 334 l 656 331 q 654 294 654 305 q 656 250 655 271 l 650 243 q 540 248 584 248 l 505 248 l 505 202 q 509 94 505 126 q 522 53 513 62 q 558 40 531 44 q 650 35 585 35 l 656 29 l 656 0 l 651 -5 q 451 0 532 0 q 223 -5 319 0 m 98 334 l 387 334 l 393 816 q 229 561 328 723 q 98 334 130 399 z "},"5":{"ha":694,"x_min":22,"x_max":638,"o":"m 89 9 q 22 184 73 62 l 23 193 l 47 207 l 55 205 q 125 89 111 102 q 189 56 139 75 q 293 37 238 37 q 414 67 361 37 q 493 155 467 97 q 519 288 519 214 q 493 413 519 360 q 416 492 468 465 q 303 519 363 519 q 234 509 265 519 q 183 483 203 499 q 134 436 162 467 l 106 444 l 113 590 q 116 673 116 631 l 116 794 q 113 898 116 848 q 111 937 111 928 l 119 943 q 356 935 223 935 q 598 943 457 935 l 601 937 q 596 875 596 903 q 598 827 596 861 l 591 823 q 384 829 514 829 q 178 827 207 829 q 164 545 168 747 q 264 601 220 586 q 361 615 309 615 q 503 581 435 615 q 605 483 571 547 q 638 344 638 418 q 525 91 638 206 q 234 -25 411 -25 q 156 -17 186 -25 q 89 9 125 -9 z "},"6":{"ha":694,"x_min":47,"x_max":648,"o":"m 586 938 l 586 930 q 417 856 512 914 q 258 699 323 798 q 184 462 194 601 q 237 501 207 478 q 293 541 275 530 q 341 560 311 552 q 411 568 372 568 q 536 537 481 568 q 620 447 592 507 q 648 307 648 387 q 593 117 648 193 q 476 8 538 41 q 334 -25 414 -25 q 123 77 198 -25 q 47 342 47 179 q 79 551 47 451 q 175 732 111 651 q 339 876 239 813 q 536 962 439 939 l 586 938 m 171 291 q 190 158 171 224 q 252 56 210 92 q 353 20 295 20 q 444 48 402 20 q 508 135 486 76 q 530 260 530 195 q 509 378 530 326 q 446 459 487 430 q 349 488 404 488 q 268 468 309 488 q 205 423 227 448 q 177 370 183 398 q 171 291 171 342 z "},"7":{"ha":694,"x_min":64,"x_max":688,"o":"m 92 -5 l 77 9 q 178 166 102 45 l 302 364 l 419 555 l 521 730 q 572 822 553 787 l 566 829 l 355 829 q 214 826 276 829 q 142 818 153 823 q 126 806 131 813 q 117 754 122 798 l 104 659 l 98 653 l 70 653 l 64 659 l 67 844 q 64 943 67 876 l 77 949 q 229 941 115 945 q 382 936 343 936 q 682 945 519 936 l 688 940 l 688 905 l 590 732 q 387 356 501 573 q 221 0 273 138 l 214 -5 q 156 -2 176 -2 q 92 -5 125 -2 z "},"8":{"ha":694,"x_min":43,"x_max":643,"o":"m 228 481 q 114 573 153 521 q 75 699 75 625 q 151 877 75 802 q 360 951 228 951 q 485 927 427 951 q 573 858 542 904 q 604 754 604 811 q 568 640 604 694 q 438 529 531 585 l 438 523 q 556 458 517 485 q 618 387 594 432 q 643 283 643 342 q 596 128 643 202 q 474 15 550 54 q 317 -24 398 -24 q 121 43 198 -24 q 43 220 43 109 q 97 374 43 309 q 228 475 150 439 l 228 481 m 386 546 q 484 637 458 591 q 510 736 510 683 q 465 859 510 814 q 345 905 420 905 q 226 864 273 905 q 178 751 178 824 q 209 656 178 696 q 386 546 240 616 m 283 456 q 172 354 203 409 q 140 231 140 300 q 195 78 140 134 q 334 23 249 23 q 440 50 393 23 q 511 124 488 77 q 534 227 534 172 q 478 352 534 307 q 283 456 422 397 z "},"9":{"ha":694,"x_min":35,"x_max":639,"o":"m 90 -5 l 90 7 q 387 173 279 51 q 508 473 494 296 q 285 354 408 354 q 149 391 207 354 q 63 488 91 429 q 35 628 35 548 q 124 864 35 775 q 343 953 212 953 q 557 857 475 953 q 639 582 639 762 q 624 430 639 503 q 568 280 609 357 q 458 138 526 203 q 304 28 390 72 q 135 -27 218 -16 l 90 -5 m 153 672 q 173 556 153 613 q 237 469 194 500 q 337 438 279 438 q 466 492 417 438 q 515 653 515 546 q 467 835 515 764 q 334 906 418 906 q 203 846 254 906 q 153 672 153 787 z "},"A":{"ha":1080,"x_min":24,"x_max":1048,"o":"m 30 -5 l 24 0 l 24 35 l 30 41 q 94 46 79 41 q 119 63 108 50 q 164 150 130 77 l 235 304 l 420 722 q 524 968 472 845 l 568 968 l 857 287 l 896 196 q 935 112 913 157 q 965 58 957 66 q 986 46 974 50 q 1042 41 999 41 l 1048 35 l 1048 0 l 1042 -5 q 913 1 970 1 q 688 -5 800 -3 l 682 0 l 682 35 l 688 41 q 783 47 764 42 q 802 71 802 52 q 792 110 802 85 l 709 317 l 316 317 l 242 143 q 222 75 222 96 q 241 50 222 58 q 333 41 259 41 l 339 35 l 339 0 l 334 -5 q 180 0 246 0 q 30 -5 106 0 m 339 375 l 682 375 l 512 784 l 339 375 m 545 1008 m 529 -41 z "},"B":{"ha":848,"x_min":19,"x_max":779,"o":"m 24 915 l 19 920 l 19 954 l 24 958 q 203 953 140 953 q 391 958 227 953 q 468 960 444 960 q 613 941 559 960 q 699 877 667 923 q 732 771 732 830 q 677 631 732 696 q 501 539 623 567 q 622 519 574 532 q 704 480 669 507 q 759 410 739 453 q 779 311 779 368 q 765 222 779 267 q 715 132 751 176 q 627 55 679 87 q 522 9 576 23 q 388 -5 468 -5 q 290 -2 372 -5 q 193 0 200 0 q 79 -5 146 0 l 74 0 l 74 22 l 79 29 q 125 54 119 47 q 135 174 131 60 q 138 347 138 287 l 138 595 l 138 749 q 136 831 138 800 q 133 876 135 863 q 125 895 130 890 q 110 904 119 901 q 76 911 100 908 l 24 915 m 268 559 q 345 556 302 556 q 540 606 485 556 q 595 744 595 656 q 574 830 595 795 q 508 885 553 866 q 385 904 463 904 q 274 894 322 904 q 268 681 268 833 l 268 559 m 269 64 q 376 52 321 52 q 528 83 473 52 q 609 170 583 115 q 635 290 635 225 q 580 447 635 388 q 341 505 525 505 q 268 503 311 505 l 268 271 l 269 64 z "},"C":{"ha":985,"x_min":48,"x_max":946,"o":"m 946 115 l 920 52 q 599 -25 770 -25 q 201 114 354 -25 q 48 477 48 253 q 124 748 48 632 q 326 921 201 863 q 607 978 451 978 q 785 959 697 978 q 932 913 873 940 l 937 907 q 908 719 922 869 l 903 713 l 871 713 l 866 719 l 859 834 q 740 896 810 873 q 593 918 669 918 q 388 868 479 918 q 247 726 297 819 q 197 498 197 633 q 256 260 197 362 q 417 102 315 157 q 655 47 519 47 q 771 59 715 47 q 864 87 827 71 q 935 129 901 104 l 946 115 z "},"D":{"ha":1075,"x_min":20,"x_max":1017,"o":"m 20 954 l 26 958 q 186 953 143 953 l 503 960 q 726 934 639 960 q 880 846 812 909 q 982 700 947 783 q 1017 523 1017 617 q 985 342 1017 431 q 895 181 954 252 q 761 67 836 111 q 611 9 686 24 q 457 -5 536 -5 q 258 -1 404 -5 q 194 0 210 0 q 81 -5 147 0 l 75 0 l 75 22 l 81 29 q 126 55 121 50 q 136 173 132 60 q 140 347 140 287 l 140 595 l 139 749 q 138 831 139 800 q 133 876 136 863 q 125 895 130 890 q 111 904 121 901 q 77 911 101 908 l 26 915 l 20 920 l 20 954 m 271 68 q 431 55 340 55 q 683 108 589 55 q 825 264 778 161 q 871 498 871 368 q 769 796 871 690 q 446 902 667 902 q 271 888 355 902 q 266 637 266 777 l 266 425 l 267 225 q 271 68 267 167 z "},"E":{"ha":848,"x_min":50,"x_max":790,"o":"m 50 954 l 55 958 q 353 954 288 954 q 749 958 575 954 l 752 954 q 727 749 735 888 l 723 744 l 690 744 l 684 749 q 684 760 684 755 q 675 870 684 818 q 557 895 633 889 q 444 901 481 901 q 307 893 390 901 l 304 785 l 302 661 l 300 523 q 435 519 373 519 q 539 523 497 519 q 588 531 581 527 q 599 548 595 536 q 606 593 603 561 l 608 635 l 614 640 l 645 640 l 650 635 q 647 486 649 561 l 650 334 l 645 328 l 614 328 l 608 334 l 604 374 q 595 431 597 422 q 582 447 592 440 q 532 458 572 454 q 420 462 491 462 q 300 458 380 462 q 296 269 296 401 q 300 59 296 126 l 425 59 q 631 63 589 59 q 709 83 672 67 q 729 155 715 98 q 745 226 743 212 l 752 231 l 785 231 l 790 226 q 778 124 784 197 q 772 0 772 52 l 768 -5 q 429 -1 638 -1 l 244 0 q 110 -5 180 0 l 104 0 l 104 22 l 110 29 q 156 55 150 50 q 165 173 161 60 q 169 347 169 287 l 169 595 l 168 749 q 167 831 168 800 q 162 876 165 863 q 154 895 159 890 q 140 904 150 901 q 106 911 130 908 l 55 915 l 50 920 l 50 954 m 437 1008 m 434 -41 z "},"F":{"ha":772,"x_min":31,"x_max":709,"o":"m 296 457 l 296 319 l 296 187 q 300 89 297 113 q 310 58 304 65 q 335 46 317 51 q 425 38 353 41 l 431 34 l 431 0 l 425 -5 q 231 0 253 0 q 37 -5 209 0 l 31 0 l 31 34 l 37 38 q 121 45 100 41 q 149 56 142 49 q 160 83 156 62 q 165 175 165 103 l 166 319 l 166 633 l 165 766 q 161 865 164 843 q 152 895 158 888 q 127 907 145 903 q 37 915 109 912 l 31 920 l 31 954 l 37 958 q 372 954 324 954 q 703 958 534 954 l 709 954 q 694 877 698 920 q 687 755 691 833 l 682 749 l 650 749 l 645 755 q 639 807 644 760 q 628 876 635 844 q 433 899 557 899 q 303 891 378 899 q 296 633 296 838 l 296 516 q 413 515 382 515 q 512 519 471 515 q 562 528 553 524 q 574 543 570 532 q 583 592 578 554 l 587 629 l 591 634 l 626 634 l 631 628 l 627 479 q 629 405 627 454 q 631 319 631 349 l 625 313 l 591 313 l 587 319 l 584 376 q 577 426 582 410 q 562 446 572 441 q 513 455 551 451 q 399 459 476 459 q 296 457 330 459 z "},"G":{"ha":1060,"x_min":43,"x_max":1016,"o":"m 1016 370 l 1016 349 l 1013 341 l 980 321 q 966 310 968 314 q 961 270 964 306 q 958 181 958 233 q 965 53 958 122 l 961 46 q 579 -25 775 -25 q 307 32 429 -25 q 115 201 186 89 q 43 467 43 313 q 204 840 43 701 q 623 978 364 978 q 964 913 812 978 l 968 906 q 940 715 956 861 l 935 711 l 903 711 l 898 716 l 895 788 q 890 829 892 823 q 876 845 888 836 q 813 877 863 855 q 711 908 762 898 q 602 918 661 918 q 382 866 478 918 q 238 716 287 814 q 190 496 190 617 q 242 264 190 372 q 392 96 294 157 q 619 36 490 36 q 734 47 675 36 q 831 79 793 58 q 837 166 837 100 l 837 241 q 830 308 837 295 q 797 327 823 321 q 681 334 770 332 l 675 340 l 675 370 l 681 376 l 722 374 q 896 371 829 371 q 1009 375 935 371 l 1016 370 z "},"H":{"ha":1156,"x_min":35,"x_max":1122,"o":"m 40 958 q 234 953 213 953 q 429 958 256 953 l 434 954 l 434 920 l 429 915 q 356 911 382 913 q 319 901 331 908 q 304 866 308 893 q 300 789 300 838 l 299 633 l 299 538 q 581 534 448 534 q 857 538 762 534 l 857 633 l 856 766 q 852 865 855 843 q 842 895 848 888 q 818 907 836 903 q 727 915 800 912 l 722 920 l 722 954 l 727 958 q 922 953 901 953 q 1116 958 945 953 l 1122 954 l 1122 920 l 1116 915 q 1043 911 1069 913 q 1006 901 1018 908 q 991 866 995 893 q 987 789 988 838 l 986 633 l 986 319 l 987 187 q 991 88 988 111 q 1001 58 995 66 q 1026 46 1008 51 q 1116 38 1044 41 l 1122 34 l 1122 0 l 1116 -5 q 922 0 943 0 q 727 -5 900 0 l 722 0 l 722 34 l 727 38 q 812 45 791 41 q 840 55 833 49 q 851 83 846 62 q 856 176 856 104 l 857 319 l 857 474 q 576 478 656 478 q 299 474 493 478 l 299 319 l 300 187 q 304 88 300 111 q 314 58 307 66 q 338 46 320 51 q 429 38 357 41 l 434 34 l 434 0 l 429 -5 q 234 0 256 0 q 40 -5 213 0 l 35 0 l 35 34 l 40 38 q 124 45 103 41 q 152 55 145 49 q 164 83 159 62 q 169 176 168 104 l 170 319 l 170 633 l 168 766 q 164 865 168 843 q 155 895 161 888 q 130 907 149 903 q 40 915 112 912 l 35 920 l 35 954 l 40 958 z "},"I":{"ha":468,"x_min":35,"x_max":434,"o":"m 40 958 l 125 956 q 234 953 208 953 q 429 958 257 953 l 434 954 l 434 920 l 429 915 q 356 911 382 913 q 319 901 331 908 q 304 866 308 893 q 300 789 300 838 l 299 633 l 299 319 l 300 187 q 304 88 300 111 q 314 58 307 66 q 338 46 320 51 q 429 38 357 41 l 434 34 l 434 0 l 429 -5 q 309 -1 425 -5 q 234 0 261 0 q 40 -5 213 0 l 35 0 l 35 34 l 40 38 q 124 45 103 41 q 152 55 145 49 q 164 83 159 62 q 169 176 168 104 l 170 319 l 170 633 l 168 766 q 164 865 168 843 q 155 895 161 888 q 130 907 149 903 q 40 915 112 912 l 35 920 l 35 954 l 40 958 m 243 1008 m 234 -41 z "},"J":{"ha":463,"x_min":-16,"x_max":431,"o":"m 431 954 l 431 920 l 426 915 q 353 911 378 913 q 316 901 328 908 q 301 866 304 893 q 297 789 297 838 l 296 633 l 296 146 q 277 -29 296 39 q 210 -155 258 -97 q 112 -241 163 -213 q 12 -269 62 -269 q -16 -266 -2 -269 q -14 -212 -15 -239 q -16 -161 -14 -195 l -3 -153 q 69 -178 31 -178 q 124 -166 102 -178 q 154 -132 145 -153 q 165 -54 163 -111 q 167 44 167 3 l 167 633 l 165 766 q 161 865 165 843 q 152 895 158 888 q 127 907 145 903 q 37 915 109 912 l 32 920 l 32 954 l 37 958 q 231 953 208 953 q 426 958 255 953 l 431 954 z "},"K":{"ha":1008,"x_min":35,"x_max":998,"o":"m 299 491 q 545 721 469 645 q 670 845 621 796 q 728 909 719 895 l 728 953 l 735 958 q 848 956 787 956 q 955 958 861 956 l 962 951 l 962 920 l 956 914 q 870 907 893 914 q 803 864 847 900 q 701 774 758 827 l 426 524 l 834 146 q 944 46 932 54 q 994 37 956 38 l 998 31 l 998 3 l 994 -3 q 912 0 954 0 q 802 -3 887 0 q 694 100 741 56 q 299 464 648 145 l 299 319 l 300 187 q 304 88 300 111 q 314 58 307 66 q 338 46 320 51 q 429 38 357 41 l 434 34 l 434 0 l 429 -5 q 309 -1 425 -5 q 234 0 261 0 q 40 -5 213 0 l 35 0 l 35 34 l 40 38 q 124 45 103 41 q 152 55 145 49 q 164 83 159 62 q 169 176 168 104 l 170 319 l 170 633 l 168 766 q 164 865 168 843 q 155 895 161 888 q 130 907 149 903 q 40 915 112 912 l 35 920 l 35 954 l 40 958 l 125 956 q 234 953 208 953 q 429 958 257 953 l 434 954 l 434 920 l 429 915 q 356 911 382 913 q 319 901 331 908 q 304 866 308 893 q 300 789 300 838 l 299 633 l 299 491 z "},"L":{"ha":848,"x_min":25,"x_max":798,"o":"m 25 954 l 31 958 q 224 953 199 953 q 419 958 248 953 l 425 954 l 425 920 l 419 915 q 347 911 372 913 q 310 901 321 908 q 295 866 298 893 q 291 789 291 838 l 290 633 l 290 334 q 291 176 290 221 l 294 59 l 433 59 q 639 63 598 59 q 718 83 680 67 q 740 161 726 100 q 754 231 753 222 l 760 237 l 793 237 l 798 231 q 787 126 793 204 q 781 0 781 48 l 776 -5 q 437 -1 647 -1 l 239 0 q 101 -5 172 0 l 96 0 l 96 22 l 101 29 q 147 56 143 51 q 156 143 151 60 q 160 342 160 226 l 160 633 l 159 766 q 155 865 158 843 q 145 895 152 888 q 121 907 139 903 q 31 915 102 912 l 25 920 l 25 954 z "},"M":{"ha":1314,"x_min":26,"x_max":1282,"o":"m 1276 956 l 1282 951 l 1282 918 l 1276 913 q 1184 905 1202 911 q 1158 887 1166 900 q 1150 838 1151 875 q 1146 631 1149 802 l 1146 319 q 1148 165 1146 251 q 1157 66 1150 80 q 1180 46 1163 52 q 1276 37 1197 39 l 1282 33 l 1282 -1 l 1276 -6 q 1083 0 1165 0 q 894 -6 1027 0 l 888 -1 l 888 32 l 893 37 q 986 45 968 39 q 1011 63 1004 50 q 1020 113 1019 75 q 1023 319 1021 150 l 1023 817 l 789 327 q 635 -19 701 143 l 609 -19 q 547 121 571 68 l 222 794 l 222 320 q 224 167 222 254 q 233 67 226 81 q 256 47 239 54 q 353 39 273 40 l 358 33 l 358 1 l 352 -5 l 309 -3 q 193 0 241 0 q 31 -5 172 0 l 26 0 l 26 33 l 31 39 q 123 45 106 40 q 149 64 141 51 q 158 112 157 77 q 161 320 159 147 l 161 631 q 159 781 161 692 q 151 883 157 869 q 127 904 144 897 q 31 912 111 911 l 26 918 l 26 950 l 32 956 q 158 953 79 953 q 288 956 233 953 q 397 718 345 825 l 654 191 l 886 674 q 1013 956 981 870 q 1141 953 1078 953 q 1276 956 1198 953 z "},"N":{"ha":1154,"x_min":33,"x_max":1108,"o":"m 45 -5 l 39 1 l 39 33 l 45 38 q 111 43 86 39 q 143 56 136 47 q 152 87 150 66 q 157 182 155 108 q 159 288 159 256 l 159 836 q 147 887 159 870 q 113 908 134 903 q 39 913 91 912 l 33 918 l 33 950 l 39 956 q 161 953 132 953 q 274 956 230 953 l 490 675 l 808 277 q 926 139 866 204 l 926 664 q 923 768 926 688 q 918 869 921 848 q 906 898 914 890 q 874 909 897 905 q 810 913 850 913 l 805 919 l 805 950 l 810 956 q 967 953 865 953 q 1102 956 1060 953 l 1108 950 l 1108 919 l 1103 913 q 1034 908 1058 913 q 1003 894 1009 904 q 995 864 997 884 q 990 770 992 844 q 987 664 987 696 l 987 342 l 988 155 q 991 -28 989 64 q 873 0 957 -17 l 825 57 l 681 233 l 221 808 l 221 288 q 223 176 221 256 q 229 79 226 96 q 238 56 233 62 q 261 44 243 50 q 336 38 279 39 l 341 33 l 341 1 l 336 -5 q 222 0 300 0 q 45 -5 121 0 z "},"O":{"ha":1092,"x_min":33,"x_max":1059,"o":"m 33 467 q 62 657 33 569 q 161 820 91 745 q 330 936 231 895 q 554 977 429 977 q 922 851 785 977 q 1059 508 1059 726 q 992 233 1059 355 q 800 43 925 111 q 519 -25 675 -25 q 315 12 408 -25 q 157 122 222 49 q 62 292 92 195 q 33 467 33 388 m 174 512 q 200 334 174 429 q 280 171 227 239 q 403 69 334 102 q 562 36 473 36 q 749 84 667 36 q 873 234 831 132 q 916 461 916 335 q 867 709 916 598 q 728 869 819 819 q 528 920 638 920 q 269 817 363 920 q 174 512 174 713 m 536 1008 m 539 -41 z "},"P":{"ha":839,"x_min":35,"x_max":805,"o":"m 40 958 q 258 953 211 953 q 401 956 321 953 q 505 959 485 959 q 662 939 600 959 q 764 867 724 920 q 805 741 805 815 q 777 623 805 680 q 697 526 748 566 q 594 469 646 486 q 486 452 542 452 q 392 461 444 452 l 380 503 l 387 509 q 469 498 437 498 q 612 556 558 498 q 666 707 666 615 q 610 854 666 799 q 441 909 554 909 q 305 886 379 909 q 299 633 299 833 l 299 319 l 300 187 q 304 88 300 111 q 314 58 307 66 q 338 46 320 51 q 429 38 357 41 l 434 34 l 434 0 l 429 -5 q 234 0 256 0 q 40 -5 211 0 l 35 0 l 35 34 l 40 38 q 124 45 103 41 q 152 55 145 49 q 164 83 159 62 q 169 176 168 104 l 170 319 l 170 633 l 168 766 q 164 865 168 843 q 155 895 161 888 q 130 907 149 903 q 40 915 112 912 l 35 920 l 35 954 l 40 958 z "},"Q":{"ha":1092,"x_min":33,"x_max":1059,"o":"m 367 -171 l 367 -140 l 371 -132 q 543 -25 479 -48 q 259 35 365 -25 q 93 214 154 95 q 33 477 33 334 q 178 837 33 697 q 554 977 323 977 q 819 922 704 977 q 996 761 933 867 q 1059 509 1059 654 q 1045 377 1059 446 q 992 235 1031 308 q 890 108 953 163 q 741 17 827 53 q 558 -25 654 -19 q 708 -71 615 -33 q 883 -133 825 -117 q 983 -149 941 -149 q 1050 -137 1011 -149 l 1057 -142 l 1057 -165 l 1055 -172 q 1025 -190 1045 -179 q 947 -243 966 -223 q 899 -237 936 -243 q 823 -221 861 -232 q 705 -182 785 -210 q 492 -123 532 -123 q 457 -130 475 -123 q 407 -156 439 -137 l 374 -175 l 367 -171 m 174 512 q 200 334 174 429 q 280 171 227 239 q 403 69 334 102 q 562 36 473 36 q 749 84 667 36 q 873 234 831 132 q 916 461 916 335 q 867 709 916 598 q 728 869 819 819 q 528 920 638 920 q 269 817 363 920 q 174 512 174 713 z "},"R":{"ha":928,"x_min":28,"x_max":921,"o":"m 28 954 l 34 958 q 227 953 158 953 q 434 958 304 953 q 504 959 482 959 q 736 897 675 959 q 798 749 798 834 q 768 637 798 692 q 680 543 738 582 q 519 484 621 504 q 587 393 538 458 l 684 265 q 784 132 730 202 q 853 53 838 62 q 880 41 869 43 q 916 39 891 39 l 921 34 l 921 2 l 915 -4 q 838 0 882 0 q 732 -4 789 0 q 585 193 686 53 q 347 495 469 356 l 353 516 q 408 514 389 514 q 592 570 526 514 q 659 726 659 627 q 599 862 659 816 q 437 907 539 907 q 303 888 366 907 q 293 633 293 873 l 293 319 l 294 187 q 298 88 294 111 q 308 58 301 66 q 332 46 314 51 q 422 38 351 41 l 428 34 l 428 0 l 422 -5 q 303 -1 419 -5 q 228 0 255 0 q 34 -5 207 0 l 28 0 l 28 34 l 34 38 q 118 45 97 41 q 146 55 139 49 q 158 83 153 62 q 163 176 162 104 l 163 319 l 163 633 l 162 766 q 158 865 161 843 q 149 895 155 888 q 124 907 142 903 q 34 915 106 912 l 28 920 l 28 954 z "},"S":{"ha":729,"x_min":43,"x_max":696,"o":"m 54 233 l 59 239 l 92 239 l 98 233 q 107 127 101 146 q 143 86 113 108 q 225 52 174 65 q 329 38 277 38 q 458 64 401 38 q 547 142 515 91 q 579 257 579 193 q 564 335 579 302 q 521 388 549 368 q 458 418 494 408 q 353 439 423 428 q 247 459 286 450 q 171 486 209 468 q 107 533 133 505 q 67 602 82 561 q 52 690 52 643 q 140 898 52 817 q 376 979 228 979 q 505 964 435 979 q 631 921 574 949 l 636 913 q 618 735 621 850 l 612 730 l 576 730 l 571 734 q 567 837 570 816 q 505 889 564 858 q 377 920 446 920 q 269 897 319 920 q 193 825 219 874 q 168 724 168 775 q 183 653 168 684 q 223 604 199 622 q 281 577 248 586 q 401 555 314 568 q 576 514 522 538 q 664 438 631 490 q 696 312 696 386 q 579 71 696 168 q 294 -25 461 -25 q 47 25 153 -25 l 43 34 q 54 233 50 77 z "},"T":{"ha":851,"x_min":26,"x_max":825,"o":"m 819 958 l 825 952 q 819 739 819 891 l 813 734 l 781 734 l 776 740 l 768 802 q 760 864 763 852 q 750 880 757 875 q 706 888 743 885 q 623 892 669 892 l 494 892 q 489 715 489 739 l 489 319 l 490 187 q 494 88 491 111 q 504 58 497 65 q 528 46 510 51 q 619 38 547 41 l 624 34 l 624 0 l 619 -5 q 425 0 446 0 q 232 -5 404 0 l 227 0 l 227 34 l 232 38 q 316 45 296 41 q 344 55 337 49 q 356 83 351 62 q 361 176 361 104 l 362 319 l 362 715 q 357 892 362 726 l 256 892 q 148 889 193 892 q 95 875 102 886 q 82 802 88 864 l 75 740 l 69 734 l 38 734 l 33 739 q 26 952 31 903 l 33 958 q 425 953 151 953 q 819 958 705 953 z "},"U":{"ha":1080,"x_min":20,"x_max":1055,"o":"m 20 954 l 26 958 q 220 953 194 953 q 414 958 243 953 l 420 954 l 420 920 l 414 915 q 342 911 368 913 q 305 901 317 908 q 290 866 294 893 q 286 789 286 838 l 285 633 l 285 418 q 289 261 285 311 q 308 177 294 212 q 353 118 323 143 q 438 78 382 94 q 564 62 494 62 q 704 83 639 62 q 802 143 768 104 q 847 247 836 182 q 857 425 857 311 l 857 633 q 856 779 857 686 q 847 885 854 871 q 824 906 841 899 q 728 915 806 913 l 722 920 l 722 952 l 728 958 q 888 953 828 953 q 1048 958 940 953 l 1055 953 l 1055 920 l 1048 915 q 965 910 985 913 q 938 899 946 906 q 927 876 930 891 q 922 786 923 860 l 920 633 l 920 427 q 910 233 920 304 q 868 116 901 161 q 790 39 835 70 q 674 -8 745 8 q 528 -25 604 -25 q 360 -4 433 -25 q 245 52 287 17 q 184 124 203 86 q 161 215 166 163 q 155 373 155 267 l 155 633 l 154 766 q 150 865 153 843 q 141 895 147 888 q 116 907 134 903 q 26 915 98 912 l 20 920 l 20 954 m 550 1008 m 546 -41 z "},"V":{"ha":1003,"x_min":14,"x_max":979,"o":"m 467 -12 q 382 216 456 18 l 151 786 q 102 897 112 884 q 20 915 92 910 l 14 921 l 14 952 l 20 958 q 197 953 124 953 q 376 958 264 953 l 382 953 l 382 916 l 376 910 q 278 905 294 910 q 262 886 262 900 q 284 813 262 878 q 323 705 306 749 l 535 169 l 712 614 q 766 760 730 659 q 801 882 801 861 q 784 903 801 899 q 685 915 768 908 l 679 920 l 679 953 l 685 958 q 836 953 804 953 q 973 958 863 953 l 979 953 l 979 920 l 973 915 q 914 907 924 913 q 896 886 904 902 q 848 779 888 871 l 636 258 q 535 -12 565 84 l 467 -12 z "},"W":{"ha":1389,"x_min":16,"x_max":1364,"o":"m 319 -13 l 258 270 l 127 828 q 94 902 111 895 q 21 917 77 910 l 16 922 l 16 952 l 21 958 q 194 953 119 953 q 358 958 250 953 l 364 952 l 364 922 l 359 917 q 268 909 283 914 q 253 887 253 905 q 267 797 253 873 q 291 674 280 722 l 397 204 l 565 621 q 694 968 631 787 l 738 968 q 850 637 792 798 l 1009 195 l 1124 600 q 1168 768 1142 664 q 1194 888 1194 871 q 1177 910 1194 906 q 1079 917 1160 915 l 1074 923 l 1074 953 l 1079 958 q 1218 953 1194 953 q 1359 958 1240 953 l 1364 953 l 1364 922 l 1359 918 q 1308 910 1320 916 q 1285 893 1295 905 q 1258 823 1276 881 l 1219 697 l 1149 469 q 1094 268 1134 419 l 1019 -13 l 949 -13 q 833 323 879 197 l 678 742 l 543 407 l 471 217 q 425 94 442 142 l 388 -13 l 319 -13 z "},"X":{"ha":926,"x_min":21,"x_max":899,"o":"m 21 3 l 21 36 l 26 41 q 87 50 72 42 q 127 89 103 58 q 223 218 152 119 l 408 475 l 288 680 q 229 769 275 703 q 157 861 183 835 q 118 890 131 886 q 47 895 105 895 l 41 901 l 41 929 l 47 935 l 239 967 q 293 913 264 951 q 376 781 321 876 l 490 583 l 749 961 q 819 959 807 959 q 882 961 825 959 l 888 955 l 888 924 l 882 919 q 826 911 840 917 q 790 882 812 905 q 700 768 768 859 l 574 597 l 523 529 l 753 157 q 805 78 785 104 q 838 47 825 52 q 893 41 850 42 l 899 36 l 899 3 l 893 -3 q 802 0 829 0 q 698 -3 768 0 q 623 117 657 58 l 444 422 l 395 353 q 165 -3 297 219 q 96 0 121 0 q 27 -3 70 0 l 21 3 z "},"Y":{"ha":926,"x_min":4,"x_max":901,"o":"m 10 895 l 4 901 l 4 929 l 10 935 l 202 967 q 242 931 222 953 q 298 850 261 909 q 393 685 335 791 q 505 472 452 578 l 574 582 l 652 712 l 796 958 q 848 956 823 956 q 895 958 863 956 l 901 953 l 901 940 q 795 805 867 903 q 689 651 724 707 q 604 512 654 596 q 548 412 553 429 q 543 372 543 395 l 543 272 l 544 170 q 548 88 545 111 q 558 57 552 64 q 583 45 565 50 q 673 38 601 41 l 678 34 l 678 0 l 673 -5 q 553 -1 669 -5 q 478 0 505 0 q 284 -5 456 0 l 279 0 l 279 34 l 284 38 q 369 45 349 41 q 396 55 389 49 q 408 80 404 62 q 412 157 412 99 l 414 273 l 414 401 q 314 577 399 438 l 254 674 q 183 782 226 720 q 116 865 140 843 q 79 891 92 887 q 10 895 66 895 m 496 1008 m 475 -41 z "},"Z":{"ha":926,"x_min":24,"x_max":882,"o":"m 24 1 l 24 33 l 188 235 l 575 734 q 694 895 663 846 l 666 895 l 557 896 q 325 891 413 896 q 209 882 237 887 q 175 869 181 878 q 164 829 168 861 l 155 739 l 149 733 l 117 733 l 111 739 q 114 821 114 791 q 111 952 114 904 l 117 958 q 455 953 359 953 q 876 958 615 953 l 882 952 l 882 918 q 777 791 807 829 l 212 64 l 487 59 q 652 63 569 59 q 762 71 736 67 q 799 83 789 75 q 812 99 808 91 q 823 145 815 106 l 838 236 l 844 241 l 876 241 l 881 236 q 871 0 876 193 l 865 -5 q 414 0 579 0 q 31 -5 298 0 l 24 1 z "},"Á":{"ha":1080,"x_min":24,"x_max":1048,"o":"m 30 -5 l 24 0 l 24 35 l 30 41 q 94 46 79 41 q 119 63 108 50 q 164 150 130 77 l 235 304 l 420 722 q 524 968 472 845 l 568 968 l 857 287 l 896 196 q 935 112 913 157 q 965 58 957 66 q 986 46 974 50 q 1042 41 999 41 l 1048 35 l 1048 0 l 1042 -5 q 913 1 970 1 q 688 -5 800 -3 l 682 0 l 682 35 l 688 41 q 783 47 764 42 q 802 71 802 52 q 792 110 802 85 l 709 317 l 316 317 l 242 143 q 222 75 222 96 q 241 50 222 58 q 333 41 259 41 l 339 35 l 339 0 l 334 -5 q 180 0 246 0 q 30 -5 106 0 m 339 375 l 682 375 l 512 784 l 339 375 m 545 1008 m 529 -41 m 748 1259 l 606 1152 l 470 1046 l 460 1044 l 443 1060 l 444 1069 l 542 1187 q 606 1267 544 1190 l 733 1284 l 740 1280 l 748 1259 z "},"À":{"ha":1080,"x_min":24,"x_max":1048,"o":"m 30 -5 l 24 0 l 24 35 l 30 41 q 94 46 79 41 q 119 63 108 50 q 164 150 130 77 l 235 304 l 420 722 q 524 968 472 845 l 568 968 l 857 287 l 896 196 q 935 112 913 157 q 965 58 957 66 q 986 46 974 50 q 1042 41 999 41 l 1048 35 l 1048 0 l 1042 -5 q 913 1 970 1 q 688 -5 800 -3 l 682 0 l 682 35 l 688 41 q 783 47 764 42 q 802 71 802 52 q 792 110 802 85 l 709 317 l 316 317 l 242 143 q 222 75 222 96 q 241 50 222 58 q 333 41 259 41 l 339 35 l 339 0 l 334 -5 q 180 0 246 0 q 30 -5 106 0 m 339 375 l 682 375 l 512 784 l 339 375 m 545 1008 m 529 -41 m 621 1060 l 604 1044 l 594 1046 l 458 1152 l 316 1259 l 324 1280 l 331 1284 l 458 1267 l 524 1185 q 620 1069 534 1172 l 621 1060 z "},"Â":{"ha":1080,"x_min":24,"x_max":1048,"o":"m 30 -5 l 24 0 l 24 35 l 30 41 q 94 46 79 41 q 119 63 108 50 q 164 150 130 77 l 235 304 l 420 722 q 524 968 472 845 l 568 968 l 857 287 l 896 196 q 935 112 913 157 q 965 58 957 66 q 986 46 974 50 q 1042 41 999 41 l 1048 35 l 1048 0 l 1042 -5 q 913 1 970 1 q 688 -5 800 -3 l 682 0 l 682 35 l 688 41 q 783 47 764 42 q 802 71 802 52 q 792 110 802 85 l 709 317 l 316 317 l 242 143 q 222 75 222 96 q 241 50 222 58 q 333 41 259 41 l 339 35 l 339 0 l 334 -5 q 180 0 246 0 q 30 -5 106 0 m 339 375 l 682 375 l 512 784 l 339 375 m 545 1008 m 529 -41 m 762 1051 l 758 1044 l 715 1044 l 536 1202 l 357 1044 l 315 1044 l 311 1050 l 506 1292 l 571 1292 l 762 1051 m 853 1080 m 538 1292 z "},"Ä":{"ha":1080,"x_min":24,"x_max":1048,"o":"m 30 -5 l 24 0 l 24 35 l 30 41 q 94 46 79 41 q 119 63 108 50 q 164 150 130 77 l 235 304 l 420 722 q 524 968 472 845 l 568 968 l 857 287 l 896 196 q 935 112 913 157 q 965 58 957 66 q 986 46 974 50 q 1042 41 999 41 l 1048 35 l 1048 0 l 1042 -5 q 913 1 970 1 q 688 -5 800 -3 l 682 0 l 682 35 l 688 41 q 783 47 764 42 q 802 71 802 52 q 792 110 802 85 l 709 317 l 316 317 l 242 143 q 222 75 222 96 q 241 50 222 58 q 333 41 259 41 l 339 35 l 339 0 l 334 -5 q 180 0 246 0 q 30 -5 106 0 m 339 375 l 682 375 l 512 784 l 339 375 m 545 1008 m 529 -41 m 704 1081 q 650 1103 672 1081 q 627 1157 627 1125 q 650 1211 627 1189 q 704 1234 672 1234 q 758 1211 736 1234 q 780 1157 780 1189 q 758 1103 780 1125 q 704 1081 736 1081 m 370 1081 q 315 1103 338 1081 q 293 1157 293 1125 q 315 1211 293 1189 q 370 1234 338 1234 q 424 1211 401 1234 q 446 1157 446 1189 q 424 1103 446 1125 q 370 1081 401 1081 z "},"Ã":{"ha":1080,"x_min":24,"x_max":1048,"o":"m 30 -5 l 24 0 l 24 35 l 30 41 q 94 46 79 41 q 119 63 108 50 q 164 150 130 77 l 235 304 l 420 722 q 524 968 472 845 l 568 968 l 857 287 l 896 196 q 935 112 913 157 q 965 58 957 66 q 986 46 974 50 q 1042 41 999 41 l 1048 35 l 1048 0 l 1042 -5 q 913 1 970 1 q 688 -5 800 -3 l 682 0 l 682 35 l 688 41 q 783 47 764 42 q 802 71 802 52 q 792 110 802 85 l 709 317 l 316 317 l 242 143 q 222 75 222 96 q 241 50 222 58 q 333 41 259 41 l 339 35 l 339 0 l 334 -5 q 180 0 246 0 q 30 -5 106 0 m 339 375 l 682 375 l 512 784 l 339 375 m 545 1008 m 529 -41 m 777 1236 q 722 1132 764 1176 q 629 1087 681 1087 q 515 1120 583 1087 q 422 1154 446 1154 q 338 1087 361 1154 l 308 1087 l 303 1093 q 357 1196 315 1152 q 450 1240 399 1240 q 564 1206 496 1240 q 659 1173 631 1173 q 741 1240 714 1173 l 772 1240 l 777 1236 z "},"Ă":{"ha":1080,"x_min":24,"x_max":1048,"o":"m 30 -5 l 24 0 l 24 35 l 30 41 q 94 46 79 41 q 119 63 108 50 q 164 150 130 77 l 235 304 l 420 722 q 524 968 472 845 l 568 968 l 857 287 l 896 196 q 935 112 913 157 q 965 58 957 66 q 986 46 974 50 q 1042 41 999 41 l 1048 35 l 1048 0 l 1042 -5 q 913 1 970 1 q 688 -5 800 -3 l 682 0 l 682 35 l 688 41 q 783 47 764 42 q 802 71 802 52 q 792 110 802 85 l 709 317 l 316 317 l 242 143 q 222 75 222 96 q 241 50 222 58 q 333 41 259 41 l 339 35 l 339 0 l 334 -5 q 180 0 246 0 q 30 -5 106 0 m 339 375 l 682 375 l 512 784 l 339 375 m 545 1008 m 529 -41 m 745 1269 q 705 1135 745 1195 q 544 1055 650 1055 q 377 1131 433 1055 q 334 1269 334 1189 l 338 1274 l 374 1274 q 546 1143 400 1143 q 706 1274 681 1143 l 742 1274 l 745 1269 m 545 1276 z "},"Å":{"ha":1080,"x_min":24,"x_max":1048,"o":"m 30 -5 l 24 0 l 24 35 l 30 41 q 94 46 79 41 q 119 63 108 50 q 164 150 130 77 l 235 304 l 420 722 q 524 968 472 845 l 568 968 l 857 287 l 896 196 q 935 112 913 157 q 965 58 957 66 q 986 46 974 50 q 1042 41 999 41 l 1048 35 l 1048 0 l 1042 -5 q 913 1 970 1 q 688 -5 800 -3 l 682 0 l 682 35 l 688 41 q 783 47 764 42 q 802 71 802 52 q 792 110 802 85 l 709 317 l 316 317 l 242 143 q 222 75 222 96 q 241 50 222 58 q 333 41 259 41 l 339 35 l 339 0 l 334 -5 q 180 0 246 0 q 30 -5 106 0 m 339 375 l 682 375 l 512 784 l 339 375 m 545 1008 m 529 -41 m 677 1164 q 659 1096 677 1126 q 608 1049 640 1067 q 536 1031 576 1031 q 464 1049 496 1031 q 414 1096 432 1067 q 395 1164 395 1126 q 436 1259 395 1221 q 536 1297 477 1297 q 637 1260 596 1297 q 677 1164 677 1222 m 618 1164 q 595 1236 618 1205 q 536 1267 572 1267 q 478 1236 501 1267 q 454 1164 454 1205 q 476 1095 454 1128 q 536 1062 498 1062 q 595 1093 572 1062 q 618 1164 618 1124 z "},"Ǻ":{"ha":1080,"x_min":24,"x_max":1048,"o":"m 806 1434 q 564 1252 713 1367 l 555 1251 l 530 1271 l 531 1280 l 675 1440 l 684 1443 l 789 1458 l 798 1453 l 806 1434 m 549 991 q 458 1025 496 991 q 420 1112 420 1060 q 458 1197 420 1164 q 549 1231 496 1231 q 640 1196 603 1231 q 677 1112 677 1162 q 639 1026 677 1061 q 549 991 601 991 m 549 1202 q 497 1175 517 1202 q 477 1112 477 1149 q 497 1048 477 1076 q 549 1020 517 1020 q 601 1047 581 1020 q 621 1112 621 1074 q 601 1175 621 1148 q 549 1202 581 1202 m 1048 0 l 1042 -5 q 881 0 1004 0 q 688 -5 862 0 l 682 0 l 682 35 l 688 41 l 742 42 q 786 50 770 42 q 802 71 802 57 q 792 110 802 86 l 709 317 l 316 317 l 242 143 q 222 75 222 97 q 234 54 222 62 q 262 44 245 46 q 333 41 278 41 l 339 35 l 339 0 l 334 -5 q 180 0 246 0 q 30 -5 106 0 l 24 0 l 24 35 l 30 41 q 89 47 66 41 q 123 68 112 54 q 163 149 134 83 l 235 304 l 420 722 q 524 968 429 743 l 568 968 l 896 196 q 965 59 947 76 q 1042 41 984 41 l 1048 35 l 1048 0 m 682 375 l 512 784 l 339 375 l 682 375 z "},"Ā":{"ha":1080,"x_min":24,"x_max":1048,"o":"m 30 -5 l 24 0 l 24 35 l 30 41 q 94 46 79 41 q 119 63 108 50 q 164 150 130 77 l 235 304 l 420 722 q 524 968 472 845 l 568 968 l 857 287 l 896 196 q 935 112 913 157 q 965 58 957 66 q 986 46 974 50 q 1042 41 999 41 l 1048 35 l 1048 0 l 1042 -5 q 913 1 970 1 q 688 -5 800 -3 l 682 0 l 682 35 l 688 41 q 783 47 764 42 q 802 71 802 52 q 792 110 802 85 l 709 317 l 316 317 l 242 143 q 222 75 222 96 q 241 50 222 58 q 333 41 259 41 l 339 35 l 339 0 l 334 -5 q 180 0 246 0 q 30 -5 106 0 m 339 375 l 682 375 l 512 784 l 339 375 m 545 1008 m 529 -41 m 760 1129 l 320 1129 l 320 1198 l 760 1198 l 760 1129 z "},"Ą":{"ha":1080,"x_min":24,"x_max":1069,"o":"m 1069 -180 q 882 -268 970 -268 q 802 -238 834 -268 q 769 -155 769 -208 q 886 0 769 -72 l 688 -5 l 682 0 l 682 35 l 688 41 l 742 42 q 786 50 770 42 q 802 71 802 57 q 792 110 802 86 l 709 317 l 316 317 l 242 143 q 222 75 222 97 q 234 54 222 62 q 262 44 245 46 q 333 41 278 41 l 339 35 l 339 0 l 334 -5 q 180 0 246 0 q 30 -5 106 0 l 24 0 l 24 35 l 30 41 q 89 47 66 41 q 123 68 112 54 q 163 149 134 83 l 235 304 l 420 722 q 524 968 429 743 l 568 968 l 896 196 q 965 59 947 76 q 1042 41 984 41 l 1048 35 l 1048 0 l 1042 -5 q 937 0 1012 -2 q 852 -131 852 -78 q 871 -180 852 -160 q 922 -200 890 -200 q 1045 -150 977 -200 l 1054 -151 l 1069 -170 l 1069 -180 m 682 375 l 512 784 l 339 375 l 682 375 z "},"Æ":{"ha":1311,"x_min":0,"x_max":1252,"o":"m 410 954 l 415 958 q 813 952 715 952 q 1206 958 943 952 l 1212 952 q 1204 903 1211 946 q 1194 839 1196 859 q 1187 749 1192 820 l 1181 743 l 1150 743 l 1144 748 q 1136 870 1143 823 q 911 899 1048 899 q 784 893 865 899 q 777 728 777 804 l 777 522 q 877 518 835 518 q 999 522 958 518 q 1046 532 1039 526 q 1056 553 1053 537 q 1063 611 1059 570 q 1066 635 1065 627 l 1072 640 l 1105 640 l 1111 635 q 1106 491 1106 557 q 1111 333 1106 437 l 1105 328 l 1072 328 l 1066 333 l 1061 397 q 1054 435 1059 427 q 1040 449 1049 444 q 980 458 1030 454 q 897 462 930 462 q 777 458 837 460 l 777 215 q 779 60 777 138 l 905 60 q 1088 62 1046 60 q 1173 83 1130 65 q 1207 224 1183 110 l 1213 229 l 1246 229 l 1252 224 q 1240 102 1241 131 q 1234 1 1238 73 l 1227 -5 q 850 0 942 0 q 583 -5 652 0 l 578 0 l 578 22 l 582 28 q 642 61 621 45 q 650 156 648 90 l 654 283 l 654 335 q 484 339 584 339 q 317 335 379 339 q 250 214 292 294 q 199 112 207 134 q 191 81 191 90 q 215 52 191 60 q 306 41 239 43 l 312 35 l 312 -1 l 307 -5 q 147 0 224 0 q 5 -5 87 0 l 0 -1 l 0 36 l 6 41 q 60 48 44 41 q 94 79 77 56 q 129 139 111 103 l 492 779 q 534 856 523 833 q 545 889 545 880 q 530 907 545 904 q 416 918 515 911 l 410 924 l 410 954 m 350 392 l 654 392 l 656 700 q 654 903 656 779 l 637 903 q 606 853 624 884 l 544 742 l 446 567 l 350 392 z "},"Ǽ":{"ha":1311,"x_min":0,"x_max":1252,"o":"m 410 954 l 415 958 q 813 952 715 952 q 1206 958 943 952 l 1212 952 q 1204 903 1211 946 q 1194 839 1196 859 q 1187 749 1192 820 l 1181 743 l 1150 743 l 1144 748 q 1136 870 1143 823 q 911 899 1048 899 q 784 893 865 899 q 777 728 777 804 l 777 522 q 877 518 835 518 q 999 522 958 518 q 1046 532 1039 526 q 1056 553 1053 537 q 1063 611 1059 570 q 1066 635 1065 627 l 1072 640 l 1105 640 l 1111 635 q 1106 491 1106 557 q 1111 333 1106 437 l 1105 328 l 1072 328 l 1066 333 l 1061 397 q 1054 435 1059 427 q 1040 449 1049 444 q 980 458 1030 454 q 897 462 930 462 q 777 458 837 460 l 777 215 q 779 60 777 138 l 905 60 q 1088 62 1046 60 q 1173 83 1130 65 q 1207 224 1183 110 l 1213 229 l 1246 229 l 1252 224 q 1240 102 1241 131 q 1234 1 1238 73 l 1227 -5 q 850 0 942 0 q 583 -5 652 0 l 578 0 l 578 22 l 582 28 q 642 61 621 45 q 650 156 648 90 l 654 283 l 654 335 q 484 339 584 339 q 317 335 379 339 q 250 214 292 294 q 199 112 207 134 q 191 81 191 90 q 215 52 191 60 q 306 41 239 43 l 312 35 l 312 -1 l 307 -5 q 147 0 224 0 q 5 -5 87 0 l 0 -1 l 0 36 l 6 41 q 60 48 44 41 q 94 79 77 56 q 129 139 111 103 l 492 779 q 534 856 523 833 q 545 889 545 880 q 530 907 545 904 q 416 918 515 911 l 410 924 l 410 954 m 350 392 l 654 392 l 656 700 q 654 903 656 779 l 637 903 q 606 853 624 884 l 544 742 l 446 567 l 350 392 m 1087 1259 l 945 1152 l 809 1046 l 799 1044 l 782 1060 l 783 1069 l 881 1187 q 945 1267 883 1190 l 1072 1284 l 1079 1280 l 1087 1259 z "},"Ć":{"ha":985,"x_min":48,"x_max":946,"o":"m 946 115 l 920 52 q 599 -25 770 -25 q 201 114 354 -25 q 48 477 48 253 q 124 748 48 632 q 326 921 201 863 q 607 978 451 978 q 785 959 697 978 q 932 913 873 940 l 937 907 q 908 719 922 869 l 903 713 l 871 713 l 866 719 l 859 834 q 740 896 810 873 q 593 918 669 918 q 388 868 479 918 q 247 726 297 819 q 197 498 197 633 q 256 260 197 362 q 417 102 315 157 q 655 47 519 47 q 771 59 715 47 q 864 87 827 71 q 935 129 901 104 l 946 115 m 804 1259 l 662 1152 l 526 1046 l 516 1044 l 499 1060 l 500 1069 l 598 1187 q 663 1267 600 1190 l 789 1284 l 796 1280 l 804 1259 z "},"Ĉ":{"ha":985,"x_min":48,"x_max":946,"o":"m 946 115 l 920 52 q 599 -25 770 -25 q 201 114 354 -25 q 48 477 48 253 q 124 748 48 632 q 326 921 201 863 q 607 978 451 978 q 785 959 697 978 q 932 913 873 940 l 937 907 q 908 719 922 869 l 903 713 l 871 713 l 866 719 l 859 834 q 740 896 810 873 q 593 918 669 918 q 388 868 479 918 q 247 726 297 819 q 197 498 197 633 q 256 260 197 362 q 417 102 315 157 q 655 47 519 47 q 771 59 715 47 q 864 87 827 71 q 935 129 901 104 l 946 115 m 810 1051 l 805 1044 l 763 1044 l 584 1202 l 405 1044 l 363 1044 l 358 1050 l 553 1292 l 618 1292 l 810 1051 m 901 1080 m 586 1292 z "},"Č":{"ha":985,"x_min":48,"x_max":946,"o":"m 946 115 l 920 52 q 599 -25 770 -25 q 201 114 354 -25 q 48 477 48 253 q 124 748 48 632 q 326 921 201 863 q 607 978 451 978 q 785 959 697 978 q 932 913 873 940 l 937 907 q 908 719 922 869 l 903 713 l 871 713 l 866 719 l 859 834 q 740 896 810 873 q 593 918 669 918 q 388 868 479 918 q 247 726 297 819 q 197 498 197 633 q 256 260 197 362 q 417 102 315 157 q 655 47 519 47 q 771 59 715 47 q 864 87 827 71 q 935 129 901 104 l 946 115 m 829 1284 l 639 1044 l 553 1044 l 359 1284 l 363 1292 l 406 1292 l 594 1120 l 780 1292 l 824 1292 l 829 1284 z "},"Ç":{"ha":985,"x_min":48,"x_max":946,"o":"m 593 -25 l 562 -96 q 604 -92 585 -92 q 691 -120 661 -92 q 722 -188 722 -147 q 680 -270 722 -235 q 556 -304 638 -304 q 434 -285 489 -304 l 431 -277 l 447 -242 l 454 -239 q 539 -254 496 -254 q 594 -236 576 -254 q 612 -197 612 -218 q 593 -158 612 -173 q 543 -144 574 -144 q 502 -151 524 -144 l 490 -141 l 543 -22 q 183 132 318 -6 q 48 477 48 269 q 125 748 48 632 q 326 921 201 863 q 607 978 451 978 q 785 959 697 978 q 932 913 873 940 l 937 907 q 908 719 922 869 l 903 713 l 871 713 l 866 719 l 859 834 q 740 896 810 873 q 593 918 669 918 q 388 868 479 918 q 247 726 297 819 q 197 498 197 633 q 256 260 197 362 q 417 102 315 157 q 655 47 519 47 q 771 59 715 47 q 864 87 827 71 q 935 129 901 104 l 946 115 l 920 52 q 593 -25 768 -25 z "},"Ċ":{"ha":985,"x_min":48,"x_max":946,"o":"m 946 115 l 920 52 q 599 -25 770 -25 q 201 114 354 -25 q 48 477 48 253 q 124 748 48 632 q 326 921 201 863 q 607 978 451 978 q 785 959 697 978 q 932 913 873 940 l 937 907 q 908 719 922 869 l 903 713 l 871 713 l 866 719 l 859 834 q 740 896 810 873 q 593 918 669 918 q 388 868 479 918 q 247 726 297 819 q 197 498 197 633 q 256 260 197 362 q 417 102 315 157 q 655 47 519 47 q 771 59 715 47 q 864 87 827 71 q 935 129 901 104 l 946 115 m 585 1088 q 530 1110 553 1088 q 508 1164 508 1132 q 530 1218 508 1196 q 585 1240 553 1240 q 638 1218 616 1240 q 661 1164 661 1196 q 638 1110 661 1132 q 585 1088 616 1088 z "},"Ď":{"ha":1075,"x_min":20,"x_max":1017,"o":"m 20 954 l 26 958 q 186 953 143 953 l 503 960 q 726 934 639 960 q 880 846 812 909 q 982 700 947 783 q 1017 523 1017 617 q 985 342 1017 431 q 895 181 954 252 q 761 67 836 111 q 611 9 686 24 q 457 -5 536 -5 q 258 -1 404 -5 q 194 0 210 0 q 81 -5 147 0 l 75 0 l 75 22 l 81 29 q 126 55 121 50 q 136 173 132 60 q 140 347 140 287 l 140 595 l 139 749 q 138 831 139 800 q 133 876 136 863 q 125 895 130 890 q 111 904 121 901 q 77 911 101 908 l 26 915 l 20 920 l 20 954 m 271 68 q 431 55 340 55 q 683 108 589 55 q 825 264 778 161 q 871 498 871 368 q 769 796 871 690 q 446 902 667 902 q 271 888 355 902 q 266 637 266 777 l 266 425 l 267 225 q 271 68 267 167 m 734 1284 l 544 1044 l 458 1044 l 264 1284 l 269 1292 l 311 1292 l 499 1120 l 685 1292 l 729 1292 l 734 1284 z "},"Đ":{"ha":1075,"x_min":18,"x_max":1017,"o":"m 18 471 l 18 509 l 25 516 l 140 516 l 140 595 l 139 749 q 138 831 139 800 q 133 876 136 863 q 125 895 130 890 q 111 904 121 901 q 78 911 101 908 l 26 915 l 20 920 l 20 954 l 26 958 q 186 953 143 953 l 503 960 q 721 936 634 960 q 874 852 808 911 q 979 711 941 793 q 1017 524 1017 629 q 986 343 1017 432 q 896 182 954 254 q 762 67 837 111 q 611 9 687 24 q 458 -5 536 -5 q 258 -1 404 -5 q 194 0 210 0 q 81 -5 147 0 l 76 0 l 76 22 l 81 29 q 127 55 121 50 q 136 173 132 60 q 140 347 140 287 l 140 464 l 24 464 l 18 471 m 490 516 l 497 509 l 497 471 l 490 464 l 266 464 l 266 425 l 267 225 q 271 68 267 167 q 431 55 341 55 q 683 108 589 55 q 825 264 778 161 q 871 498 871 368 q 769 796 871 690 q 447 902 667 902 q 271 888 355 902 q 266 637 266 777 l 266 516 l 490 516 z "},"Ð":{"ha":1075,"x_min":18,"x_max":1017,"o":"m 18 471 l 18 509 l 25 516 l 140 516 l 140 595 l 139 749 q 138 831 139 800 q 133 876 136 863 q 125 895 130 890 q 111 904 121 901 q 78 911 101 908 l 26 915 l 20 920 l 20 954 l 26 958 q 186 953 143 953 l 503 960 q 721 936 634 960 q 874 852 808 911 q 979 711 941 793 q 1017 524 1017 629 q 986 343 1017 432 q 896 182 954 254 q 762 67 837 111 q 611 9 687 24 q 458 -5 536 -5 q 258 -1 404 -5 q 194 0 210 0 q 81 -5 147 0 l 76 0 l 76 22 l 81 29 q 127 55 121 50 q 136 173 132 60 q 140 347 140 287 l 140 464 l 24 464 l 18 471 m 490 516 l 497 509 l 497 471 l 490 464 l 266 464 l 266 425 l 267 225 q 271 68 267 167 q 431 55 341 55 q 683 108 589 55 q 825 264 778 161 q 871 498 871 368 q 769 796 871 690 q 447 902 667 902 q 271 888 355 902 q 266 637 266 777 l 266 516 l 490 516 z "},"É":{"ha":848,"x_min":50,"x_max":790,"o":"m 50 954 l 55 958 q 353 954 288 954 q 749 958 575 954 l 752 954 q 727 749 735 888 l 723 744 l 690 744 l 684 749 q 684 760 684 755 q 675 870 684 818 q 557 895 633 889 q 444 901 481 901 q 307 893 390 901 l 304 785 l 302 661 l 300 523 q 435 519 373 519 q 539 523 497 519 q 588 531 581 527 q 599 548 595 536 q 606 593 603 561 l 608 635 l 614 640 l 645 640 l 650 635 q 647 486 649 561 l 650 334 l 645 328 l 614 328 l 608 334 l 604 374 q 595 431 597 422 q 582 447 592 440 q 532 458 572 454 q 420 462 491 462 q 300 458 380 462 q 296 269 296 401 q 300 59 296 126 l 425 59 q 631 63 589 59 q 709 83 672 67 q 729 155 715 98 q 745 226 743 212 l 752 231 l 785 231 l 790 226 q 778 124 784 197 q 772 0 772 52 l 768 -5 q 429 -1 638 -1 l 244 0 q 110 -5 180 0 l 104 0 l 104 22 l 110 29 q 156 55 150 50 q 165 173 161 60 q 169 347 169 287 l 169 595 l 168 749 q 167 831 168 800 q 162 876 165 863 q 154 895 159 890 q 140 904 150 901 q 106 911 130 908 l 55 915 l 50 920 l 50 954 m 437 1008 m 434 -41 m 703 1259 l 560 1152 l 425 1046 l 414 1044 l 397 1060 l 399 1069 l 496 1187 q 561 1267 498 1190 l 688 1284 l 694 1280 l 703 1259 z "},"È":{"ha":848,"x_min":50,"x_max":790,"o":"m 50 954 l 55 958 q 353 954 288 954 q 749 958 575 954 l 752 954 q 727 749 735 888 l 723 744 l 690 744 l 684 749 q 684 760 684 755 q 675 870 684 818 q 557 895 633 889 q 444 901 481 901 q 307 893 390 901 l 304 785 l 302 661 l 300 523 q 435 519 373 519 q 539 523 497 519 q 588 531 581 527 q 599 548 595 536 q 606 593 603 561 l 608 635 l 614 640 l 645 640 l 650 635 q 647 486 649 561 l 650 334 l 645 328 l 614 328 l 608 334 l 604 374 q 595 431 597 422 q 582 447 592 440 q 532 458 572 454 q 420 462 491 462 q 300 458 380 462 q 296 269 296 401 q 300 59 296 126 l 425 59 q 631 63 589 59 q 709 83 672 67 q 729 155 715 98 q 745 226 743 212 l 752 231 l 785 231 l 790 226 q 778 124 784 197 q 772 0 772 52 l 768 -5 q 429 -1 638 -1 l 244 0 q 110 -5 180 0 l 104 0 l 104 22 l 110 29 q 156 55 150 50 q 165 173 161 60 q 169 347 169 287 l 169 595 l 168 749 q 167 831 168 800 q 162 876 165 863 q 154 895 159 890 q 140 904 150 901 q 106 911 130 908 l 55 915 l 50 920 l 50 954 m 437 1008 m 434 -41 m 513 1060 l 496 1044 l 486 1046 l 350 1152 l 208 1259 l 216 1280 l 222 1284 l 349 1267 l 415 1185 q 511 1069 426 1172 l 513 1060 z "},"Ê":{"ha":848,"x_min":50,"x_max":790,"o":"m 50 954 l 55 958 q 353 954 288 954 q 749 958 575 954 l 752 954 q 727 749 735 888 l 723 744 l 690 744 l 684 749 q 684 760 684 755 q 675 870 684 818 q 557 895 633 889 q 444 901 481 901 q 307 893 390 901 l 304 785 l 302 661 l 300 523 q 435 519 373 519 q 539 523 497 519 q 588 531 581 527 q 599 548 595 536 q 606 593 603 561 l 608 635 l 614 640 l 645 640 l 650 635 q 647 486 649 561 l 650 334 l 645 328 l 614 328 l 608 334 l 604 374 q 595 431 597 422 q 582 447 592 440 q 532 458 572 454 q 420 462 491 462 q 300 458 380 462 q 296 269 296 401 q 300 59 296 126 l 425 59 q 631 63 589 59 q 709 83 672 67 q 729 155 715 98 q 745 226 743 212 l 752 231 l 785 231 l 790 226 q 778 124 784 197 q 772 0 772 52 l 768 -5 q 429 -1 638 -1 l 244 0 q 110 -5 180 0 l 104 0 l 104 22 l 110 29 q 156 55 150 50 q 165 173 161 60 q 169 347 169 287 l 169 595 l 168 749 q 167 831 168 800 q 162 876 165 863 q 154 895 159 890 q 140 904 150 901 q 106 911 130 908 l 55 915 l 50 920 l 50 954 m 437 1008 m 434 -41 m 657 1051 l 652 1044 l 610 1044 l 431 1202 l 252 1044 l 210 1044 l 205 1050 l 401 1292 l 466 1292 l 657 1051 m 748 1080 m 433 1292 z "},"Ë":{"ha":848,"x_min":50,"x_max":790,"o":"m 50 954 l 55 958 q 353 954 288 954 q 749 958 575 954 l 752 954 q 727 749 735 888 l 723 744 l 690 744 l 684 749 q 684 760 684 755 q 675 870 684 818 q 557 895 633 889 q 444 901 481 901 q 307 893 390 901 l 304 785 l 302 661 l 300 523 q 435 519 373 519 q 539 523 497 519 q 588 531 581 527 q 599 548 595 536 q 606 593 603 561 l 608 635 l 614 640 l 645 640 l 650 635 q 647 486 649 561 l 650 334 l 645 328 l 614 328 l 608 334 l 604 374 q 595 431 597 422 q 582 447 592 440 q 532 458 572 454 q 420 462 491 462 q 300 458 380 462 q 296 269 296 401 q 300 59 296 126 l 425 59 q 631 63 589 59 q 709 83 672 67 q 729 155 715 98 q 745 226 743 212 l 752 231 l 785 231 l 790 226 q 778 124 784 197 q 772 0 772 52 l 768 -5 q 429 -1 638 -1 l 244 0 q 110 -5 180 0 l 104 0 l 104 22 l 110 29 q 156 55 150 50 q 165 173 161 60 q 169 347 169 287 l 169 595 l 168 749 q 167 831 168 800 q 162 876 165 863 q 154 895 159 890 q 140 904 150 901 q 106 911 130 908 l 55 915 l 50 920 l 50 954 m 437 1008 m 434 -41 m 599 1088 q 545 1110 567 1088 q 522 1164 522 1132 q 545 1218 522 1196 q 599 1240 567 1240 q 653 1218 631 1240 q 675 1164 675 1196 q 653 1110 675 1132 q 599 1088 631 1088 m 264 1088 q 210 1110 233 1088 q 188 1164 188 1132 q 210 1218 188 1196 q 264 1240 233 1240 q 318 1218 296 1240 q 340 1164 340 1196 q 318 1110 340 1132 q 264 1088 296 1088 z "},"Ě":{"ha":848,"x_min":50,"x_max":790,"o":"m 50 954 l 55 958 q 353 954 288 954 q 749 958 575 954 l 752 954 q 727 749 735 888 l 723 744 l 690 744 l 684 749 q 684 760 684 755 q 675 870 684 818 q 557 895 633 889 q 444 901 481 901 q 307 893 390 901 l 304 785 l 302 661 l 300 523 q 435 519 373 519 q 539 523 497 519 q 588 531 581 527 q 599 548 595 536 q 606 593 603 561 l 608 635 l 614 640 l 645 640 l 650 635 q 647 486 649 561 l 650 334 l 645 328 l 614 328 l 608 334 l 604 374 q 595 431 597 422 q 582 447 592 440 q 532 458 572 454 q 420 462 491 462 q 300 458 380 462 q 296 269 296 401 q 300 59 296 126 l 425 59 q 631 63 589 59 q 709 83 672 67 q 729 155 715 98 q 745 226 743 212 l 752 231 l 785 231 l 790 226 q 778 124 784 197 q 772 0 772 52 l 768 -5 q 429 -1 638 -1 l 244 0 q 110 -5 180 0 l 104 0 l 104 22 l 110 29 q 156 55 150 50 q 165 173 161 60 q 169 347 169 287 l 169 595 l 168 749 q 167 831 168 800 q 162 876 165 863 q 154 895 159 890 q 140 904 150 901 q 106 911 130 908 l 55 915 l 50 920 l 50 954 m 437 1008 m 434 -41 m 683 1284 l 493 1044 l 408 1044 l 214 1284 l 218 1292 l 260 1292 l 448 1120 l 634 1292 l 678 1292 l 683 1284 z "},"Ĕ":{"ha":848,"x_min":50,"x_max":790,"o":"m 50 954 l 55 958 q 353 954 288 954 q 749 958 575 954 l 752 954 q 727 749 735 888 l 723 744 l 690 744 l 684 749 q 684 760 684 755 q 675 870 684 818 q 557 895 633 889 q 444 901 481 901 q 307 893 390 901 l 304 785 l 302 661 l 300 523 q 435 519 373 519 q 539 523 497 519 q 588 531 581 527 q 599 548 595 536 q 606 593 603 561 l 608 635 l 614 640 l 645 640 l 650 635 q 647 486 649 561 l 650 334 l 645 328 l 614 328 l 608 334 l 604 374 q 595 431 597 422 q 582 447 592 440 q 532 458 572 454 q 420 462 491 462 q 300 458 380 462 q 296 269 296 401 q 300 59 296 126 l 425 59 q 631 63 589 59 q 709 83 672 67 q 729 155 715 98 q 745 226 743 212 l 752 231 l 785 231 l 790 226 q 778 124 784 197 q 772 0 772 52 l 768 -5 q 429 -1 638 -1 l 244 0 q 110 -5 180 0 l 104 0 l 104 22 l 110 29 q 156 55 150 50 q 165 173 161 60 q 169 347 169 287 l 169 595 l 168 749 q 167 831 168 800 q 162 876 165 863 q 154 895 159 890 q 140 904 150 901 q 106 911 130 908 l 55 915 l 50 920 l 50 954 m 437 1008 m 434 -41 m 644 1269 q 603 1135 644 1195 q 442 1055 549 1055 q 275 1131 331 1055 q 233 1269 233 1189 l 236 1274 l 272 1274 q 444 1143 298 1143 q 604 1274 579 1143 l 640 1274 l 644 1269 m 444 1276 z "},"Ė":{"ha":848,"x_min":50,"x_max":790,"o":"m 50 954 l 55 958 q 353 954 288 954 q 749 958 575 954 l 752 954 q 727 749 735 888 l 723 744 l 690 744 l 684 749 q 684 760 684 755 q 675 870 684 818 q 557 895 633 889 q 444 901 481 901 q 307 893 390 901 l 304 785 l 302 661 l 300 523 q 435 519 373 519 q 539 523 497 519 q 588 531 581 527 q 599 548 595 536 q 606 593 603 561 l 608 635 l 614 640 l 645 640 l 650 635 q 647 486 649 561 l 650 334 l 645 328 l 614 328 l 608 334 l 604 374 q 595 431 597 422 q 582 447 592 440 q 532 458 572 454 q 420 462 491 462 q 300 458 380 462 q 296 269 296 401 q 300 59 296 126 l 425 59 q 631 63 589 59 q 709 83 672 67 q 729 155 715 98 q 745 226 743 212 l 752 231 l 785 231 l 790 226 q 778 124 784 197 q 772 0 772 52 l 768 -5 q 429 -1 638 -1 l 244 0 q 110 -5 180 0 l 104 0 l 104 22 l 110 29 q 156 55 150 50 q 165 173 161 60 q 169 347 169 287 l 169 595 l 168 749 q 167 831 168 800 q 162 876 165 863 q 154 895 159 890 q 140 904 150 901 q 106 911 130 908 l 55 915 l 50 920 l 50 954 m 437 1008 m 434 -41 m 432 1088 q 378 1110 400 1088 q 355 1164 355 1132 q 378 1218 355 1196 q 432 1240 400 1240 q 486 1218 464 1240 q 508 1164 508 1196 q 486 1110 508 1132 q 432 1088 464 1088 z "},"Ē":{"ha":848,"x_min":50,"x_max":790,"o":"m 50 954 l 55 958 q 353 954 288 954 q 749 958 575 954 l 752 954 q 727 749 735 888 l 723 744 l 690 744 l 684 749 q 684 760 684 755 q 675 870 684 818 q 557 895 633 889 q 444 901 481 901 q 307 893 390 901 l 304 785 l 302 661 l 300 523 q 435 519 373 519 q 539 523 497 519 q 588 531 581 527 q 599 548 595 536 q 606 593 603 561 l 608 635 l 614 640 l 645 640 l 650 635 q 647 486 649 561 l 650 334 l 645 328 l 614 328 l 608 334 l 604 374 q 595 431 597 422 q 582 447 592 440 q 532 458 572 454 q 420 462 491 462 q 300 458 380 462 q 296 269 296 401 q 300 59 296 126 l 425 59 q 631 63 589 59 q 709 83 672 67 q 729 155 715 98 q 745 226 743 212 l 752 231 l 785 231 l 790 226 q 778 124 784 197 q 772 0 772 52 l 768 -5 q 429 -1 638 -1 l 244 0 q 110 -5 180 0 l 104 0 l 104 22 l 110 29 q 156 55 150 50 q 165 173 161 60 q 169 347 169 287 l 169 595 l 168 749 q 167 831 168 800 q 162 876 165 863 q 154 895 159 890 q 140 904 150 901 q 106 911 130 908 l 55 915 l 50 920 l 50 954 m 437 1008 m 434 -41 m 651 1129 l 212 1129 l 212 1198 l 651 1198 l 651 1129 z "},"Ę":{"ha":848,"x_min":50,"x_max":790,"o":"m 790 226 q 772 0 772 78 l 766 -5 l 652 -3 q 571 -131 571 -78 q 641 -200 571 -200 q 764 -150 696 -200 l 772 -151 l 787 -170 l 787 -180 q 601 -268 688 -268 q 542 -253 568 -268 q 502 -214 515 -239 q 488 -155 488 -189 q 602 -3 488 -71 l 244 0 q 110 -5 180 0 l 104 0 l 104 22 l 110 29 q 165 81 159 54 l 169 347 l 169 595 q 164 872 169 837 q 106 911 159 907 l 55 915 l 50 920 l 50 954 l 55 958 l 352 954 q 749 958 576 954 l 752 954 q 727 749 735 888 l 723 744 l 690 744 l 684 749 q 684 760 684 755 q 675 870 684 818 q 444 901 607 901 q 307 893 390 901 l 300 523 q 435 519 373 519 q 593 535 583 519 q 606 593 603 552 l 608 635 l 614 640 l 645 640 l 650 635 l 647 492 q 650 334 647 472 l 645 328 l 614 328 l 608 334 l 602 389 q 585 444 597 433 q 521 458 572 455 q 420 462 470 462 q 300 458 380 462 q 296 269 296 401 q 300 59 296 126 l 425 59 q 647 65 612 59 q 709 83 683 71 q 745 226 728 146 l 752 231 l 785 231 l 790 226 z "},"Ǵ":{"ha":1060,"x_min":43,"x_max":1016,"o":"m 1016 370 l 1016 349 l 1013 341 l 980 321 q 966 310 968 314 q 961 270 964 306 q 958 181 958 233 q 965 53 958 122 l 961 46 q 579 -25 775 -25 q 307 32 429 -25 q 115 201 186 89 q 43 467 43 313 q 204 840 43 701 q 623 978 364 978 q 964 913 812 978 l 968 906 q 940 715 956 861 l 935 711 l 903 711 l 898 716 l 895 788 q 890 829 892 823 q 876 845 888 836 q 813 877 863 855 q 711 908 762 898 q 602 918 661 918 q 382 866 478 918 q 238 716 287 814 q 190 496 190 617 q 242 264 190 372 q 392 96 294 157 q 619 36 490 36 q 734 47 675 36 q 831 79 793 58 q 837 166 837 100 l 837 241 q 830 308 837 295 q 797 327 823 321 q 681 334 770 332 l 675 340 l 675 370 l 681 376 l 722 374 q 896 371 829 371 q 1009 375 935 371 l 1016 370 m 828 1259 l 686 1152 l 550 1046 l 540 1044 l 523 1060 l 524 1069 l 622 1187 q 686 1267 624 1190 l 813 1284 l 820 1280 l 828 1259 z "},"Ĝ":{"ha":1060,"x_min":43,"x_max":1016,"o":"m 1016 370 l 1016 349 l 1013 341 l 980 321 q 966 310 968 314 q 961 270 964 306 q 958 181 958 233 q 965 53 958 122 l 961 46 q 579 -25 775 -25 q 307 32 429 -25 q 115 201 186 89 q 43 467 43 313 q 204 840 43 701 q 623 978 364 978 q 964 913 812 978 l 968 906 q 940 715 956 861 l 935 711 l 903 711 l 898 716 l 895 788 q 890 829 892 823 q 876 845 888 836 q 813 877 863 855 q 711 908 762 898 q 602 918 661 918 q 382 866 478 918 q 238 716 287 814 q 190 496 190 617 q 242 264 190 372 q 392 96 294 157 q 619 36 490 36 q 734 47 675 36 q 831 79 793 58 q 837 166 837 100 l 837 241 q 830 308 837 295 q 797 327 823 321 q 681 334 770 332 l 675 340 l 675 370 l 681 376 l 722 374 q 896 371 829 371 q 1009 375 935 371 l 1016 370 m 813 1051 l 808 1044 l 766 1044 l 587 1202 l 408 1044 l 366 1044 l 361 1050 l 557 1292 l 622 1292 l 813 1051 m 904 1080 m 589 1292 z "},"Ğ":{"ha":1060,"x_min":43,"x_max":1016,"o":"m 1016 370 l 1016 349 l 1013 341 l 980 321 q 966 310 968 314 q 961 270 964 306 q 958 181 958 233 q 965 53 958 122 l 961 46 q 579 -25 775 -25 q 307 32 429 -25 q 115 201 186 89 q 43 467 43 313 q 204 840 43 701 q 623 978 364 978 q 964 913 812 978 l 968 906 q 940 715 956 861 l 935 711 l 903 711 l 898 716 l 895 788 q 890 829 892 823 q 876 845 888 836 q 813 877 863 855 q 711 908 762 898 q 602 918 661 918 q 382 866 478 918 q 238 716 287 814 q 190 496 190 617 q 242 264 190 372 q 392 96 294 157 q 619 36 490 36 q 734 47 675 36 q 831 79 793 58 q 837 166 837 100 l 837 241 q 830 308 837 295 q 797 327 823 321 q 681 334 770 332 l 675 340 l 675 370 l 681 376 l 722 374 q 896 371 829 371 q 1009 375 935 371 l 1016 370 m 800 1269 q 759 1135 800 1195 q 598 1055 705 1055 q 431 1131 487 1055 q 389 1269 389 1189 l 392 1274 l 428 1274 q 600 1143 454 1143 q 760 1274 735 1143 l 796 1274 l 800 1269 m 600 1276 z "},"Ģ":{"ha":1060,"x_min":43,"x_max":1016,"o":"m 1016 370 l 1016 349 l 1013 341 l 980 321 q 966 310 968 314 q 961 270 964 306 q 958 181 958 233 q 965 53 958 122 l 961 46 q 579 -25 775 -25 q 307 32 429 -25 q 115 201 186 89 q 43 467 43 313 q 204 840 43 701 q 623 978 364 978 q 964 913 812 978 l 968 906 q 940 715 956 861 l 935 711 l 903 711 l 898 716 l 895 788 q 890 829 892 823 q 876 845 888 836 q 813 877 863 855 q 711 908 762 898 q 602 918 661 918 q 382 866 478 918 q 238 716 287 814 q 190 496 190 617 q 242 264 190 372 q 392 96 294 157 q 619 36 490 36 q 734 47 675 36 q 831 79 793 58 q 837 166 837 100 l 837 241 q 830 308 837 295 q 797 327 823 321 q 681 334 770 332 l 675 340 l 675 370 l 681 376 l 722 374 q 896 371 829 371 q 1009 375 935 371 l 1016 370 m 498 -380 l 493 -353 q 612 -265 612 -334 q 585 -243 612 -243 q 494 -159 494 -239 q 518 -102 494 -123 q 578 -81 543 -81 q 648 -111 623 -81 q 673 -193 673 -142 q 498 -380 673 -365 z "},"Ġ":{"ha":1060,"x_min":43,"x_max":1016,"o":"m 1016 370 l 1016 349 l 1013 341 l 980 321 q 966 310 968 314 q 961 270 964 306 q 958 181 958 233 q 965 53 958 122 l 961 46 q 579 -25 775 -25 q 307 32 429 -25 q 115 201 186 89 q 43 467 43 313 q 204 840 43 701 q 623 978 364 978 q 964 913 812 978 l 968 906 q 940 715 956 861 l 935 711 l 903 711 l 898 716 l 895 788 q 890 829 892 823 q 876 845 888 836 q 813 877 863 855 q 711 908 762 898 q 602 918 661 918 q 382 866 478 918 q 238 716 287 814 q 190 496 190 617 q 242 264 190 372 q 392 96 294 157 q 619 36 490 36 q 734 47 675 36 q 831 79 793 58 q 837 166 837 100 l 837 241 q 830 308 837 295 q 797 327 823 321 q 681 334 770 332 l 675 340 l 675 370 l 681 376 l 722 374 q 896 371 829 371 q 1009 375 935 371 l 1016 370 m 588 1088 q 534 1110 556 1088 q 511 1164 511 1132 q 534 1218 511 1196 q 588 1240 556 1240 q 642 1218 620 1240 q 664 1164 664 1196 q 642 1110 664 1132 q 588 1088 620 1088 z "},"Ĥ":{"ha":1156,"x_min":35,"x_max":1122,"o":"m 40 958 q 234 953 213 953 q 429 958 256 953 l 434 954 l 434 920 l 429 915 q 356 911 382 913 q 319 901 331 908 q 304 866 308 893 q 300 789 300 838 l 299 633 l 299 538 q 581 534 448 534 q 857 538 762 534 l 857 633 l 856 766 q 852 865 855 843 q 842 895 848 888 q 818 907 836 903 q 727 915 800 912 l 722 920 l 722 954 l 727 958 q 922 953 901 953 q 1116 958 945 953 l 1122 954 l 1122 920 l 1116 915 q 1043 911 1069 913 q 1006 901 1018 908 q 991 866 995 893 q 987 789 988 838 l 986 633 l 986 319 l 987 187 q 991 88 988 111 q 1001 58 995 66 q 1026 46 1008 51 q 1116 38 1044 41 l 1122 34 l 1122 0 l 1116 -5 q 922 0 943 0 q 727 -5 900 0 l 722 0 l 722 34 l 727 38 q 812 45 791 41 q 840 55 833 49 q 851 83 846 62 q 856 176 856 104 l 857 319 l 857 474 q 576 478 656 478 q 299 474 493 478 l 299 319 l 300 187 q 304 88 300 111 q 314 58 307 66 q 338 46 320 51 q 429 38 357 41 l 434 34 l 434 0 l 429 -5 q 234 0 256 0 q 40 -5 213 0 l 35 0 l 35 34 l 40 38 q 124 45 103 41 q 152 55 145 49 q 164 83 159 62 q 169 176 168 104 l 170 319 l 170 633 l 168 766 q 164 865 168 843 q 155 895 161 888 q 130 907 149 903 q 40 915 112 912 l 35 920 l 35 954 l 40 958 m 810 1051 l 805 1044 l 763 1044 l 584 1202 l 405 1044 l 363 1044 l 358 1050 l 553 1292 l 618 1292 l 810 1051 m 901 1080 m 586 1292 z "},"Ħ":{"ha":1156,"x_min":35,"x_max":1122,"o":"m 35 0 l 35 34 l 40 38 q 124 45 103 41 q 152 55 145 49 q 164 83 159 62 q 169 176 168 104 l 170 319 l 170 681 q 40 680 45 680 l 35 684 l 35 739 l 40 744 l 112 743 q 170 743 118 743 q 166 852 169 822 q 156 893 163 883 q 129 907 149 903 q 40 915 109 912 l 35 920 l 35 954 l 40 958 q 234 953 213 953 q 429 958 256 953 l 434 954 l 434 920 l 429 915 q 339 907 359 912 q 312 893 319 903 q 302 854 304 884 q 299 741 300 825 l 581 740 l 857 741 q 855 850 857 819 q 845 892 852 882 q 819 907 838 902 q 727 915 799 912 l 722 920 l 722 954 l 727 958 q 922 953 901 953 q 1116 958 945 953 l 1122 954 l 1122 920 l 1116 915 q 1027 907 1048 912 q 1000 893 1007 903 q 990 855 993 884 q 987 742 987 826 l 1116 744 l 1122 739 l 1122 684 l 1116 680 l 987 681 l 986 623 l 986 319 l 987 187 q 991 88 988 111 q 1001 58 995 66 q 1026 46 1008 51 q 1116 38 1044 41 l 1122 34 l 1122 0 l 1116 -5 q 922 0 943 0 q 727 -5 900 0 l 722 0 l 722 34 l 727 38 q 812 45 791 41 q 840 55 833 49 q 851 83 846 62 q 856 176 856 104 l 857 319 l 857 474 q 576 478 656 478 q 299 474 493 478 l 299 319 l 300 187 q 304 88 300 111 q 314 58 307 66 q 338 46 320 51 q 429 38 357 41 l 434 34 l 434 0 l 429 -5 q 234 0 256 0 q 40 -5 213 0 l 35 0 m 299 538 q 581 534 449 534 q 857 538 771 534 l 857 623 l 857 682 l 576 684 l 299 682 l 299 538 z "},"Í":{"ha":468,"x_min":35,"x_max":479,"o":"m 40 958 l 125 956 q 234 953 208 953 q 429 958 257 953 l 434 954 l 434 920 l 429 915 q 356 911 382 913 q 319 901 331 908 q 304 866 308 893 q 300 789 300 838 l 299 633 l 299 319 l 300 187 q 304 88 300 111 q 314 58 307 66 q 338 46 320 51 q 429 38 357 41 l 434 34 l 434 0 l 429 -5 q 309 -1 425 -5 q 234 0 261 0 q 40 -5 213 0 l 35 0 l 35 34 l 40 38 q 124 45 103 41 q 152 55 145 49 q 164 83 159 62 q 169 176 168 104 l 170 319 l 170 633 l 168 766 q 164 865 168 843 q 155 895 161 888 q 130 907 149 903 q 40 915 112 912 l 35 920 l 35 954 l 40 958 m 243 1008 m 234 -41 m 479 1259 l 336 1152 l 201 1046 l 191 1044 l 174 1060 l 175 1069 l 273 1187 q 337 1267 275 1190 l 464 1284 l 471 1280 l 479 1259 z "},"Ì":{"ha":468,"x_min":-23,"x_max":434,"o":"m 40 958 l 125 956 q 234 953 208 953 q 429 958 257 953 l 434 954 l 434 920 l 429 915 q 356 911 382 913 q 319 901 331 908 q 304 866 308 893 q 300 789 300 838 l 299 633 l 299 319 l 300 187 q 304 88 300 111 q 314 58 307 66 q 338 46 320 51 q 429 38 357 41 l 434 34 l 434 0 l 429 -5 q 309 -1 425 -5 q 234 0 261 0 q 40 -5 213 0 l 35 0 l 35 34 l 40 38 q 124 45 103 41 q 152 55 145 49 q 164 83 159 62 q 169 176 168 104 l 170 319 l 170 633 l 168 766 q 164 865 168 843 q 155 895 161 888 q 130 907 149 903 q 40 915 112 912 l 35 920 l 35 954 l 40 958 m 243 1008 m 234 -41 m 282 1060 l 265 1044 l 255 1046 l 119 1152 l -23 1259 l -15 1280 l -8 1284 l 119 1267 l 184 1185 q 281 1069 195 1172 l 282 1060 z "},"Î":{"ha":468,"x_min":12,"x_max":555,"o":"m 40 958 l 125 956 q 234 953 208 953 q 429 958 257 953 l 434 954 l 434 920 l 429 915 q 356 911 382 913 q 319 901 331 908 q 304 866 308 893 q 300 789 300 838 l 299 633 l 299 319 l 300 187 q 304 88 300 111 q 314 58 307 66 q 338 46 320 51 q 429 38 357 41 l 434 34 l 434 0 l 429 -5 q 309 -1 425 -5 q 234 0 261 0 q 40 -5 213 0 l 35 0 l 35 34 l 40 38 q 124 45 103 41 q 152 55 145 49 q 164 83 159 62 q 169 176 168 104 l 170 319 l 170 633 l 168 766 q 164 865 168 843 q 155 895 161 888 q 130 907 149 903 q 40 915 112 912 l 35 920 l 35 954 l 40 958 m 243 1008 m 234 -41 m 464 1051 l 459 1044 l 417 1044 l 238 1202 l 59 1044 l 17 1044 l 12 1050 l 208 1292 l 273 1292 l 464 1051 m 555 1080 m 240 1292 z "},"Ï":{"ha":468,"x_min":-5,"x_max":481,"o":"m 40 958 l 125 956 q 234 953 208 953 q 429 958 257 953 l 434 954 l 434 920 l 429 915 q 356 911 382 913 q 319 901 331 908 q 304 866 308 893 q 300 789 300 838 l 299 633 l 299 319 l 300 187 q 304 88 300 111 q 314 58 307 66 q 338 46 320 51 q 429 38 357 41 l 434 34 l 434 0 l 429 -5 q 309 -1 425 -5 q 234 0 261 0 q 40 -5 213 0 l 35 0 l 35 34 l 40 38 q 124 45 103 41 q 152 55 145 49 q 164 83 159 62 q 169 176 168 104 l 170 319 l 170 633 l 168 766 q 164 865 168 843 q 155 895 161 888 q 130 907 149 903 q 40 915 112 912 l 35 920 l 35 954 l 40 958 m 243 1008 m 234 -41 m 406 1088 q 351 1110 374 1088 q 329 1164 329 1132 q 351 1218 329 1196 q 406 1240 374 1240 q 459 1218 437 1240 q 481 1164 481 1196 q 459 1110 481 1132 q 406 1088 437 1088 m 71 1088 q 17 1110 39 1088 q -5 1164 -5 1132 q 17 1218 -5 1196 q 71 1240 39 1240 q 125 1218 103 1240 q 147 1164 147 1196 q 125 1110 147 1132 q 71 1088 103 1088 z "},"Ĩ":{"ha":468,"x_min":1,"x_max":475,"o":"m 40 958 l 125 956 q 234 953 208 953 q 429 958 257 953 l 434 954 l 434 920 l 429 915 q 356 911 382 913 q 319 901 331 908 q 304 866 308 893 q 300 789 300 838 l 299 633 l 299 319 l 300 187 q 304 88 300 111 q 314 58 307 66 q 338 46 320 51 q 429 38 357 41 l 434 34 l 434 0 l 429 -5 q 309 -1 425 -5 q 234 0 261 0 q 40 -5 213 0 l 35 0 l 35 34 l 40 38 q 124 45 103 41 q 152 55 145 49 q 164 83 159 62 q 169 176 168 104 l 170 319 l 170 633 l 168 766 q 164 865 168 843 q 155 895 161 888 q 130 907 149 903 q 40 915 112 912 l 35 920 l 35 954 l 40 958 m 243 1008 m 234 -41 m 475 1236 q 420 1132 462 1176 q 327 1087 379 1087 q 213 1120 281 1087 q 120 1154 144 1154 q 37 1087 60 1154 l 6 1087 l 1 1093 q 55 1196 13 1152 q 149 1240 98 1240 q 262 1206 194 1240 q 357 1173 330 1173 q 439 1240 412 1173 l 470 1240 l 475 1236 z "},"Ĭ":{"ha":468,"x_min":26,"x_max":437,"o":"m 40 958 l 125 956 q 234 953 208 953 q 429 958 257 953 l 434 954 l 434 920 l 429 915 q 356 911 382 913 q 319 901 331 908 q 304 866 308 893 q 300 789 300 838 l 299 633 l 299 319 l 300 187 q 304 88 300 111 q 314 58 307 66 q 338 46 320 51 q 429 38 357 41 l 434 34 l 434 0 l 429 -5 q 309 -1 425 -5 q 234 0 261 0 q 40 -5 213 0 l 35 0 l 35 34 l 40 38 q 124 45 103 41 q 152 55 145 49 q 164 83 159 62 q 169 176 168 104 l 170 319 l 170 633 l 168 766 q 164 865 168 843 q 155 895 161 888 q 130 907 149 903 q 40 915 112 912 l 35 920 l 35 954 l 40 958 m 243 1008 m 234 -41 m 437 1269 q 396 1135 437 1195 q 235 1055 342 1055 q 68 1131 124 1055 q 26 1269 26 1189 l 29 1274 l 65 1274 q 237 1143 92 1143 q 397 1274 372 1143 l 433 1274 l 437 1269 m 237 1276 z "},"İ":{"ha":468,"x_min":35,"x_max":434,"o":"m 40 958 l 125 956 q 234 953 208 953 q 429 958 257 953 l 434 954 l 434 920 l 429 915 q 356 911 382 913 q 319 901 331 908 q 304 866 308 893 q 300 789 300 838 l 299 633 l 299 319 l 300 187 q 304 88 300 111 q 314 58 307 66 q 338 46 320 51 q 429 38 357 41 l 434 34 l 434 0 l 429 -5 q 309 -1 425 -5 q 234 0 261 0 q 40 -5 213 0 l 35 0 l 35 34 l 40 38 q 124 45 103 41 q 152 55 145 49 q 164 83 159 62 q 169 176 168 104 l 170 319 l 170 633 l 168 766 q 164 865 168 843 q 155 895 161 888 q 130 907 149 903 q 40 915 112 912 l 35 920 l 35 954 l 40 958 m 243 1008 m 234 -41 m 239 1088 q 184 1110 207 1088 q 162 1164 162 1132 q 184 1218 162 1196 q 239 1240 207 1240 q 293 1218 271 1240 q 315 1164 315 1196 q 293 1110 315 1132 q 239 1088 271 1088 z "},"Ī":{"ha":468,"x_min":18,"x_max":458,"o":"m 40 958 l 125 956 q 234 953 208 953 q 429 958 257 953 l 434 954 l 434 920 l 429 915 q 356 911 382 913 q 319 901 331 908 q 304 866 308 893 q 300 789 300 838 l 299 633 l 299 319 l 300 187 q 304 88 300 111 q 314 58 307 66 q 338 46 320 51 q 429 38 357 41 l 434 34 l 434 0 l 429 -5 q 309 -1 425 -5 q 234 0 261 0 q 40 -5 213 0 l 35 0 l 35 34 l 40 38 q 124 45 103 41 q 152 55 145 49 q 164 83 159 62 q 169 176 168 104 l 170 319 l 170 633 l 168 766 q 164 865 168 843 q 155 895 161 888 q 130 907 149 903 q 40 915 112 912 l 35 920 l 35 954 l 40 958 m 243 1008 m 234 -41 m 458 1129 l 18 1129 l 18 1198 l 458 1198 l 458 1129 z "},"Į":{"ha":468,"x_min":35,"x_max":434,"o":"m 434 0 l 429 -5 l 287 -1 q 203 -132 203 -77 q 273 -200 203 -200 q 396 -150 328 -200 l 405 -151 l 420 -170 l 420 -180 q 233 -268 321 -268 q 153 -237 186 -268 q 119 -155 119 -206 q 236 0 119 -77 q 40 -5 208 0 l 35 0 l 35 34 l 40 38 q 133 47 116 41 q 160 68 151 53 q 169 176 169 83 l 170 243 l 170 633 l 168 766 q 162 874 168 850 q 138 905 157 899 q 40 915 119 911 l 35 920 l 35 954 l 40 958 l 234 953 q 429 958 257 953 l 434 954 l 434 920 l 429 915 q 320 902 340 913 q 300 789 301 890 l 299 633 l 299 187 q 311 64 299 83 q 347 43 322 45 q 429 38 371 40 l 434 34 l 434 0 z "},"Ĵ":{"ha":463,"x_min":-16,"x_max":548,"o":"m 431 954 l 431 920 l 426 915 q 353 911 378 913 q 316 901 328 908 q 301 866 304 893 q 297 789 297 838 l 296 633 l 296 146 q 277 -29 296 39 q 210 -155 258 -97 q 112 -241 163 -213 q 12 -269 62 -269 q -16 -266 -2 -269 q -14 -212 -15 -239 q -16 -161 -14 -195 l -3 -153 q 69 -178 31 -178 q 124 -166 102 -178 q 154 -132 145 -153 q 165 -54 163 -111 q 167 44 167 3 l 167 633 l 165 766 q 161 865 165 843 q 152 895 158 888 q 127 907 145 903 q 37 915 109 912 l 32 920 l 32 954 l 37 958 q 231 953 208 953 q 426 958 255 953 l 431 954 m 457 1051 l 452 1044 l 410 1044 l 231 1202 l 52 1044 l 10 1044 l 5 1050 l 201 1292 l 266 1292 l 457 1051 m 548 1080 m 233 1292 z "},"Ķ":{"ha":1008,"x_min":35,"x_max":998,"o":"m 299 491 q 545 721 469 645 q 670 845 621 796 q 728 909 719 895 l 728 953 l 735 958 q 848 956 787 956 q 955 958 861 956 l 962 951 l 962 920 l 956 914 q 870 907 893 914 q 803 864 847 900 q 701 774 758 827 l 426 524 l 834 146 q 944 46 932 54 q 994 37 956 38 l 998 31 l 998 3 l 994 -3 q 912 0 954 0 q 802 -3 887 0 q 694 100 741 56 q 299 464 648 145 l 299 319 l 300 187 q 304 88 300 111 q 314 58 307 66 q 338 46 320 51 q 429 38 357 41 l 434 34 l 434 0 l 429 -5 q 309 -1 425 -5 q 234 0 261 0 q 40 -5 213 0 l 35 0 l 35 34 l 40 38 q 124 45 103 41 q 152 55 145 49 q 164 83 159 62 q 169 176 168 104 l 170 319 l 170 633 l 168 766 q 164 865 168 843 q 155 895 161 888 q 130 907 149 903 q 40 915 112 912 l 35 920 l 35 954 l 40 958 l 125 956 q 234 953 208 953 q 429 958 257 953 l 434 954 l 434 920 l 429 915 q 356 911 382 913 q 319 901 331 908 q 304 866 308 893 q 300 789 300 838 l 299 633 l 299 491 m 451 -380 l 446 -353 q 564 -265 564 -334 q 537 -243 564 -243 q 446 -159 446 -239 q 471 -102 446 -123 q 531 -81 495 -81 q 601 -111 576 -81 q 626 -193 626 -142 q 451 -380 626 -365 z "},"Ĺ":{"ha":848,"x_min":25,"x_max":798,"o":"m 25 954 l 31 958 q 224 953 199 953 q 419 958 248 953 l 425 954 l 425 920 l 419 915 q 347 911 372 913 q 310 901 321 908 q 295 866 298 893 q 291 789 291 838 l 290 633 l 290 334 q 291 176 290 221 l 294 59 l 433 59 q 639 63 598 59 q 718 83 680 67 q 740 161 726 100 q 754 231 753 222 l 760 237 l 793 237 l 798 231 q 787 126 793 204 q 781 0 781 48 l 776 -5 q 437 -1 647 -1 l 239 0 q 101 -5 172 0 l 96 0 l 96 22 l 101 29 q 147 56 143 51 q 156 143 151 60 q 160 342 160 226 l 160 633 l 159 766 q 155 865 158 843 q 145 895 152 888 q 121 907 139 903 q 31 915 102 912 l 25 920 l 25 954 m 499 1259 l 357 1152 l 221 1046 l 211 1044 l 194 1060 l 195 1069 l 293 1187 q 357 1267 295 1190 l 484 1284 l 491 1280 l 499 1259 z "},"Ļ":{"ha":848,"x_min":25,"x_max":798,"o":"m 25 954 l 31 958 q 224 953 199 953 q 419 958 248 953 l 425 954 l 425 920 l 419 915 q 347 911 372 913 q 310 901 321 908 q 295 866 298 893 q 291 789 291 838 l 290 633 l 290 334 q 291 176 290 221 l 294 59 l 433 59 q 639 63 598 59 q 718 83 680 67 q 740 161 726 100 q 754 231 753 222 l 760 237 l 793 237 l 798 231 q 787 126 793 204 q 781 0 781 48 l 776 -5 q 437 -1 647 -1 l 239 0 q 101 -5 172 0 l 96 0 l 96 22 l 101 29 q 147 56 143 51 q 156 143 151 60 q 160 342 160 226 l 160 633 l 159 766 q 155 865 158 843 q 145 895 152 888 q 121 907 139 903 q 31 915 102 912 l 25 920 l 25 954 m 363 -380 l 357 -353 q 476 -265 476 -334 q 449 -243 476 -243 q 358 -159 358 -239 q 382 -102 358 -123 q 443 -81 407 -81 q 513 -111 488 -81 q 538 -193 538 -142 q 363 -380 538 -365 z "},"Ľ":{"ha":848,"x_min":25,"x_max":798,"o":"m 25 954 l 31 958 q 224 953 199 953 q 419 958 248 953 l 425 954 l 425 920 l 419 915 q 347 911 372 913 q 310 901 321 908 q 295 866 298 893 q 291 789 291 838 l 290 633 l 290 334 q 291 176 290 221 l 294 59 l 433 59 q 639 63 598 59 q 718 83 680 67 q 740 161 726 100 q 754 231 753 222 l 760 237 l 793 237 l 798 231 q 787 126 793 204 q 781 0 781 48 l 776 -5 q 437 -1 647 -1 l 239 0 q 101 -5 172 0 l 96 0 l 96 22 l 101 29 q 147 56 143 51 q 156 143 151 60 q 160 342 160 226 l 160 633 l 159 766 q 155 865 158 843 q 145 895 152 888 q 121 907 139 903 q 31 915 102 912 l 25 920 l 25 954 m 485 658 l 479 686 q 598 773 598 705 q 571 795 598 795 q 480 880 480 799 q 505 936 480 915 q 565 958 529 958 q 635 927 610 958 q 660 846 660 897 q 485 658 660 673 z "},"Ŀ":{"ha":848,"x_min":25,"x_max":798,"o":"m 25 954 l 31 958 q 224 953 199 953 q 419 958 248 953 l 425 954 l 425 920 l 419 915 q 347 911 372 913 q 310 901 321 908 q 295 866 298 893 q 291 789 291 838 l 290 633 l 290 334 q 291 176 290 221 l 294 59 l 433 59 q 639 63 598 59 q 718 83 680 67 q 740 161 726 100 q 754 231 753 222 l 760 237 l 793 237 l 798 231 q 787 126 793 204 q 781 0 781 48 l 776 -5 q 437 -1 647 -1 l 239 0 q 101 -5 172 0 l 96 0 l 96 22 l 101 29 q 147 56 143 51 q 156 143 151 60 q 160 342 160 226 l 160 633 l 159 766 q 155 865 158 843 q 145 895 152 888 q 121 907 139 903 q 31 915 102 912 l 25 920 l 25 954 m 467 439 q 412 461 435 439 q 390 515 390 484 q 412 570 390 547 q 467 592 435 592 q 520 570 498 592 q 543 515 543 547 q 520 461 543 484 q 467 439 498 439 z "},"Ł":{"ha":848,"x_min":5,"x_max":798,"o":"m 290 476 l 290 334 q 294 59 290 189 l 433 59 q 638 63 597 59 q 718 83 680 67 q 739 161 725 100 q 753 231 753 222 l 760 237 l 793 237 l 798 231 q 786 126 792 204 q 781 0 781 48 l 776 -5 q 437 -1 646 -1 l 239 0 q 101 -5 172 0 l 96 0 l 96 22 l 101 29 q 147 56 143 51 q 156 143 151 60 q 160 342 160 226 l 160 401 l 37 330 l 29 332 l 5 374 l 6 382 l 160 470 l 160 633 l 159 766 q 155 865 159 843 q 145 895 152 888 q 121 907 139 903 q 31 915 102 912 l 25 920 l 25 954 l 31 958 q 225 953 199 953 q 420 958 248 953 l 425 954 l 425 920 l 420 915 q 347 911 372 913 q 310 901 321 908 q 295 866 298 893 q 291 789 291 838 l 290 633 l 290 544 l 481 654 l 489 652 l 512 612 l 510 604 l 290 476 z "},"Ń":{"ha":1154,"x_min":33,"x_max":1108,"o":"m 45 -5 l 39 1 l 39 33 l 45 38 q 111 43 86 39 q 143 56 136 47 q 152 87 150 66 q 157 182 155 108 q 159 288 159 256 l 159 836 q 147 887 159 870 q 113 908 134 903 q 39 913 91 912 l 33 918 l 33 950 l 39 956 q 161 953 132 953 q 274 956 230 953 l 490 675 l 808 277 q 926 139 866 204 l 926 664 q 923 768 926 688 q 918 869 921 848 q 906 898 914 890 q 874 909 897 905 q 810 913 850 913 l 805 919 l 805 950 l 810 956 q 967 953 865 953 q 1102 956 1060 953 l 1108 950 l 1108 919 l 1103 913 q 1034 908 1058 913 q 1003 894 1009 904 q 995 864 997 884 q 990 770 992 844 q 987 664 987 696 l 987 342 l 988 155 q 991 -28 989 64 q 873 0 957 -17 l 825 57 l 681 233 l 221 808 l 221 288 q 223 176 221 256 q 229 79 226 96 q 238 56 233 62 q 261 44 243 50 q 336 38 279 39 l 341 33 l 341 1 l 336 -5 q 222 0 300 0 q 45 -5 121 0 m 804 1259 l 662 1152 l 526 1046 l 516 1044 l 499 1060 l 500 1069 l 598 1187 q 663 1267 600 1190 l 789 1284 l 796 1280 l 804 1259 z "},"Ñ":{"ha":1154,"x_min":33,"x_max":1108,"o":"m 45 -5 l 39 1 l 39 33 l 45 38 q 111 43 86 39 q 143 56 136 47 q 152 87 150 66 q 157 182 155 108 q 159 288 159 256 l 159 836 q 147 887 159 870 q 113 908 134 903 q 39 913 91 912 l 33 918 l 33 950 l 39 956 q 161 953 132 953 q 274 956 230 953 l 490 675 l 808 277 q 926 139 866 204 l 926 664 q 923 768 926 688 q 918 869 921 848 q 906 898 914 890 q 874 909 897 905 q 810 913 850 913 l 805 919 l 805 950 l 810 956 q 967 953 865 953 q 1102 956 1060 953 l 1108 950 l 1108 919 l 1103 913 q 1034 908 1058 913 q 1003 894 1009 904 q 995 864 997 884 q 990 770 992 844 q 987 664 987 696 l 987 342 l 988 155 q 991 -28 989 64 q 873 0 957 -17 l 825 57 l 681 233 l 221 808 l 221 288 q 223 176 221 256 q 229 79 226 96 q 238 56 233 62 q 261 44 243 50 q 336 38 279 39 l 341 33 l 341 1 l 336 -5 q 222 0 300 0 q 45 -5 121 0 m 827 1236 q 773 1132 814 1176 q 680 1087 732 1087 q 566 1120 634 1087 q 473 1154 497 1154 q 389 1087 412 1154 l 359 1087 l 354 1093 q 408 1196 366 1152 q 501 1240 450 1240 q 614 1206 547 1240 q 710 1173 682 1173 q 792 1240 765 1173 l 823 1240 l 827 1236 z "},"Ň":{"ha":1154,"x_min":33,"x_max":1108,"o":"m 45 -5 l 39 1 l 39 33 l 45 38 q 111 43 86 39 q 143 56 136 47 q 152 87 150 66 q 157 182 155 108 q 159 288 159 256 l 159 836 q 147 887 159 870 q 113 908 134 903 q 39 913 91 912 l 33 918 l 33 950 l 39 956 q 161 953 132 953 q 274 956 230 953 l 490 675 l 808 277 q 926 139 866 204 l 926 664 q 923 768 926 688 q 918 869 921 848 q 906 898 914 890 q 874 909 897 905 q 810 913 850 913 l 805 919 l 805 950 l 810 956 q 967 953 865 953 q 1102 956 1060 953 l 1108 950 l 1108 919 l 1103 913 q 1034 908 1058 913 q 1003 894 1009 904 q 995 864 997 884 q 990 770 992 844 q 987 664 987 696 l 987 342 l 988 155 q 991 -28 989 64 q 873 0 957 -17 l 825 57 l 681 233 l 221 808 l 221 288 q 223 176 221 256 q 229 79 226 96 q 238 56 233 62 q 261 44 243 50 q 336 38 279 39 l 341 33 l 341 1 l 336 -5 q 222 0 300 0 q 45 -5 121 0 m 815 1284 l 625 1044 l 540 1044 l 346 1284 l 350 1292 l 393 1292 l 581 1120 l 766 1292 l 810 1292 l 815 1284 z "},"Ņ":{"ha":1154,"x_min":33,"x_max":1108,"o":"m 45 -5 l 39 1 l 39 33 l 45 38 q 111 43 86 39 q 143 56 136 47 q 152 87 150 66 q 157 182 155 108 q 159 288 159 256 l 159 836 q 147 887 159 870 q 113 908 134 903 q 39 913 91 912 l 33 918 l 33 950 l 39 956 q 161 953 132 953 q 274 956 230 953 l 490 675 l 808 277 q 926 139 866 204 l 926 664 q 923 768 926 688 q 918 869 921 848 q 906 898 914 890 q 874 909 897 905 q 810 913 850 913 l 805 919 l 805 950 l 810 956 q 967 953 865 953 q 1102 956 1060 953 l 1108 950 l 1108 919 l 1103 913 q 1034 908 1058 913 q 1003 894 1009 904 q 995 864 997 884 q 990 770 992 844 q 987 664 987 696 l 987 342 l 988 155 q 991 -28 989 64 q 873 0 957 -17 l 825 57 l 681 233 l 221 808 l 221 288 q 223 176 221 256 q 229 79 226 96 q 238 56 233 62 q 261 44 243 50 q 336 38 279 39 l 341 33 l 341 1 l 336 -5 q 222 0 300 0 q 45 -5 121 0 m 492 -380 l 486 -353 q 605 -265 605 -334 q 578 -243 605 -243 q 487 -159 487 -239 q 511 -102 487 -123 q 572 -81 536 -81 q 642 -111 616 -81 q 667 -193 667 -142 q 492 -380 667 -365 z "},"Ó":{"ha":1092,"x_min":33,"x_max":1059,"o":"m 33 467 q 62 657 33 569 q 161 820 91 745 q 330 936 231 895 q 554 977 429 977 q 922 851 785 977 q 1059 508 1059 726 q 992 233 1059 355 q 800 43 925 111 q 519 -25 675 -25 q 315 12 408 -25 q 157 122 222 49 q 62 292 92 195 q 33 467 33 388 m 174 512 q 200 334 174 429 q 280 171 227 239 q 403 69 334 102 q 562 36 473 36 q 749 84 667 36 q 873 234 831 132 q 916 461 916 335 q 867 709 916 598 q 728 869 819 819 q 528 920 638 920 q 269 817 363 920 q 174 512 174 713 m 536 1008 m 539 -41 m 791 1259 l 648 1152 l 513 1046 l 503 1044 l 486 1060 l 487 1069 l 585 1187 q 649 1267 587 1190 l 776 1284 l 783 1280 l 791 1259 z "},"Ò":{"ha":1092,"x_min":33,"x_max":1059,"o":"m 33 467 q 62 657 33 569 q 161 820 91 745 q 330 936 231 895 q 554 977 429 977 q 922 851 785 977 q 1059 508 1059 726 q 992 233 1059 355 q 800 43 925 111 q 519 -25 675 -25 q 315 12 408 -25 q 157 122 222 49 q 62 292 92 195 q 33 467 33 388 m 174 512 q 200 334 174 429 q 280 171 227 239 q 403 69 334 102 q 562 36 473 36 q 749 84 667 36 q 873 234 831 132 q 916 461 916 335 q 867 709 916 598 q 728 869 819 819 q 528 920 638 920 q 269 817 363 920 q 174 512 174 713 m 536 1008 m 539 -41 m 621 1060 l 604 1044 l 594 1046 l 458 1152 l 316 1259 l 324 1280 l 331 1284 l 458 1267 l 524 1185 q 620 1069 534 1172 l 621 1060 z "},"Ô":{"ha":1092,"x_min":33,"x_max":1059,"o":"m 33 467 q 62 657 33 569 q 161 820 91 745 q 330 936 231 895 q 554 977 429 977 q 922 851 785 977 q 1059 508 1059 726 q 992 233 1059 355 q 800 43 925 111 q 519 -25 675 -25 q 315 12 408 -25 q 157 122 222 49 q 62 292 92 195 q 33 467 33 388 m 174 512 q 200 334 174 429 q 280 171 227 239 q 403 69 334 102 q 562 36 473 36 q 749 84 667 36 q 873 234 831 132 q 916 461 916 335 q 867 709 916 598 q 728 869 819 819 q 528 920 638 920 q 269 817 363 920 q 174 512 174 713 m 536 1008 m 539 -41 m 779 1051 l 774 1044 l 732 1044 l 553 1202 l 374 1044 l 332 1044 l 328 1050 l 523 1292 l 588 1292 l 779 1051 m 870 1080 m 555 1292 z "},"Ö":{"ha":1092,"x_min":33,"x_max":1059,"o":"m 33 467 q 62 657 33 569 q 161 820 91 745 q 330 936 231 895 q 554 977 429 977 q 922 851 785 977 q 1059 508 1059 726 q 992 233 1059 355 q 800 43 925 111 q 519 -25 675 -25 q 315 12 408 -25 q 157 122 222 49 q 62 292 92 195 q 33 467 33 388 m 174 512 q 200 334 174 429 q 280 171 227 239 q 403 69 334 102 q 562 36 473 36 q 749 84 667 36 q 873 234 831 132 q 916 461 916 335 q 867 709 916 598 q 728 869 819 819 q 528 920 638 920 q 269 817 363 920 q 174 512 174 713 m 536 1008 m 539 -41 m 718 1088 q 663 1110 686 1088 q 641 1164 641 1132 q 663 1218 641 1196 q 718 1240 686 1240 q 771 1218 749 1240 q 793 1164 793 1196 q 771 1110 793 1132 q 718 1088 749 1088 m 383 1088 q 329 1110 351 1088 q 307 1164 307 1132 q 329 1218 307 1196 q 383 1240 351 1240 q 437 1218 415 1240 q 459 1164 459 1196 q 437 1110 459 1132 q 383 1088 415 1088 z "},"Õ":{"ha":1092,"x_min":33,"x_max":1059,"o":"m 33 467 q 62 657 33 569 q 161 820 91 745 q 330 936 231 895 q 554 977 429 977 q 922 851 785 977 q 1059 508 1059 726 q 992 233 1059 355 q 800 43 925 111 q 519 -25 675 -25 q 315 12 408 -25 q 157 122 222 49 q 62 292 92 195 q 33 467 33 388 m 174 512 q 200 334 174 429 q 280 171 227 239 q 403 69 334 102 q 562 36 473 36 q 749 84 667 36 q 873 234 831 132 q 916 461 916 335 q 867 709 916 598 q 728 869 819 819 q 528 920 638 920 q 269 817 363 920 q 174 512 174 713 m 536 1008 m 539 -41 m 787 1236 q 732 1132 774 1176 q 639 1087 691 1087 q 525 1120 593 1087 q 432 1154 456 1154 q 349 1087 372 1154 l 318 1087 l 313 1093 q 367 1196 325 1152 q 460 1240 410 1240 q 574 1206 506 1240 q 669 1173 642 1173 q 751 1240 724 1173 l 782 1240 l 787 1236 z "},"Ŏ":{"ha":1092,"x_min":33,"x_max":1059,"o":"m 33 467 q 62 657 33 569 q 161 820 91 745 q 330 936 231 895 q 554 977 429 977 q 922 851 785 977 q 1059 508 1059 726 q 992 233 1059 355 q 800 43 925 111 q 519 -25 675 -25 q 315 12 408 -25 q 157 122 222 49 q 62 292 92 195 q 33 467 33 388 m 174 512 q 200 334 174 429 q 280 171 227 239 q 403 69 334 102 q 562 36 473 36 q 749 84 667 36 q 873 234 831 132 q 916 461 916 335 q 867 709 916 598 q 728 869 819 819 q 528 920 638 920 q 269 817 363 920 q 174 512 174 713 m 536 1008 m 539 -41 m 749 1269 q 708 1135 749 1195 q 547 1055 654 1055 q 380 1131 436 1055 q 338 1269 338 1189 l 341 1274 l 377 1274 q 549 1143 404 1143 q 709 1274 684 1143 l 745 1274 l 749 1269 m 549 1276 z "},"Ő":{"ha":1092,"x_min":33,"x_max":1059,"o":"m 33 467 q 62 657 33 569 q 161 820 91 745 q 330 936 231 895 q 554 977 429 977 q 922 851 785 977 q 1059 508 1059 726 q 992 233 1059 355 q 800 43 925 111 q 519 -25 675 -25 q 315 12 408 -25 q 157 122 222 49 q 62 292 92 195 q 33 467 33 388 m 174 512 q 200 334 174 429 q 280 171 227 239 q 403 69 334 102 q 562 36 473 36 q 749 84 667 36 q 873 234 831 132 q 916 461 916 335 q 867 709 916 598 q 728 869 819 819 q 528 920 638 920 q 269 817 363 920 q 174 512 174 713 m 536 1008 m 539 -41 m 898 1261 l 621 1046 l 612 1044 l 596 1059 l 597 1068 l 761 1267 l 883 1284 l 890 1280 l 898 1261 m 654 1261 l 378 1046 l 369 1044 l 353 1059 l 354 1068 l 517 1267 l 640 1284 l 646 1280 l 654 1261 z "},"Ō":{"ha":1092,"x_min":33,"x_max":1059,"o":"m 33 467 q 62 657 33 569 q 161 820 91 745 q 330 936 231 895 q 554 977 429 977 q 922 851 785 977 q 1059 508 1059 726 q 992 233 1059 355 q 800 43 925 111 q 519 -25 675 -25 q 315 12 408 -25 q 157 122 222 49 q 62 292 92 195 q 33 467 33 388 m 174 512 q 200 334 174 429 q 280 171 227 239 q 403 69 334 102 q 562 36 473 36 q 749 84 667 36 q 873 234 831 132 q 916 461 916 335 q 867 709 916 598 q 728 869 819 819 q 528 920 638 920 q 269 817 363 920 q 174 512 174 713 m 536 1008 m 539 -41 m 763 1129 l 323 1129 l 323 1198 l 763 1198 l 763 1129 z "},"Ø":{"ha":1157,"x_min":54,"x_max":1102,"o":"m 54 22 l 175 139 q 66 476 66 284 q 214 840 66 702 q 597 977 361 977 q 784 949 703 977 q 944 861 865 920 l 1061 970 l 1069 970 l 1101 939 l 1102 930 l 985 820 q 1068 670 1046 749 q 1090 506 1090 591 q 1015 223 1090 343 q 819 39 940 104 q 553 -26 698 -26 q 434 -14 494 -26 q 319 23 374 -2 q 216 93 263 49 l 95 -21 l 87 -21 l 54 14 l 54 22 m 858 781 q 808 837 830 817 q 749 876 787 856 q 662 907 712 895 q 560 920 612 920 q 371 871 454 920 q 247 731 288 823 q 206 524 206 640 q 275 233 206 373 l 858 781 m 307 179 q 386 100 351 127 q 476 55 422 73 q 597 36 531 36 q 792 93 710 36 q 911 245 874 149 q 947 459 947 341 q 890 730 947 631 l 307 179 z "},"Ǿ":{"ha":1157,"x_min":54,"x_max":1102,"o":"m 54 22 l 175 139 q 66 476 66 284 q 214 840 66 702 q 597 977 361 977 q 784 949 703 977 q 944 861 865 920 l 1061 970 l 1069 970 l 1101 939 l 1102 930 l 985 820 q 1068 670 1046 749 q 1090 506 1090 591 q 1015 223 1090 343 q 819 39 940 104 q 553 -26 698 -26 q 434 -14 494 -26 q 319 23 374 -2 q 216 93 263 49 l 95 -21 l 87 -21 l 54 14 l 54 22 m 858 781 q 808 837 830 817 q 749 876 787 856 q 662 907 712 895 q 560 920 612 920 q 371 871 454 920 q 247 731 288 823 q 206 524 206 640 q 275 233 206 373 l 858 781 m 307 179 q 386 100 351 127 q 476 55 422 73 q 597 36 531 36 q 792 93 710 36 q 911 245 874 149 q 947 459 947 341 q 890 730 947 631 l 307 179 m 791 1259 l 648 1152 l 513 1046 l 503 1044 l 486 1060 l 487 1069 l 585 1187 q 649 1267 587 1190 l 776 1284 l 783 1280 l 791 1259 z "},"Œ":{"ha":1386,"x_min":49,"x_max":1356,"o":"m 1316 229 l 1350 229 l 1356 224 q 1344 102 1346 131 q 1338 1 1342 73 l 1331 -5 q 931 0 1055 0 q 814 -2 852 0 q 688 -12 777 -4 q 534 -22 583 -22 q 293 31 401 -22 q 117 200 185 85 q 49 469 49 316 q 107 723 49 609 q 288 906 165 838 q 556 975 410 975 q 669 966 593 975 q 889 952 800 952 q 1307 958 1045 952 l 1313 952 q 1305 903 1312 946 q 1295 839 1297 859 q 1289 749 1293 820 l 1282 742 l 1251 742 l 1245 748 q 1237 870 1244 823 q 1025 899 1149 899 q 887 893 968 899 q 880 728 880 804 l 880 522 q 991 517 939 517 q 1093 521 1050 517 q 1143 530 1135 525 q 1153 545 1150 535 q 1163 611 1156 555 q 1166 635 1165 627 l 1172 640 l 1204 640 l 1211 635 q 1206 491 1206 557 q 1211 333 1206 439 l 1205 328 l 1172 328 l 1166 333 l 1161 397 q 1154 435 1158 427 q 1139 449 1149 444 q 1079 458 1130 454 q 998 462 1029 462 q 880 458 939 460 l 880 215 q 882 60 880 138 l 1008 60 q 1191 62 1149 60 q 1276 83 1233 65 q 1310 224 1286 110 l 1316 229 m 752 859 q 542 918 657 918 q 353 870 439 918 q 228 729 268 823 q 187 515 187 635 q 216 318 187 411 q 295 162 245 224 q 410 67 345 100 q 563 34 475 34 q 753 79 663 34 q 761 282 761 161 l 761 568 q 752 859 761 770 z "},"Ŕ":{"ha":928,"x_min":28,"x_max":921,"o":"m 28 954 l 34 958 q 227 953 158 953 q 434 958 304 953 q 504 959 482 959 q 736 897 675 959 q 798 749 798 834 q 768 637 798 692 q 680 543 738 582 q 519 484 621 504 q 587 393 538 458 l 684 265 q 784 132 730 202 q 853 53 838 62 q 880 41 869 43 q 916 39 891 39 l 921 34 l 921 2 l 915 -4 q 838 0 882 0 q 732 -4 789 0 q 585 193 686 53 q 347 495 469 356 l 353 516 q 408 514 389 514 q 592 570 526 514 q 659 726 659 627 q 599 862 659 816 q 437 907 539 907 q 303 888 366 907 q 293 633 293 873 l 293 319 l 294 187 q 298 88 294 111 q 308 58 301 66 q 332 46 314 51 q 422 38 351 41 l 428 34 l 428 0 l 422 -5 q 303 -1 419 -5 q 228 0 255 0 q 34 -5 207 0 l 28 0 l 28 34 l 34 38 q 118 45 97 41 q 146 55 139 49 q 158 83 153 62 q 163 176 162 104 l 163 319 l 163 633 l 162 766 q 158 865 161 843 q 149 895 155 888 q 124 907 142 903 q 34 915 106 912 l 28 920 l 28 954 m 655 1259 l 513 1152 l 377 1046 l 367 1044 l 350 1060 l 351 1069 l 449 1187 q 513 1267 451 1190 l 640 1284 l 647 1280 l 655 1259 z "},"Ř":{"ha":928,"x_min":28,"x_max":921,"o":"m 28 954 l 34 958 q 227 953 158 953 q 434 958 304 953 q 504 959 482 959 q 736 897 675 959 q 798 749 798 834 q 768 637 798 692 q 680 543 738 582 q 519 484 621 504 q 587 393 538 458 l 684 265 q 784 132 730 202 q 853 53 838 62 q 880 41 869 43 q 916 39 891 39 l 921 34 l 921 2 l 915 -4 q 838 0 882 0 q 732 -4 789 0 q 585 193 686 53 q 347 495 469 356 l 353 516 q 408 514 389 514 q 592 570 526 514 q 659 726 659 627 q 599 862 659 816 q 437 907 539 907 q 303 888 366 907 q 293 633 293 873 l 293 319 l 294 187 q 298 88 294 111 q 308 58 301 66 q 332 46 314 51 q 422 38 351 41 l 428 34 l 428 0 l 422 -5 q 303 -1 419 -5 q 228 0 255 0 q 34 -5 207 0 l 28 0 l 28 34 l 34 38 q 118 45 97 41 q 146 55 139 49 q 158 83 153 62 q 163 176 162 104 l 163 319 l 163 633 l 162 766 q 158 865 161 843 q 149 895 155 888 q 124 907 142 903 q 34 915 106 912 l 28 920 l 28 954 m 659 1284 l 469 1044 l 384 1044 l 190 1284 l 194 1292 l 237 1292 l 425 1120 l 610 1292 l 654 1292 l 659 1284 z "},"Ŗ":{"ha":928,"x_min":28,"x_max":921,"o":"m 28 954 l 34 958 q 227 953 158 953 q 434 958 304 953 q 504 959 482 959 q 736 897 675 959 q 798 749 798 834 q 768 637 798 692 q 680 543 738 582 q 519 484 621 504 q 587 393 538 458 l 684 265 q 784 132 730 202 q 853 53 838 62 q 880 41 869 43 q 916 39 891 39 l 921 34 l 921 2 l 915 -4 q 838 0 882 0 q 732 -4 789 0 q 585 193 686 53 q 347 495 469 356 l 353 516 q 408 514 389 514 q 592 570 526 514 q 659 726 659 627 q 599 862 659 816 q 437 907 539 907 q 303 888 366 907 q 293 633 293 873 l 293 319 l 294 187 q 298 88 294 111 q 308 58 301 66 q 332 46 314 51 q 422 38 351 41 l 428 34 l 428 0 l 422 -5 q 303 -1 419 -5 q 228 0 255 0 q 34 -5 207 0 l 28 0 l 28 34 l 34 38 q 118 45 97 41 q 146 55 139 49 q 158 83 153 62 q 163 176 162 104 l 163 319 l 163 633 l 162 766 q 158 865 161 843 q 149 895 155 888 q 124 907 142 903 q 34 915 106 912 l 28 920 l 28 954 m 410 -380 l 405 -353 q 524 -265 524 -334 q 496 -243 524 -243 q 406 -159 406 -239 q 430 -102 406 -123 q 490 -81 454 -81 q 560 -111 535 -81 q 585 -193 585 -142 q 410 -380 585 -365 z "},"Ś":{"ha":729,"x_min":43,"x_max":696,"o":"m 54 233 l 59 239 l 92 239 l 98 233 q 107 127 101 146 q 143 86 113 108 q 225 52 174 65 q 329 38 277 38 q 458 64 401 38 q 547 142 515 91 q 579 257 579 193 q 564 335 579 302 q 521 388 549 368 q 458 418 494 408 q 353 439 423 428 q 247 459 286 450 q 171 486 209 468 q 107 533 133 505 q 67 602 82 561 q 52 690 52 643 q 140 898 52 817 q 376 979 228 979 q 505 964 435 979 q 631 921 574 949 l 636 913 q 618 735 621 850 l 612 730 l 576 730 l 571 734 q 567 837 570 816 q 505 889 564 858 q 377 920 446 920 q 269 897 319 920 q 193 825 219 874 q 168 724 168 775 q 183 653 168 684 q 223 604 199 622 q 281 577 248 586 q 401 555 314 568 q 576 514 522 538 q 664 438 631 490 q 696 312 696 386 q 579 71 696 168 q 294 -25 461 -25 q 47 25 153 -25 l 43 34 q 54 233 50 77 m 614 1259 l 472 1152 l 336 1046 l 326 1044 l 309 1060 l 311 1069 l 408 1187 q 473 1267 410 1190 l 600 1284 l 606 1280 l 614 1259 z "},"Ŝ":{"ha":729,"x_min":43,"x_max":696,"o":"m 54 233 l 59 239 l 92 239 l 98 233 q 107 127 101 146 q 143 86 113 108 q 225 52 174 65 q 329 38 277 38 q 458 64 401 38 q 547 142 515 91 q 579 257 579 193 q 564 335 579 302 q 521 388 549 368 q 458 418 494 408 q 353 439 423 428 q 247 459 286 450 q 171 486 209 468 q 107 533 133 505 q 67 602 82 561 q 52 690 52 643 q 140 898 52 817 q 376 979 228 979 q 505 964 435 979 q 631 921 574 949 l 636 913 q 618 735 621 850 l 612 730 l 576 730 l 571 734 q 567 837 570 816 q 505 889 564 858 q 377 920 446 920 q 269 897 319 920 q 193 825 219 874 q 168 724 168 775 q 183 653 168 684 q 223 604 199 622 q 281 577 248 586 q 401 555 314 568 q 576 514 522 538 q 664 438 631 490 q 696 312 696 386 q 579 71 696 168 q 294 -25 461 -25 q 47 25 153 -25 l 43 34 q 54 233 50 77 m 600 1051 l 595 1044 l 553 1044 l 374 1202 l 195 1044 l 153 1044 l 148 1050 l 343 1292 l 408 1292 l 600 1051 m 690 1080 m 376 1292 z "},"Š":{"ha":729,"x_min":43,"x_max":696,"o":"m 54 233 l 59 239 l 92 239 l 98 233 q 107 127 101 146 q 143 86 113 108 q 225 52 174 65 q 329 38 277 38 q 458 64 401 38 q 547 142 515 91 q 579 257 579 193 q 564 335 579 302 q 521 388 549 368 q 458 418 494 408 q 353 439 423 428 q 247 459 286 450 q 171 486 209 468 q 107 533 133 505 q 67 602 82 561 q 52 690 52 643 q 140 898 52 817 q 376 979 228 979 q 505 964 435 979 q 631 921 574 949 l 636 913 q 618 735 621 850 l 612 730 l 576 730 l 571 734 q 567 837 570 816 q 505 889 564 858 q 377 920 446 920 q 269 897 319 920 q 193 825 219 874 q 168 724 168 775 q 183 653 168 684 q 223 604 199 622 q 281 577 248 586 q 401 555 314 568 q 576 514 522 538 q 664 438 631 490 q 696 312 696 386 q 579 71 696 168 q 294 -25 461 -25 q 47 25 153 -25 l 43 34 q 54 233 50 77 m 605 1284 l 415 1044 l 330 1044 l 136 1284 l 140 1292 l 182 1292 l 370 1120 l 556 1292 l 600 1292 l 605 1284 z "},"Ș":{"ha":729,"x_min":43,"x_max":696,"o":"m 54 233 l 59 239 l 92 239 l 98 233 q 107 127 101 146 q 143 86 113 108 q 225 52 174 65 q 329 38 277 38 q 458 64 401 38 q 547 142 515 91 q 579 257 579 193 q 564 335 579 302 q 521 388 549 368 q 458 418 494 408 q 353 439 423 428 q 247 459 286 450 q 171 486 209 468 q 107 533 133 505 q 67 602 82 561 q 52 690 52 643 q 140 898 52 817 q 376 979 228 979 q 505 964 435 979 q 631 921 574 949 l 636 913 q 618 735 621 850 l 612 730 l 576 730 l 571 734 q 567 837 570 816 q 505 889 564 858 q 377 920 446 920 q 269 897 319 920 q 193 825 219 874 q 168 724 168 775 q 183 653 168 684 q 223 604 199 622 q 281 577 248 586 q 401 555 314 568 q 576 514 522 538 q 664 438 631 490 q 696 312 696 386 q 579 71 696 168 q 294 -25 461 -25 q 47 25 153 -25 l 43 34 q 54 233 50 77 m 281 -380 l 276 -353 q 395 -265 395 -334 q 368 -243 395 -243 q 277 -159 277 -239 q 301 -102 277 -123 q 361 -81 326 -81 q 431 -111 406 -81 q 456 -193 456 -142 q 281 -380 456 -365 z "},"Ş":{"ha":729,"x_min":43,"x_max":696,"o":"m 288 -25 q 47 25 144 -22 l 43 34 q 54 233 50 77 l 59 239 l 92 239 l 98 233 q 107 127 101 146 q 143 86 113 108 q 225 52 174 65 q 329 38 277 38 q 458 64 401 38 q 547 142 515 91 q 579 257 579 193 q 564 335 579 302 q 521 388 549 368 q 458 418 494 408 q 353 439 423 428 q 247 459 286 450 q 171 486 209 468 q 107 533 133 505 q 67 602 82 561 q 52 690 52 643 q 140 898 52 817 q 376 979 228 979 q 505 964 435 979 q 631 921 574 949 l 636 913 q 618 735 621 850 l 612 730 l 576 730 l 571 734 q 567 837 570 816 q 505 889 564 858 q 377 920 446 920 q 269 897 319 920 q 193 825 219 874 q 168 724 168 775 q 185 648 168 681 q 235 597 203 614 q 298 573 267 579 q 401 555 329 566 q 576 514 522 538 q 664 438 631 490 q 696 312 696 386 q 596 86 696 180 q 342 -22 495 -7 l 310 -96 q 351 -92 332 -92 q 438 -119 406 -92 q 469 -188 469 -145 q 428 -270 469 -235 q 304 -304 386 -304 q 181 -285 238 -304 l 178 -277 l 195 -242 l 202 -239 q 286 -254 244 -254 q 342 -236 324 -254 q 360 -197 360 -218 q 341 -158 360 -173 q 291 -144 323 -144 q 250 -151 271 -144 l 237 -141 l 288 -25 z "},"Ț":{"ha":851,"x_min":26,"x_max":825,"o":"m 819 958 l 825 952 q 819 739 819 891 l 813 734 l 781 734 l 776 740 l 768 802 q 760 864 763 852 q 750 880 757 875 q 706 888 743 885 q 623 892 669 892 l 494 892 q 489 715 489 739 l 489 319 l 490 187 q 494 88 491 111 q 504 58 497 65 q 528 46 510 51 q 619 38 547 41 l 624 34 l 624 0 l 619 -5 q 425 0 446 0 q 232 -5 404 0 l 227 0 l 227 34 l 232 38 q 316 45 296 41 q 344 55 337 49 q 356 83 351 62 q 361 176 361 104 l 362 319 l 362 715 q 357 892 362 726 l 256 892 q 148 889 193 892 q 95 875 102 886 q 82 802 88 864 l 75 740 l 69 734 l 38 734 l 33 739 q 26 952 31 903 l 33 958 q 425 953 151 953 q 819 958 705 953 m 342 -380 l 337 -353 q 456 -265 456 -334 q 429 -243 456 -243 q 338 -159 338 -239 q 362 -102 338 -123 q 422 -81 387 -81 q 492 -111 467 -81 q 517 -193 517 -142 q 342 -380 517 -365 z "},"Ť":{"ha":851,"x_min":26,"x_max":825,"o":"m 819 958 l 825 952 q 819 739 819 891 l 813 734 l 781 734 l 776 740 l 768 802 q 760 864 763 852 q 750 880 757 875 q 706 888 743 885 q 623 892 669 892 l 494 892 q 489 715 489 739 l 489 319 l 490 187 q 494 88 491 111 q 504 58 497 65 q 528 46 510 51 q 619 38 547 41 l 624 34 l 624 0 l 619 -5 q 425 0 446 0 q 232 -5 404 0 l 227 0 l 227 34 l 232 38 q 316 45 296 41 q 344 55 337 49 q 356 83 351 62 q 361 176 361 104 l 362 319 l 362 715 q 357 892 362 726 l 256 892 q 148 889 193 892 q 95 875 102 886 q 82 802 88 864 l 75 740 l 69 734 l 38 734 l 33 739 q 26 952 31 903 l 33 958 q 425 953 151 953 q 819 958 705 953 m 666 1284 l 476 1044 l 391 1044 l 197 1284 l 201 1292 l 243 1292 l 431 1120 l 617 1292 l 661 1292 l 666 1284 z "},"Ţ":{"ha":851,"x_min":26,"x_max":825,"o":"m 819 958 l 825 952 q 819 739 819 891 l 813 734 l 781 734 l 776 740 l 768 802 q 760 864 763 852 q 750 880 757 875 q 706 888 743 885 q 623 892 669 892 l 494 892 q 489 715 489 739 l 489 319 l 490 187 q 494 88 491 111 q 504 58 497 65 q 528 46 510 51 q 619 38 547 41 l 624 34 l 624 0 l 619 -5 q 425 0 446 0 q 232 -5 404 0 l 227 0 l 227 34 l 232 38 q 316 45 296 41 q 344 55 337 49 q 356 83 351 62 q 361 176 361 104 l 362 319 l 362 715 q 357 892 362 726 l 256 892 q 148 889 193 892 q 95 875 102 886 q 82 802 88 864 l 75 740 l 69 734 l 38 734 l 33 739 q 26 952 31 903 l 33 958 q 425 953 151 953 q 819 958 705 953 m 267 -282 l 264 -275 l 280 -241 l 287 -238 q 368 -252 326 -252 q 439 -197 439 -252 q 373 -148 439 -148 q 329 -155 350 -148 l 319 -149 l 336 -115 q 437 -98 381 -98 q 513 -123 482 -98 q 544 -189 544 -149 q 499 -271 544 -241 q 385 -301 454 -301 q 267 -282 323 -301 z "},"Ŧ":{"ha":851,"x_min":26,"x_max":825,"o":"m 227 0 l 227 34 l 232 39 q 316 45 295 41 q 344 55 337 49 q 356 82 351 62 q 361 176 361 103 l 362 319 l 362 583 l 79 579 l 73 584 l 73 639 l 79 644 q 362 640 248 640 l 362 715 q 357 892 362 734 l 227 892 q 161 889 201 892 q 110 884 122 887 q 93 871 98 882 q 82 802 88 860 l 75 740 l 69 734 l 38 734 l 33 739 q 26 952 31 907 l 33 958 q 425 953 132 953 q 819 958 719 953 l 825 952 q 819 739 819 886 l 813 734 l 781 734 l 776 740 l 768 802 q 760 864 763 853 q 750 880 758 875 q 705 888 743 885 q 623 892 667 892 l 494 892 q 489 715 489 743 l 489 640 l 635 642 l 772 644 l 777 639 l 777 584 l 772 579 q 489 583 579 583 l 489 319 l 490 187 q 494 88 491 111 q 504 58 497 66 q 528 46 510 51 q 619 39 547 41 l 624 34 l 624 0 l 619 -5 q 425 0 451 0 q 232 -5 398 0 l 227 0 z "},"Ú":{"ha":1080,"x_min":20,"x_max":1055,"o":"m 20 954 l 26 958 q 220 953 194 953 q 414 958 243 953 l 420 954 l 420 920 l 414 915 q 342 911 368 913 q 305 901 317 908 q 290 866 294 893 q 286 789 286 838 l 285 633 l 285 418 q 289 261 285 311 q 308 177 294 212 q 353 118 323 143 q 438 78 382 94 q 564 62 494 62 q 704 83 639 62 q 802 143 768 104 q 847 247 836 182 q 857 425 857 311 l 857 633 q 856 779 857 686 q 847 885 854 871 q 824 906 841 899 q 728 915 806 913 l 722 920 l 722 952 l 728 958 q 888 953 828 953 q 1048 958 940 953 l 1055 953 l 1055 920 l 1048 915 q 965 910 985 913 q 938 899 946 906 q 927 876 930 891 q 922 786 923 860 l 920 633 l 920 427 q 910 233 920 304 q 868 116 901 161 q 790 39 835 70 q 674 -8 745 8 q 528 -25 604 -25 q 360 -4 433 -25 q 245 52 287 17 q 184 124 203 86 q 161 215 166 163 q 155 373 155 267 l 155 633 l 154 766 q 150 865 153 843 q 141 895 147 888 q 116 907 134 903 q 26 915 98 912 l 20 920 l 20 954 m 550 1008 m 546 -41 m 787 1259 l 645 1152 l 509 1046 l 499 1044 l 482 1060 l 484 1069 l 581 1187 q 646 1267 583 1190 l 772 1284 l 779 1280 l 787 1259 z "},"Ù":{"ha":1080,"x_min":20,"x_max":1055,"o":"m 20 954 l 26 958 q 220 953 194 953 q 414 958 243 953 l 420 954 l 420 920 l 414 915 q 342 911 368 913 q 305 901 317 908 q 290 866 294 893 q 286 789 286 838 l 285 633 l 285 418 q 289 261 285 311 q 308 177 294 212 q 353 118 323 143 q 438 78 382 94 q 564 62 494 62 q 704 83 639 62 q 802 143 768 104 q 847 247 836 182 q 857 425 857 311 l 857 633 q 856 779 857 686 q 847 885 854 871 q 824 906 841 899 q 728 915 806 913 l 722 920 l 722 952 l 728 958 q 888 953 828 953 q 1048 958 940 953 l 1055 953 l 1055 920 l 1048 915 q 965 910 985 913 q 938 899 946 906 q 927 876 930 891 q 922 786 923 860 l 920 633 l 920 427 q 910 233 920 304 q 868 116 901 161 q 790 39 835 70 q 674 -8 745 8 q 528 -25 604 -25 q 360 -4 433 -25 q 245 52 287 17 q 184 124 203 86 q 161 215 166 163 q 155 373 155 267 l 155 633 l 154 766 q 150 865 153 843 q 141 895 147 888 q 116 907 134 903 q 26 915 98 912 l 20 920 l 20 954 m 550 1008 m 546 -41 m 611 1060 l 594 1044 l 584 1046 l 448 1152 l 306 1259 l 314 1280 l 321 1284 l 448 1267 l 513 1185 q 610 1069 524 1172 l 611 1060 z "},"Û":{"ha":1080,"x_min":20,"x_max":1055,"o":"m 20 954 l 26 958 q 220 953 194 953 q 414 958 243 953 l 420 954 l 420 920 l 414 915 q 342 911 368 913 q 305 901 317 908 q 290 866 294 893 q 286 789 286 838 l 285 633 l 285 418 q 289 261 285 311 q 308 177 294 212 q 353 118 323 143 q 438 78 382 94 q 564 62 494 62 q 704 83 639 62 q 802 143 768 104 q 847 247 836 182 q 857 425 857 311 l 857 633 q 856 779 857 686 q 847 885 854 871 q 824 906 841 899 q 728 915 806 913 l 722 920 l 722 952 l 728 958 q 888 953 828 953 q 1048 958 940 953 l 1055 953 l 1055 920 l 1048 915 q 965 910 985 913 q 938 899 946 906 q 927 876 930 891 q 922 786 923 860 l 920 633 l 920 427 q 910 233 920 304 q 868 116 901 161 q 790 39 835 70 q 674 -8 745 8 q 528 -25 604 -25 q 360 -4 433 -25 q 245 52 287 17 q 184 124 203 86 q 161 215 166 163 q 155 373 155 267 l 155 633 l 154 766 q 150 865 153 843 q 141 895 147 888 q 116 907 134 903 q 26 915 98 912 l 20 920 l 20 954 m 550 1008 m 546 -41 m 786 1051 l 781 1044 l 739 1044 l 560 1202 l 381 1044 l 339 1044 l 334 1050 l 530 1292 l 595 1292 l 786 1051 m 877 1080 m 562 1292 z "},"Ü":{"ha":1080,"x_min":20,"x_max":1055,"o":"m 20 954 l 26 958 q 220 953 194 953 q 414 958 243 953 l 420 954 l 420 920 l 414 915 q 342 911 368 913 q 305 901 317 908 q 290 866 294 893 q 286 789 286 838 l 285 633 l 285 418 q 289 261 285 311 q 308 177 294 212 q 353 118 323 143 q 438 78 382 94 q 564 62 494 62 q 704 83 639 62 q 802 143 768 104 q 847 247 836 182 q 857 425 857 311 l 857 633 q 856 779 857 686 q 847 885 854 871 q 824 906 841 899 q 728 915 806 913 l 722 920 l 722 952 l 728 958 q 888 953 828 953 q 1048 958 940 953 l 1055 953 l 1055 920 l 1048 915 q 965 910 985 913 q 938 899 946 906 q 927 876 930 891 q 922 786 923 860 l 920 633 l 920 427 q 910 233 920 304 q 868 116 901 161 q 790 39 835 70 q 674 -8 745 8 q 528 -25 604 -25 q 360 -4 433 -25 q 245 52 287 17 q 184 124 203 86 q 161 215 166 163 q 155 373 155 267 l 155 633 l 154 766 q 150 865 153 843 q 141 895 147 888 q 116 907 134 903 q 26 915 98 912 l 20 920 l 20 954 m 550 1008 m 546 -41 m 731 1088 q 677 1110 699 1088 q 654 1164 654 1132 q 677 1218 654 1196 q 731 1240 699 1240 q 785 1218 763 1240 q 807 1164 807 1196 q 785 1110 807 1132 q 731 1088 763 1088 m 397 1088 q 342 1110 365 1088 q 320 1164 320 1132 q 342 1218 320 1196 q 397 1240 365 1240 q 451 1218 429 1240 q 473 1164 473 1196 q 451 1110 473 1132 q 397 1088 429 1088 z "},"Ũ":{"ha":1080,"x_min":20,"x_max":1055,"o":"m 20 954 l 26 958 q 220 953 194 953 q 414 958 243 953 l 420 954 l 420 920 l 414 915 q 342 911 368 913 q 305 901 317 908 q 290 866 294 893 q 286 789 286 838 l 285 633 l 285 418 q 289 261 285 311 q 308 177 294 212 q 353 118 323 143 q 438 78 382 94 q 564 62 494 62 q 704 83 639 62 q 802 143 768 104 q 847 247 836 182 q 857 425 857 311 l 857 633 q 856 779 857 686 q 847 885 854 871 q 824 906 841 899 q 728 915 806 913 l 722 920 l 722 952 l 728 958 q 888 953 828 953 q 1048 958 940 953 l 1055 953 l 1055 920 l 1048 915 q 965 910 985 913 q 938 899 946 906 q 927 876 930 891 q 922 786 923 860 l 920 633 l 920 427 q 910 233 920 304 q 868 116 901 161 q 790 39 835 70 q 674 -8 745 8 q 528 -25 604 -25 q 360 -4 433 -25 q 245 52 287 17 q 184 124 203 86 q 161 215 166 163 q 155 373 155 267 l 155 633 l 154 766 q 150 865 153 843 q 141 895 147 888 q 116 907 134 903 q 26 915 98 912 l 20 920 l 20 954 m 550 1008 m 546 -41 m 793 1236 q 739 1132 781 1176 q 646 1087 698 1087 q 532 1120 600 1087 q 439 1154 463 1154 q 355 1087 378 1154 l 325 1087 l 320 1093 q 374 1196 332 1152 q 467 1240 416 1240 q 581 1206 513 1240 q 676 1173 648 1173 q 758 1240 731 1173 l 789 1240 l 793 1236 z "},"Ŭ":{"ha":1080,"x_min":20,"x_max":1055,"o":"m 20 954 l 26 958 q 220 953 194 953 q 414 958 243 953 l 420 954 l 420 920 l 414 915 q 342 911 368 913 q 305 901 317 908 q 290 866 294 893 q 286 789 286 838 l 285 633 l 285 418 q 289 261 285 311 q 308 177 294 212 q 353 118 323 143 q 438 78 382 94 q 564 62 494 62 q 704 83 639 62 q 802 143 768 104 q 847 247 836 182 q 857 425 857 311 l 857 633 q 856 779 857 686 q 847 885 854 871 q 824 906 841 899 q 728 915 806 913 l 722 920 l 722 952 l 728 958 q 888 953 828 953 q 1048 958 940 953 l 1055 953 l 1055 920 l 1048 915 q 965 910 985 913 q 938 899 946 906 q 927 876 930 891 q 922 786 923 860 l 920 633 l 920 427 q 910 233 920 304 q 868 116 901 161 q 790 39 835 70 q 674 -8 745 8 q 528 -25 604 -25 q 360 -4 433 -25 q 245 52 287 17 q 184 124 203 86 q 161 215 166 163 q 155 373 155 267 l 155 633 l 154 766 q 150 865 153 843 q 141 895 147 888 q 116 907 134 903 q 26 915 98 912 l 20 920 l 20 954 m 550 1008 m 546 -41 m 762 1269 q 722 1135 762 1195 q 561 1055 667 1055 q 394 1131 450 1055 q 351 1269 351 1189 l 355 1274 l 391 1274 q 563 1143 417 1143 q 723 1274 698 1143 l 759 1274 l 762 1269 m 562 1276 z "},"Ů":{"ha":1080,"x_min":20,"x_max":1055,"o":"m 20 954 l 26 958 q 220 953 194 953 q 414 958 243 953 l 420 954 l 420 920 l 414 915 q 342 911 368 913 q 305 901 317 908 q 290 866 294 893 q 286 789 286 838 l 285 633 l 285 418 q 289 261 285 311 q 308 177 294 212 q 353 118 323 143 q 438 78 382 94 q 564 62 494 62 q 704 83 639 62 q 802 143 768 104 q 847 247 836 182 q 857 425 857 311 l 857 633 q 856 779 857 686 q 847 885 854 871 q 824 906 841 899 q 728 915 806 913 l 722 920 l 722 952 l 728 958 q 888 953 828 953 q 1048 958 940 953 l 1055 953 l 1055 920 l 1048 915 q 965 910 985 913 q 938 899 946 906 q 927 876 930 891 q 922 786 923 860 l 920 633 l 920 427 q 910 233 920 304 q 868 116 901 161 q 790 39 835 70 q 674 -8 745 8 q 528 -25 604 -25 q 360 -4 433 -25 q 245 52 287 17 q 184 124 203 86 q 161 215 166 163 q 155 373 155 267 l 155 633 l 154 766 q 150 865 153 843 q 141 895 147 888 q 116 907 134 903 q 26 915 98 912 l 20 920 l 20 954 m 550 1008 m 546 -41 m 705 1164 q 686 1096 705 1126 q 635 1049 667 1067 q 564 1031 604 1031 q 491 1049 523 1031 q 441 1096 459 1067 q 422 1164 422 1126 q 463 1259 422 1221 q 564 1297 504 1297 q 664 1260 623 1297 q 705 1164 705 1222 m 646 1164 q 622 1236 646 1205 q 564 1267 599 1267 q 505 1236 528 1267 q 481 1164 481 1205 q 504 1095 481 1128 q 564 1062 526 1062 q 622 1093 599 1062 q 646 1164 646 1124 z "},"Ű":{"ha":1080,"x_min":20,"x_max":1055,"o":"m 20 954 l 26 958 q 220 953 194 953 q 414 958 243 953 l 420 954 l 420 920 l 414 915 q 342 911 368 913 q 305 901 317 908 q 290 866 294 893 q 286 789 286 838 l 285 633 l 285 418 q 289 261 285 311 q 308 177 294 212 q 353 118 323 143 q 438 78 382 94 q 564 62 494 62 q 704 83 639 62 q 802 143 768 104 q 847 247 836 182 q 857 425 857 311 l 857 633 q 856 779 857 686 q 847 885 854 871 q 824 906 841 899 q 728 915 806 913 l 722 920 l 722 952 l 728 958 q 888 953 828 953 q 1048 958 940 953 l 1055 953 l 1055 920 l 1048 915 q 965 910 985 913 q 938 899 946 906 q 927 876 930 891 q 922 786 923 860 l 920 633 l 920 427 q 910 233 920 304 q 868 116 901 161 q 790 39 835 70 q 674 -8 745 8 q 528 -25 604 -25 q 360 -4 433 -25 q 245 52 287 17 q 184 124 203 86 q 161 215 166 163 q 155 373 155 267 l 155 633 l 154 766 q 150 865 153 843 q 141 895 147 888 q 116 907 134 903 q 26 915 98 912 l 20 920 l 20 954 m 550 1008 m 546 -41 m 905 1261 l 628 1046 l 619 1044 l 603 1059 l 604 1068 l 768 1267 l 890 1284 l 897 1280 l 905 1261 m 661 1261 l 385 1046 l 376 1044 l 359 1059 l 361 1068 l 524 1267 l 646 1284 l 653 1280 l 661 1261 z "},"Ū":{"ha":1080,"x_min":20,"x_max":1055,"o":"m 20 954 l 26 958 q 220 953 194 953 q 414 958 243 953 l 420 954 l 420 920 l 414 915 q 342 911 368 913 q 305 901 317 908 q 290 866 294 893 q 286 789 286 838 l 285 633 l 285 418 q 289 261 285 311 q 308 177 294 212 q 353 118 323 143 q 438 78 382 94 q 564 62 494 62 q 704 83 639 62 q 802 143 768 104 q 847 247 836 182 q 857 425 857 311 l 857 633 q 856 779 857 686 q 847 885 854 871 q 824 906 841 899 q 728 915 806 913 l 722 920 l 722 952 l 728 958 q 888 953 828 953 q 1048 958 940 953 l 1055 953 l 1055 920 l 1048 915 q 965 910 985 913 q 938 899 946 906 q 927 876 930 891 q 922 786 923 860 l 920 633 l 920 427 q 910 233 920 304 q 868 116 901 161 q 790 39 835 70 q 674 -8 745 8 q 528 -25 604 -25 q 360 -4 433 -25 q 245 52 287 17 q 184 124 203 86 q 161 215 166 163 q 155 373 155 267 l 155 633 l 154 766 q 150 865 153 843 q 141 895 147 888 q 116 907 134 903 q 26 915 98 912 l 20 920 l 20 954 m 550 1008 m 546 -41 m 777 1129 l 337 1129 l 337 1198 l 777 1198 l 777 1129 z "},"Ų":{"ha":1080,"x_min":20,"x_max":1055,"o":"m 1055 920 l 1048 915 q 941 902 959 915 q 922 786 923 888 l 920 633 l 920 427 q 909 237 920 306 q 875 127 899 168 q 814 57 851 85 q 694 -7 777 29 q 580 -131 580 -56 q 599 -180 580 -160 q 650 -200 618 -200 q 772 -150 705 -200 l 781 -151 l 796 -170 l 796 -180 q 610 -268 697 -268 q 529 -238 562 -268 q 496 -155 496 -208 q 584 -22 496 -80 q 526 -25 554 -25 q 334 4 409 -25 q 219 77 259 33 q 167 176 179 121 q 155 373 155 232 l 155 633 q 154 747 155 653 q 151 859 153 840 q 145 887 149 878 q 129 902 141 897 q 91 910 117 907 q 26 915 65 913 l 20 920 l 20 954 l 26 958 l 220 953 q 414 958 243 953 l 420 954 l 420 920 l 414 915 q 302 900 319 913 q 286 789 286 886 l 286 713 l 285 633 l 285 418 q 306 184 285 241 q 391 95 327 128 q 564 62 456 62 q 724 89 661 62 q 814 159 787 115 q 849 259 841 203 q 857 425 857 316 l 857 633 q 856 786 857 727 q 851 867 854 846 q 842 895 848 888 q 824 906 836 902 q 803 912 812 911 q 728 915 794 913 l 722 920 l 722 952 l 728 958 q 888 953 828 953 q 1048 958 940 953 l 1055 953 l 1055 920 z "},"Ẃ":{"ha":1389,"x_min":16,"x_max":1364,"o":"m 319 -13 l 258 270 l 127 828 q 94 902 111 895 q 21 917 77 910 l 16 922 l 16 952 l 21 958 q 194 953 119 953 q 358 958 250 953 l 364 952 l 364 922 l 359 917 q 268 909 283 914 q 253 887 253 905 q 267 797 253 873 q 291 674 280 722 l 397 204 l 565 621 q 694 968 631 787 l 738 968 q 850 637 792 798 l 1009 195 l 1124 600 q 1168 768 1142 664 q 1194 888 1194 871 q 1177 910 1194 906 q 1079 917 1160 915 l 1074 923 l 1074 953 l 1079 958 q 1218 953 1194 953 q 1359 958 1240 953 l 1364 953 l 1364 922 l 1359 918 q 1308 910 1320 916 q 1285 893 1295 905 q 1258 823 1276 881 l 1219 697 l 1149 469 q 1094 268 1134 419 l 1019 -13 l 949 -13 q 833 323 879 197 l 678 742 l 543 407 l 471 217 q 425 94 442 142 l 388 -13 l 319 -13 m 926 1259 l 784 1152 l 648 1046 l 638 1044 l 621 1060 l 623 1069 l 720 1187 q 785 1267 722 1190 l 911 1284 l 918 1280 l 926 1259 z "},"Ẁ":{"ha":1389,"x_min":16,"x_max":1364,"o":"m 319 -13 l 258 270 l 127 828 q 94 902 111 895 q 21 917 77 910 l 16 922 l 16 952 l 21 958 q 194 953 119 953 q 358 958 250 953 l 364 952 l 364 922 l 359 917 q 268 909 283 914 q 253 887 253 905 q 267 797 253 873 q 291 674 280 722 l 397 204 l 565 621 q 694 968 631 787 l 738 968 q 850 637 792 798 l 1009 195 l 1124 600 q 1168 768 1142 664 q 1194 888 1194 871 q 1177 910 1194 906 q 1079 917 1160 915 l 1074 923 l 1074 953 l 1079 958 q 1218 953 1194 953 q 1359 958 1240 953 l 1364 953 l 1364 922 l 1359 918 q 1308 910 1320 916 q 1285 893 1295 905 q 1258 823 1276 881 l 1219 697 l 1149 469 q 1094 268 1134 419 l 1019 -13 l 949 -13 q 833 323 879 197 l 678 742 l 543 407 l 471 217 q 425 94 442 142 l 388 -13 l 319 -13 m 764 1060 l 747 1044 l 736 1046 l 601 1152 l 458 1259 l 467 1280 l 473 1284 l 600 1267 l 666 1185 q 762 1069 677 1172 l 764 1060 z "},"Ŵ":{"ha":1389,"x_min":16,"x_max":1364,"o":"m 319 -13 l 258 270 l 127 828 q 94 902 111 895 q 21 917 77 910 l 16 922 l 16 952 l 21 958 q 194 953 119 953 q 358 958 250 953 l 364 952 l 364 922 l 359 917 q 268 909 283 914 q 253 887 253 905 q 267 797 253 873 q 291 674 280 722 l 397 204 l 565 621 q 694 968 631 787 l 738 968 q 850 637 792 798 l 1009 195 l 1124 600 q 1168 768 1142 664 q 1194 888 1194 871 q 1177 910 1194 906 q 1079 917 1160 915 l 1074 923 l 1074 953 l 1079 958 q 1218 953 1194 953 q 1359 958 1240 953 l 1364 953 l 1364 922 l 1359 918 q 1308 910 1320 916 q 1285 893 1295 905 q 1258 823 1276 881 l 1219 697 l 1149 469 q 1094 268 1134 419 l 1019 -13 l 949 -13 q 833 323 879 197 l 678 742 l 543 407 l 471 217 q 425 94 442 142 l 388 -13 l 319 -13 m 939 1051 l 934 1044 l 892 1044 l 713 1202 l 534 1044 l 492 1044 l 487 1050 l 682 1292 l 747 1292 l 939 1051 m 1029 1080 m 715 1292 z "},"Ẅ":{"ha":1389,"x_min":16,"x_max":1364,"o":"m 319 -13 l 258 270 l 127 828 q 94 902 111 895 q 21 917 77 910 l 16 922 l 16 952 l 21 958 q 194 953 119 953 q 358 958 250 953 l 364 952 l 364 922 l 359 917 q 268 909 283 914 q 253 887 253 905 q 267 797 253 873 q 291 674 280 722 l 397 204 l 565 621 q 694 968 631 787 l 738 968 q 850 637 792 798 l 1009 195 l 1124 600 q 1168 768 1142 664 q 1194 888 1194 871 q 1177 910 1194 906 q 1079 917 1160 915 l 1074 923 l 1074 953 l 1079 958 q 1218 953 1194 953 q 1359 958 1240 953 l 1364 953 l 1364 922 l 1359 918 q 1308 910 1320 916 q 1285 893 1295 905 q 1258 823 1276 881 l 1219 697 l 1149 469 q 1094 268 1134 419 l 1019 -13 l 949 -13 q 833 323 879 197 l 678 742 l 543 407 l 471 217 q 425 94 442 142 l 388 -13 l 319 -13 m 880 1088 q 826 1110 848 1088 q 804 1164 804 1132 q 826 1218 804 1196 q 880 1240 848 1240 q 934 1218 912 1240 q 956 1164 956 1196 q 934 1110 956 1132 q 880 1088 912 1088 m 546 1088 q 492 1110 514 1088 q 469 1164 469 1132 q 492 1218 469 1196 q 546 1240 514 1240 q 600 1218 578 1240 q 622 1164 622 1196 q 600 1110 622 1132 q 546 1088 578 1088 z "},"Ý":{"ha":926,"x_min":4,"x_max":901,"o":"m 10 895 l 4 901 l 4 929 l 10 935 l 202 967 q 242 931 222 953 q 298 850 261 909 q 393 685 335 791 q 505 472 452 578 l 574 582 l 652 712 l 796 958 q 848 956 823 956 q 895 958 863 956 l 901 953 l 901 940 q 795 805 867 903 q 689 651 724 707 q 604 512 654 596 q 548 412 553 429 q 543 372 543 395 l 543 272 l 544 170 q 548 88 545 111 q 558 57 552 64 q 583 45 565 50 q 673 38 601 41 l 678 34 l 678 0 l 673 -5 q 553 -1 669 -5 q 478 0 505 0 q 284 -5 456 0 l 279 0 l 279 34 l 284 38 q 369 45 349 41 q 396 55 389 49 q 408 80 404 62 q 412 157 412 99 l 414 273 l 414 401 q 314 577 399 438 l 254 674 q 183 782 226 720 q 116 865 140 843 q 79 891 92 887 q 10 895 66 895 m 496 1008 m 475 -41 m 723 1259 l 581 1152 l 445 1046 l 435 1044 l 418 1060 l 419 1069 l 517 1187 q 581 1267 519 1190 l 708 1284 l 715 1280 l 723 1259 z "},"Ỳ":{"ha":926,"x_min":4,"x_max":901,"o":"m 10 895 l 4 901 l 4 929 l 10 935 l 202 967 q 242 931 222 953 q 298 850 261 909 q 393 685 335 791 q 505 472 452 578 l 574 582 l 652 712 l 796 958 q 848 956 823 956 q 895 958 863 956 l 901 953 l 901 940 q 795 805 867 903 q 689 651 724 707 q 604 512 654 596 q 548 412 553 429 q 543 372 543 395 l 543 272 l 544 170 q 548 88 545 111 q 558 57 552 64 q 583 45 565 50 q 673 38 601 41 l 678 34 l 678 0 l 673 -5 q 553 -1 669 -5 q 478 0 505 0 q 284 -5 456 0 l 279 0 l 279 34 l 284 38 q 369 45 349 41 q 396 55 389 49 q 408 80 404 62 q 412 157 412 99 l 414 273 l 414 401 q 314 577 399 438 l 254 674 q 183 782 226 720 q 116 865 140 843 q 79 891 92 887 q 10 895 66 895 m 496 1008 m 475 -41 m 560 1060 l 543 1044 l 533 1046 l 397 1152 l 255 1259 l 263 1280 l 270 1284 l 397 1267 l 463 1185 q 559 1069 473 1172 l 560 1060 z "},"Ŷ":{"ha":926,"x_min":4,"x_max":901,"o":"m 10 895 l 4 901 l 4 929 l 10 935 l 202 967 q 242 931 222 953 q 298 850 261 909 q 393 685 335 791 q 505 472 452 578 l 574 582 l 652 712 l 796 958 q 848 956 823 956 q 895 958 863 956 l 901 953 l 901 940 q 795 805 867 903 q 689 651 724 707 q 604 512 654 596 q 548 412 553 429 q 543 372 543 395 l 543 272 l 544 170 q 548 88 545 111 q 558 57 552 64 q 583 45 565 50 q 673 38 601 41 l 678 34 l 678 0 l 673 -5 q 553 -1 669 -5 q 478 0 505 0 q 284 -5 456 0 l 279 0 l 279 34 l 284 38 q 369 45 349 41 q 396 55 389 49 q 408 80 404 62 q 412 157 412 99 l 414 273 l 414 401 q 314 577 399 438 l 254 674 q 183 782 226 720 q 116 865 140 843 q 79 891 92 887 q 10 895 66 895 m 496 1008 m 475 -41 m 722 1051 l 717 1044 l 675 1044 l 496 1202 l 317 1044 l 275 1044 l 270 1050 l 465 1292 l 530 1292 l 722 1051 m 812 1080 m 498 1292 z "},"Ÿ":{"ha":926,"x_min":4,"x_max":901,"o":"m 10 895 l 4 901 l 4 929 l 10 935 l 202 967 q 242 931 222 953 q 298 850 261 909 q 393 685 335 791 q 505 472 452 578 l 574 582 l 652 712 l 796 958 q 848 956 823 956 q 895 958 863 956 l 901 953 l 901 940 q 795 805 867 903 q 689 651 724 707 q 604 512 654 596 q 548 412 553 429 q 543 372 543 395 l 543 272 l 544 170 q 548 88 545 111 q 558 57 552 64 q 583 45 565 50 q 673 38 601 41 l 678 34 l 678 0 l 673 -5 q 553 -1 669 -5 q 478 0 505 0 q 284 -5 456 0 l 279 0 l 279 34 l 284 38 q 369 45 349 41 q 396 55 389 49 q 408 80 404 62 q 412 157 412 99 l 414 273 l 414 401 q 314 577 399 438 l 254 674 q 183 782 226 720 q 116 865 140 843 q 79 891 92 887 q 10 895 66 895 m 496 1008 m 475 -41 m 656 1088 q 602 1110 625 1088 q 580 1164 580 1132 q 602 1218 580 1196 q 656 1240 625 1240 q 710 1218 688 1240 q 732 1164 732 1196 q 710 1110 732 1132 q 656 1088 688 1088 m 322 1088 q 268 1110 290 1088 q 245 1164 245 1132 q 268 1218 245 1196 q 322 1240 290 1240 q 376 1218 354 1240 q 398 1164 398 1196 q 376 1110 398 1132 q 322 1088 354 1088 z "},"Ź":{"ha":926,"x_min":24,"x_max":882,"o":"m 24 1 l 24 33 l 188 235 l 575 734 q 694 895 663 846 l 666 895 l 557 896 q 325 891 413 896 q 209 882 237 887 q 175 869 181 878 q 164 829 168 861 l 155 739 l 149 733 l 117 733 l 111 739 q 114 821 114 791 q 111 952 114 904 l 117 958 q 455 953 359 953 q 876 958 615 953 l 882 952 l 882 918 q 777 791 807 829 l 212 64 l 487 59 q 652 63 569 59 q 762 71 736 67 q 799 83 789 75 q 812 99 808 91 q 823 145 815 106 l 838 236 l 844 241 l 876 241 l 881 236 q 871 0 876 193 l 865 -5 q 414 0 579 0 q 31 -5 298 0 l 24 1 m 743 1259 l 601 1152 l 465 1046 l 455 1044 l 438 1060 l 439 1069 l 537 1187 q 602 1267 539 1190 l 728 1284 l 735 1280 l 743 1259 z "},"Ž":{"ha":926,"x_min":24,"x_max":882,"o":"m 24 1 l 24 33 l 188 235 l 575 734 q 694 895 663 846 l 666 895 l 557 896 q 325 891 413 896 q 209 882 237 887 q 175 869 181 878 q 164 829 168 861 l 155 739 l 149 733 l 117 733 l 111 739 q 114 821 114 791 q 111 952 114 904 l 117 958 q 455 953 359 953 q 876 958 615 953 l 882 952 l 882 918 q 777 791 807 829 l 212 64 l 487 59 q 652 63 569 59 q 762 71 736 67 q 799 83 789 75 q 812 99 808 91 q 823 145 815 106 l 838 236 l 844 241 l 876 241 l 881 236 q 871 0 876 193 l 865 -5 q 414 0 579 0 q 31 -5 298 0 l 24 1 m 741 1284 l 551 1044 l 465 1044 l 271 1284 l 275 1292 l 318 1292 l 506 1120 l 692 1292 l 736 1292 l 741 1284 z "},"Ż":{"ha":926,"x_min":24,"x_max":882,"o":"m 24 1 l 24 33 l 188 235 l 575 734 q 694 895 663 846 l 666 895 l 557 896 q 325 891 413 896 q 209 882 237 887 q 175 869 181 878 q 164 829 168 861 l 155 739 l 149 733 l 117 733 l 111 739 q 114 821 114 791 q 111 952 114 904 l 117 958 q 455 953 359 953 q 876 958 615 953 l 882 952 l 882 918 q 777 791 807 829 l 212 64 l 487 59 q 652 63 569 59 q 762 71 736 67 q 799 83 789 75 q 812 99 808 91 q 823 145 815 106 l 838 236 l 844 241 l 876 241 l 881 236 q 871 0 876 193 l 865 -5 q 414 0 579 0 q 31 -5 298 0 l 24 1 m 496 1088 q 442 1110 465 1088 q 420 1164 420 1132 q 442 1218 420 1196 q 496 1240 465 1240 q 550 1218 528 1240 q 572 1164 572 1196 q 550 1110 572 1132 q 496 1088 528 1088 z "},"Ʒ":{"ha":797,"x_min":87,"x_max":719,"o":"m 719 935 q 402 541 586 763 q 504 555 444 555 q 652 499 591 555 q 713 351 713 444 q 661 187 713 279 q 514 35 608 95 q 300 -25 419 -25 q 201 -10 257 -25 q 132 16 144 5 q 87 214 115 117 l 90 223 l 115 234 l 125 229 q 215 81 163 123 q 359 39 267 39 q 514 107 458 39 q 570 283 570 174 q 387 477 570 477 q 328 471 366 477 l 316 503 l 452 665 q 581 827 488 708 l 577 833 l 292 833 q 228 826 243 833 q 202 797 213 818 q 170 718 191 775 l 163 711 l 133 711 l 127 718 l 198 966 q 435 953 345 953 q 711 960 534 953 l 719 935 z "},"Ŋ":{"ha":1154,"x_min":33,"x_max":1108,"o":"m 1108 919 l 1103 913 q 1025 907 1040 913 q 1003 889 1010 901 q 992 833 996 878 q 987 664 987 789 l 987 0 q 946 -245 987 -190 q 831 -300 905 -300 q 746 -272 783 -300 l 743 -264 l 772 -197 l 781 -193 q 840 -212 810 -212 q 920 -179 895 -212 q 945 -42 945 -146 l 945 0 l 878 0 q 825 58 865 14 l 734 168 l 221 808 l 221 288 q 228 85 221 113 q 252 48 235 57 q 336 38 270 39 l 341 33 l 341 1 l 336 -5 q 222 0 300 0 q 45 -5 121 0 l 39 1 l 39 33 l 45 38 q 144 57 134 39 q 157 182 154 75 l 158 216 q 159 288 159 283 l 159 836 q 149 883 159 865 q 118 906 138 901 q 39 913 98 912 l 33 918 l 33 950 l 39 956 q 161 953 132 953 q 274 956 230 953 q 311 909 281 949 l 490 675 l 808 277 q 926 139 867 203 l 926 664 q 924 732 926 688 l 924 768 q 911 891 922 870 q 810 913 901 913 l 805 919 l 805 950 l 810 956 q 967 953 865 953 q 1102 956 1060 953 l 1108 950 l 1108 919 z "},"Þ":{"ha":839,"x_min":52,"x_max":798,"o":"m 52 954 l 57 958 q 251 953 225 953 q 446 958 274 953 l 451 954 l 451 920 l 446 915 q 357 908 378 912 q 329 894 336 903 q 319 857 322 885 q 316 750 317 829 q 382 748 352 748 l 527 749 q 682 715 616 749 q 773 634 748 681 q 798 534 798 587 q 759 394 798 465 q 648 283 720 323 q 485 242 576 242 q 413 251 450 242 l 401 296 l 408 300 q 475 290 445 290 q 570 317 528 290 q 636 390 613 345 q 660 494 660 435 q 432 692 660 692 q 316 682 382 692 l 316 319 l 317 187 q 321 88 317 111 q 331 58 324 66 q 355 46 337 51 q 446 38 374 41 l 451 34 l 451 0 l 446 -5 q 251 0 278 0 q 57 -5 230 0 l 52 0 l 52 34 l 57 38 q 141 45 120 41 q 169 55 162 49 q 181 83 176 62 q 186 176 185 104 l 186 319 l 186 633 l 185 766 q 181 865 184 843 q 172 895 178 888 q 147 907 165 903 q 57 915 129 912 l 52 920 l 52 954 z "},"a":{"ha":694,"x_min":56,"x_max":661,"o":"m 144 460 l 117 467 l 112 473 l 112 557 q 347 647 233 647 q 476 618 425 647 q 551 545 528 589 q 574 443 574 501 l 570 307 l 570 104 q 576 54 570 63 q 589 42 582 45 q 617 37 597 39 l 656 34 l 661 28 l 661 1 l 656 -5 q 564 -1 606 -1 q 466 -5 523 -1 l 456 5 l 458 114 l 311 -1 q 229 -17 273 -17 q 136 3 175 -17 q 76 58 97 22 q 56 143 56 93 q 118 299 56 243 q 458 394 180 355 q 414 535 458 494 q 294 576 369 576 q 222 565 254 576 q 185 546 190 553 q 149 463 180 539 l 144 460 m 458 353 q 222 284 269 321 q 175 171 175 248 q 280 65 175 65 q 458 170 370 65 l 458 353 m 343 689 m 329 -41 z "},"b":{"ha":768,"x_min":-15,"x_max":709,"o":"m -9 913 l -15 920 l -15 948 l -9 954 q 209 1004 120 969 l 222 996 q 214 684 214 918 l 214 511 q 262 563 227 528 q 320 612 298 597 q 380 637 342 626 q 460 648 418 648 q 595 610 537 648 q 681 508 653 572 q 709 373 709 445 q 686 243 709 304 q 631 141 663 181 q 564 83 612 118 q 431 -3 469 14 q 332 -20 393 -20 q 245 -7 284 -20 q 165 35 207 6 l 111 -17 l 88 -8 q 101 273 101 115 l 101 632 l 98 762 q 94 867 96 837 q 87 903 92 897 q 74 911 83 908 q -9 913 64 913 m 214 429 l 214 175 q 217 133 214 143 q 244 103 220 123 q 307 69 269 83 q 385 54 345 54 q 536 129 481 54 q 591 318 591 203 q 568 445 591 390 q 500 530 545 500 q 397 559 454 559 q 279 519 330 559 q 214 429 228 479 z "},"c":{"ha":616,"x_min":54,"x_max":589,"o":"m 589 73 l 562 27 q 366 -21 474 -21 q 136 68 217 -21 q 54 297 54 157 q 68 411 54 361 q 103 493 82 460 q 151 545 125 526 q 238 597 176 564 q 330 642 299 631 q 416 652 361 652 q 589 612 522 652 q 569 441 576 536 l 563 436 l 535 436 l 529 442 q 522 519 526 499 q 468 561 517 538 q 363 583 418 583 q 264 560 307 583 q 198 483 220 536 q 176 356 176 430 q 194 234 176 294 q 240 136 212 175 q 317 73 269 97 q 422 50 364 50 q 494 59 459 50 q 574 90 529 68 l 589 73 z "},"d":{"ha":848,"x_min":57,"x_max":802,"o":"m 456 920 l 456 948 l 462 954 q 680 1004 591 969 l 693 996 q 686 684 686 918 l 686 239 q 688 120 686 171 q 696 59 690 68 q 716 43 703 50 q 795 32 730 37 l 802 26 l 802 1 l 795 -5 q 682 -1 722 -1 q 577 -5 645 -1 l 570 2 q 572 95 572 68 q 572 121 572 98 q 498 60 535 94 q 426 -1 443 12 q 337 -16 395 -16 q 178 30 243 -16 q 85 148 113 76 q 57 294 57 219 q 86 442 57 371 q 168 545 115 513 q 284 613 221 578 q 408 648 347 648 q 572 605 494 648 l 570 756 q 566 866 568 835 q 559 902 563 897 q 545 911 555 908 q 463 913 535 913 l 456 920 m 572 489 q 479 562 530 536 q 376 587 428 587 q 270 556 319 587 q 199 464 221 525 q 178 332 178 404 q 238 142 178 214 q 389 70 298 70 q 476 93 438 70 q 539 154 515 115 q 568 231 564 193 q 572 373 572 270 l 572 489 z "},"e":{"ha":665,"x_min":35,"x_max":619,"o":"m 600 100 l 578 51 q 452 -8 507 5 q 353 -22 397 -22 q 199 10 272 -22 q 80 118 126 42 q 35 301 35 194 q 52 430 35 372 q 89 515 70 487 q 155 576 109 543 q 252 631 201 610 q 363 651 304 651 q 507 613 445 651 q 594 515 569 574 q 619 388 619 455 q 617 347 619 367 l 610 340 q 486 326 564 330 q 382 323 408 323 l 165 323 q 235 116 166 182 q 405 50 304 50 q 496 66 452 50 q 589 111 540 82 l 600 100 m 165 377 q 259 372 177 375 q 380 370 340 370 q 494 373 474 370 q 495 398 495 389 q 452 554 495 503 q 336 606 410 606 q 210 548 255 606 q 165 377 165 490 m 354 689 m 346 -41 z "},"f":{"ha":463,"x_min":33,"x_max":469,"o":"m 391 35 l 396 29 l 396 1 l 391 -5 q 311 -3 370 -5 q 202 0 258 0 q 39 -5 129 0 l 33 1 l 33 29 l 39 35 q 113 41 104 39 q 128 49 122 43 q 137 69 134 56 q 142 156 139 82 q 145 269 145 231 l 145 530 l 58 526 l 52 531 l 52 548 l 56 555 l 145 600 l 145 641 q 151 744 145 709 q 174 808 157 779 q 232 883 191 838 q 304 957 273 928 q 359 995 336 985 q 413 1005 382 1005 q 469 995 439 1005 l 468 884 l 452 878 q 364 911 414 911 q 303 897 329 911 q 268 849 277 882 q 258 741 258 817 l 258 600 l 331 600 q 437 604 387 600 l 444 597 l 431 537 l 425 530 q 399 531 405 531 l 311 532 l 258 532 l 258 258 q 261 159 258 237 q 267 68 264 81 q 276 48 270 54 q 297 39 283 42 q 391 35 312 37 z "},"g":{"ha":772,"x_min":48,"x_max":753,"o":"m 748 600 l 753 587 q 719 532 726 545 l 593 532 q 612 454 612 494 q 590 360 612 406 q 528 283 568 315 q 439 232 489 251 q 326 213 389 213 l 294 213 q 243 165 254 181 q 231 134 231 150 q 259 92 231 104 q 372 79 286 79 l 524 81 q 634 64 596 81 q 696 4 673 47 q 720 -89 720 -40 q 672 -238 720 -163 q 532 -351 623 -312 q 336 -389 440 -389 q 225 -376 277 -389 q 135 -337 174 -363 q 72 -269 96 -311 q 48 -182 48 -227 q 56 -129 48 -157 q 84 -70 63 -102 l 207 -1 q 133 35 148 17 q 117 78 117 53 q 134 139 117 104 l 243 218 q 114 293 147 243 q 80 403 80 343 q 104 508 80 458 q 175 587 127 557 q 282 634 223 617 q 391 652 342 652 q 552 597 475 652 q 748 600 675 597 m 197 442 q 213 353 197 401 q 266 281 229 306 q 347 257 302 257 q 451 296 408 257 q 495 419 495 336 q 455 546 495 490 q 342 602 415 602 q 238 562 280 602 q 197 442 197 522 m 395 -13 q 270 -16 286 -13 q 222 -39 253 -18 q 173 -94 192 -59 q 153 -172 153 -129 q 210 -297 153 -249 q 362 -345 267 -345 q 494 -315 433 -345 q 583 -235 554 -286 q 612 -139 612 -185 q 588 -60 612 -93 q 525 -20 564 -27 q 395 -13 487 -13 z "},"h":{"ha":808,"x_min":7,"x_max":794,"o":"m 231 1004 l 243 996 q 236 684 236 918 l 236 516 q 342 609 293 563 q 369 628 356 622 q 411 641 382 634 q 470 648 439 648 q 570 627 522 648 q 643 577 618 606 q 677 509 668 548 q 687 412 687 469 l 687 292 q 690 123 687 281 q 705 47 692 59 q 789 35 718 35 l 794 29 l 794 0 l 789 -5 q 672 0 703 0 q 573 -5 656 0 l 565 2 q 574 232 574 90 l 574 321 q 570 436 574 401 q 547 500 566 471 q 497 545 528 529 q 420 561 465 561 q 343 548 374 561 q 281 506 313 536 q 242 456 249 476 q 236 379 236 436 l 236 258 q 239 162 236 243 q 244 68 241 81 q 254 48 248 54 q 269 40 260 42 q 342 35 277 39 l 348 29 l 348 1 l 342 -5 q 179 0 258 0 q 16 -5 101 0 l 10 1 l 10 29 l 16 35 q 91 41 82 39 q 105 49 99 43 q 114 69 112 56 q 120 156 117 82 q 123 269 123 231 l 123 620 l 120 764 q 116 868 118 839 q 109 903 113 897 q 95 911 105 908 q 13 913 85 913 l 7 920 l 7 948 l 12 954 q 231 1004 142 969 z "},"i":{"ha":404,"x_min":29,"x_max":370,"o":"m 195 949 q 250 927 227 949 q 272 873 272 905 q 250 819 272 842 q 195 797 227 797 q 141 819 164 797 q 119 873 119 841 q 141 927 119 905 q 195 949 164 949 m 253 646 l 266 637 q 258 412 258 549 l 258 258 q 261 162 258 243 q 267 68 264 81 q 276 48 270 54 q 291 40 282 42 q 364 35 300 39 l 370 29 l 370 1 l 365 -5 q 201 0 280 0 q 39 -5 123 0 l 33 1 l 33 29 l 39 35 q 113 41 104 39 q 128 49 121 43 q 137 69 134 56 q 142 156 139 82 q 145 269 145 231 l 145 402 q 142 476 145 429 q 138 534 140 523 q 127 550 136 545 q 92 555 119 555 l 35 555 l 29 561 l 29 590 l 35 595 q 253 646 164 611 m 200 -41 z "},"j":{"ha":325,"x_min":-43,"x_max":240,"o":"m 164 949 q 218 927 195 949 q 240 873 240 905 q 218 819 240 842 q 164 797 195 797 q 110 819 132 797 q 87 873 87 842 q 110 927 87 905 q 164 949 132 949 m -6 590 l 0 595 q 218 646 129 611 l 231 637 q 223 389 223 549 l 223 264 l 225 47 q 207 -159 225 -64 q 125 -322 189 -254 q -22 -389 61 -389 q -37 -389 -27 -389 l -43 -350 l -37 -341 q -14 -342 -22 -342 q 31 -330 9 -342 q 70 -291 52 -317 q 96 -225 87 -264 q 107 -103 104 -186 q 110 7 110 -20 l 110 402 q 107 476 110 429 q 103 534 105 522 q 92 550 101 545 q 58 555 83 555 l 0 555 l -6 561 l -6 590 z "},"k":{"ha":772,"x_min":23,"x_max":755,"o":"m 247 1004 l 260 996 q 252 684 252 918 l 252 366 q 343 434 275 379 q 487 558 411 488 q 564 635 562 629 q 633 633 622 633 q 696 635 649 633 l 703 629 l 703 602 l 697 596 q 645 587 663 594 q 572 543 627 581 q 441 443 517 505 l 376 389 q 502 257 412 347 q 647 118 591 168 q 720 61 703 68 q 755 54 736 54 l 755 25 q 626 -16 730 20 q 536 64 555 45 l 486 116 l 427 176 q 352 247 399 204 l 252 339 l 252 258 q 255 162 252 243 q 261 68 258 81 q 270 48 264 54 q 285 40 276 42 q 358 35 294 39 l 364 29 l 364 1 l 359 -5 q 195 0 274 0 q 33 -5 117 0 l 26 1 l 26 29 l 33 35 q 107 41 98 39 q 122 49 115 43 q 131 69 128 56 q 136 156 133 82 q 139 269 139 231 l 139 620 l 136 764 q 132 868 134 839 q 125 903 130 897 q 111 911 121 908 q 29 913 101 913 l 23 920 l 23 948 l 28 954 q 247 1004 158 969 z "},"l":{"ha":404,"x_min":30,"x_max":371,"o":"m 254 1004 l 267 996 q 259 684 259 918 l 259 258 q 262 162 259 243 q 268 68 264 81 q 277 48 271 54 q 292 40 283 42 q 365 35 300 39 l 371 29 l 371 1 l 366 -5 q 202 0 281 0 q 39 -5 124 0 l 33 1 l 33 29 l 39 35 q 114 41 105 39 q 129 49 122 43 q 137 69 135 56 q 143 156 140 82 q 146 269 146 231 l 146 620 l 143 764 q 139 868 141 839 q 132 903 136 897 q 118 911 128 908 q 36 913 108 913 l 30 920 l 30 948 l 35 954 q 254 1004 165 969 z "},"m":{"ha":1226,"x_min":26,"x_max":1195,"o":"m 250 646 l 262 637 q 257 530 258 593 l 321 589 q 357 622 349 614 q 399 638 366 629 q 467 648 431 648 q 586 614 535 648 q 661 522 637 581 q 768 618 753 608 q 817 637 783 627 q 883 647 850 647 q 981 624 937 647 q 1053 564 1026 601 q 1083 483 1079 526 q 1088 363 1088 439 l 1088 292 q 1092 123 1088 281 q 1106 47 1093 59 q 1190 35 1119 35 l 1195 29 l 1195 0 l 1190 -5 q 1073 0 1103 0 q 975 -5 1056 0 l 966 2 q 975 232 975 90 l 975 313 q 964 464 975 421 q 917 535 954 507 q 828 562 880 562 q 760 548 791 562 q 702 504 728 533 q 674 451 677 475 q 671 359 671 426 l 671 275 q 674 163 671 245 q 680 67 677 81 q 689 48 683 54 q 704 40 696 42 q 777 35 713 39 l 783 29 l 783 1 l 778 -5 q 614 0 693 0 q 452 -5 542 0 l 446 1 l 446 29 l 452 35 q 526 41 517 39 q 541 49 534 43 q 550 69 547 56 q 555 156 552 82 q 558 269 558 231 l 558 346 q 548 464 558 422 q 503 534 537 505 q 416 562 468 562 q 341 546 375 562 q 287 507 308 530 q 260 463 265 484 q 255 375 255 443 l 255 275 q 258 163 255 245 q 263 67 260 81 q 273 48 267 54 q 288 40 279 42 q 361 35 296 39 l 367 29 l 367 1 l 361 -5 q 198 0 277 0 q 35 -5 120 0 l 29 1 l 29 29 l 35 35 q 110 41 101 39 q 124 49 118 43 q 133 69 131 56 q 139 156 136 82 q 142 269 142 231 l 142 402 q 139 476 142 429 q 135 534 136 523 q 124 550 133 545 q 89 555 115 555 l 32 555 l 26 561 l 26 590 l 31 595 q 250 646 161 611 z "},"n":{"ha":808,"x_min":8,"x_max":795,"o":"m 232 646 l 245 637 q 239 518 241 592 q 342 609 294 563 q 369 628 357 622 q 411 641 382 634 q 471 648 440 648 q 571 627 522 648 q 644 577 619 606 q 678 509 669 548 q 688 412 688 469 l 688 292 q 691 123 688 281 q 705 47 692 59 q 789 35 718 35 l 795 29 l 795 0 l 789 -5 q 673 0 703 0 q 574 -5 655 0 l 566 2 q 574 232 574 90 l 574 321 q 571 436 574 401 q 548 500 567 471 q 497 545 529 529 q 421 561 465 561 q 361 554 386 561 q 304 525 336 547 q 258 483 273 503 q 240 447 243 464 q 237 376 237 431 l 237 258 q 240 162 237 243 q 246 68 243 81 q 255 48 249 54 q 270 40 261 42 q 343 35 279 39 l 349 29 l 349 1 l 344 -5 q 180 0 259 0 q 18 -5 102 0 l 12 1 l 12 29 l 18 35 q 92 41 83 39 q 107 49 100 43 q 116 69 113 56 q 121 156 118 82 q 124 269 124 231 l 124 402 q 121 476 124 429 q 117 534 119 523 q 106 550 115 545 q 71 555 98 555 l 14 555 l 8 561 l 8 590 l 14 595 q 232 646 143 611 z "},"o":{"ha":758,"x_min":46,"x_max":712,"o":"m 46 311 q 79 466 46 391 q 195 596 113 541 q 391 650 277 650 q 623 561 533 650 q 712 330 712 471 q 609 74 712 174 q 361 -26 507 -26 q 192 25 267 -26 q 82 150 117 76 q 46 311 46 224 m 174 357 q 199 188 174 262 q 276 67 223 113 q 397 22 329 22 q 529 85 477 22 q 581 276 581 149 q 525 513 581 420 q 361 605 468 605 q 224 541 273 605 q 174 357 174 477 m 380 689 m 370 -41 z "},"p":{"ha":835,"x_min":28,"x_max":779,"o":"m 251 654 l 264 646 q 256 509 257 569 q 385 621 349 593 q 510 648 421 648 q 611 632 566 648 q 695 582 656 617 q 756 495 734 547 q 779 373 779 442 q 763 274 779 324 q 722 181 747 224 q 681 124 696 138 q 618 83 666 111 q 534 27 576 57 q 493 0 505 6 q 454 -12 481 -6 q 397 -18 427 -18 q 256 18 326 -18 l 256 -127 q 259 -223 256 -142 q 265 -317 262 -304 q 274 -337 268 -331 q 289 -345 280 -343 q 362 -351 298 -347 l 368 -356 l 368 -385 l 363 -391 q 200 -385 278 -385 q 37 -391 122 -385 l 31 -385 l 31 -356 l 37 -351 q 111 -345 102 -347 q 126 -336 120 -342 q 135 -315 133 -330 q 141 -224 138 -301 q 144 -109 144 -148 l 144 410 q 141 492 144 446 q 136 546 138 538 q 126 558 134 553 q 91 563 118 563 l 34 564 l 28 569 l 28 598 l 33 604 q 251 654 163 619 m 256 134 q 334 79 288 102 q 435 56 380 56 q 552 89 501 56 q 630 186 602 122 q 658 328 658 250 q 633 446 658 391 q 556 531 608 500 q 446 562 505 562 q 376 550 410 562 q 313 513 342 537 q 271 466 283 488 q 257 430 258 444 q 256 397 256 415 l 256 134 z "},"q":{"ha":778,"x_min":54,"x_max":774,"o":"m 673 644 l 698 629 q 673 546 678 576 q 665 451 668 516 q 663 302 663 387 l 663 -127 q 665 -223 663 -142 q 671 -317 668 -304 q 681 -337 674 -331 q 695 -345 687 -343 q 768 -351 704 -347 l 774 -356 l 774 -385 l 769 -391 q 606 -385 684 -385 q 443 -391 533 -385 l 437 -385 l 437 -356 l 443 -351 q 517 -345 509 -347 q 532 -336 526 -342 q 541 -315 538 -330 q 546 -224 543 -301 q 549 -109 549 -148 l 549 92 l 404 1 q 385 -10 388 -9 q 363 -14 382 -12 q 322 -16 345 -16 q 126 76 198 -16 q 54 291 54 167 q 85 448 54 374 q 164 543 110 504 q 284 612 180 555 q 425 648 349 648 q 603 600 511 648 l 673 644 m 549 522 q 479 568 526 545 q 378 592 431 592 q 232 522 288 592 q 176 337 176 451 q 204 193 176 262 q 280 94 232 124 q 386 63 329 63 q 549 153 477 63 q 551 347 551 322 q 549 522 551 459 z "},"r":{"ha":549,"x_min":37,"x_max":522,"o":"m 260 646 l 273 637 q 267 498 269 598 l 318 562 q 362 611 343 594 q 408 638 382 629 q 460 648 433 648 q 517 635 490 648 l 522 626 q 509 467 511 536 l 479 467 q 391 530 452 530 q 318 503 349 530 q 276 436 287 476 q 266 334 266 395 l 266 258 q 269 159 266 238 q 274 67 271 79 q 284 49 277 55 q 301 41 290 43 q 397 35 311 39 l 404 29 l 404 1 l 397 -5 q 209 0 307 0 q 46 -5 131 0 l 40 1 l 40 29 l 46 35 q 120 41 112 39 q 135 49 129 43 q 144 69 142 56 q 150 156 146 82 q 153 269 153 231 l 153 402 q 150 476 153 429 q 145 534 147 523 q 135 550 144 545 q 100 555 126 555 l 43 555 l 37 561 l 37 590 l 42 595 q 260 646 172 611 z "},"s":{"ha":589,"x_min":50,"x_max":544,"o":"m 68 199 l 98 199 l 104 193 q 111 96 105 136 q 183 44 132 64 q 285 24 235 24 q 400 62 357 24 q 443 155 443 101 q 427 205 443 184 q 380 240 412 227 q 267 273 349 254 q 170 299 197 290 q 116 330 142 308 q 77 383 90 351 q 63 452 63 414 q 135 598 63 543 q 315 652 208 652 q 414 640 361 652 q 496 616 468 627 l 502 606 q 495 464 496 579 l 489 458 l 462 458 l 456 464 q 448 522 453 505 q 424 558 444 538 q 368 590 404 577 q 292 604 332 604 q 223 591 251 604 q 177 554 195 579 q 160 494 160 530 q 171 448 160 469 q 203 415 181 428 q 248 397 224 403 l 322 378 q 458 338 417 355 q 522 287 499 321 q 544 204 544 253 q 467 43 544 111 q 268 -24 389 -24 q 162 -14 225 -24 q 54 7 98 -5 l 50 16 l 57 61 q 61 103 60 82 q 62 193 62 125 l 68 199 z "},"t":{"ha":453,"x_min":31,"x_max":442,"o":"m 31 532 l 31 550 l 36 557 q 139 601 100 581 q 135 807 139 778 q 250 859 205 831 l 266 846 q 250 597 259 803 q 323 597 283 597 q 437 601 403 597 l 442 596 l 429 539 l 424 533 q 347 534 389 534 q 250 533 309 534 l 245 257 q 250 132 245 161 q 274 86 254 102 q 334 69 294 69 q 418 93 379 69 l 434 68 q 356 1 418 57 q 284 -16 321 -16 q 132 132 132 -16 q 134 224 132 186 q 135 248 135 236 l 135 530 l 107 530 q 37 527 77 530 l 31 532 z "},"u":{"ha":838,"x_min":11,"x_max":799,"o":"m 235 646 l 248 637 q 240 412 240 549 l 240 254 q 253 133 240 167 q 299 81 267 99 q 376 63 332 63 q 467 82 426 63 q 535 137 507 102 q 566 184 562 172 q 572 253 570 197 l 574 329 l 574 402 q 571 476 574 429 q 567 534 568 523 q 556 550 565 545 q 521 555 547 555 l 464 555 l 458 561 l 458 590 l 463 595 q 682 646 593 611 l 694 637 q 687 412 687 549 l 687 292 q 690 126 687 282 q 697 56 692 68 q 713 38 703 43 q 774 33 724 33 l 793 33 l 799 28 l 799 1 l 793 -5 q 665 0 698 0 q 570 -5 624 0 l 564 1 q 570 118 568 70 q 472 29 527 85 q 412 -6 451 8 q 322 -20 372 -20 q 204 4 246 -20 q 144 70 161 28 q 126 216 126 113 l 127 270 l 127 402 q 124 476 127 429 q 120 534 121 523 q 109 550 118 545 q 74 555 100 555 l 17 555 l 11 561 l 11 590 l 16 595 q 235 646 146 611 m 397 689 m 404 -41 z "},"v":{"ha":785,"x_min":20,"x_max":755,"o":"m 346 -12 l 304 94 l 254 210 l 115 534 q 91 576 101 566 q 69 588 80 586 q 26 591 58 590 l 20 597 l 20 626 l 26 632 q 177 627 121 627 q 335 632 256 627 l 340 627 l 340 597 l 335 591 q 253 582 264 589 q 241 562 241 574 q 269 474 241 541 l 351 268 l 416 114 l 484 268 l 541 408 q 583 520 573 487 q 592 564 592 553 q 577 583 592 577 q 502 591 562 589 l 496 597 l 496 626 l 503 632 q 629 627 587 627 q 749 632 664 627 l 755 626 l 755 597 l 750 591 q 697 580 710 588 q 671 548 684 572 q 599 403 659 525 l 534 264 q 416 -12 517 229 l 346 -12 z "},"w":{"ha":1158,"x_min":20,"x_max":1128,"o":"m 291 -13 l 199 291 q 150 450 174 376 q 118 543 125 523 q 101 572 110 563 q 82 584 92 581 q 24 593 72 587 l 20 598 l 20 626 l 26 632 q 177 627 75 627 q 343 632 288 627 l 349 626 l 349 598 l 345 593 q 257 585 271 592 q 243 562 243 577 q 262 478 243 546 l 326 260 q 363 141 340 209 q 415 259 382 185 l 515 482 q 581 642 551 562 l 614 642 l 675 478 l 753 281 l 814 132 l 865 266 q 933 457 909 380 q 958 555 958 534 q 943 584 958 577 q 863 593 928 591 l 857 598 l 857 627 l 863 632 q 995 627 941 627 q 1122 632 1063 627 l 1128 627 l 1128 599 l 1122 593 q 1073 585 1086 591 q 1043 552 1059 578 q 992 446 1026 526 l 925 286 l 895 210 l 846 84 q 814 -13 824 25 l 750 -13 l 718 72 l 563 460 l 498 320 l 422 152 l 356 -13 l 291 -13 z "},"x":{"ha":717,"x_min":24,"x_max":681,"o":"m 30 -5 l 24 1 l 24 28 l 31 34 q 72 42 56 35 q 110 72 87 49 q 191 165 133 94 l 300 300 l 242 386 q 189 460 229 405 q 121 544 149 516 q 81 579 94 572 q 54 586 68 586 q 38 585 48 586 l 31 590 l 26 617 l 31 624 q 184 650 100 632 q 322 469 231 611 l 372 389 l 415 444 q 554 637 465 508 q 605 632 586 632 q 652 637 623 632 l 658 631 l 658 604 l 652 599 q 620 592 630 597 q 583 561 610 587 q 510 479 555 534 l 469 431 q 446 401 457 416 l 404 347 l 429 309 q 510 194 446 284 q 601 74 575 104 q 638 39 627 44 q 675 34 650 34 l 681 28 l 681 1 l 675 -5 q 598 0 625 0 q 511 -5 590 0 q 399 152 456 65 l 330 256 q 143 -5 260 177 q 88 0 97 0 q 30 -5 75 0 z "},"y":{"ha":772,"x_min":11,"x_max":745,"o":"m 31 -368 q 65 -264 54 -311 l 81 -264 q 153 -300 115 -300 q 237 -252 201 -300 q 338 -41 273 -204 q 286 96 312 32 l 178 363 q 127 482 161 405 q 88 567 94 559 q 71 581 81 574 q 16 594 61 588 l 11 600 l 11 627 l 17 632 q 177 627 95 627 q 326 632 273 627 l 331 627 l 331 600 l 326 594 q 284 591 319 593 q 242 580 250 589 q 233 561 233 572 q 254 486 233 549 q 295 374 275 422 l 338 268 q 403 114 380 163 l 439 193 q 493 325 458 237 l 549 469 q 574 538 571 524 q 577 557 577 551 q 566 578 577 572 q 518 587 555 583 l 490 591 l 485 597 l 485 627 l 490 632 q 625 627 547 627 q 739 632 696 627 l 745 627 l 745 597 l 739 591 q 699 585 714 591 q 671 563 684 578 q 622 475 657 547 q 551 326 587 403 l 485 180 l 328 -186 q 278 -288 308 -234 q 204 -367 248 -342 q 111 -391 160 -391 q 31 -368 68 -391 m 393 689 m 553 -41 z "},"z":{"ha":694,"x_min":24,"x_max":646,"o":"m 37 -5 l 31 0 l 24 26 q 192 219 112 119 l 342 405 q 473 581 412 490 l 313 581 q 226 578 294 581 q 150 567 157 575 q 130 479 142 559 l 125 457 l 120 452 l 93 452 l 87 458 q 94 582 94 565 q 92 628 94 598 l 98 633 q 500 627 350 627 q 626 633 580 627 l 631 627 l 631 595 q 486 417 585 543 l 308 191 q 197 47 229 92 l 245 47 l 380 49 q 506 55 455 50 q 565 64 557 60 q 576 71 574 68 q 588 113 578 74 q 603 186 597 153 l 609 192 l 640 192 l 646 186 q 627 0 629 65 l 622 -5 q 313 1 418 1 q 37 -5 220 1 z "},"á":{"ha":694,"x_min":56,"x_max":661,"o":"m 144 460 l 117 467 l 112 473 l 112 557 q 347 647 233 647 q 476 618 425 647 q 551 545 528 589 q 574 443 574 501 l 570 307 l 570 104 q 576 54 570 63 q 589 42 582 45 q 617 37 597 39 l 656 34 l 661 28 l 661 1 l 656 -5 q 564 -1 606 -1 q 466 -5 523 -1 l 456 5 l 458 114 l 311 -1 q 229 -17 273 -17 q 136 3 175 -17 q 76 58 97 22 q 56 143 56 93 q 118 299 56 243 q 458 394 180 355 q 414 535 458 494 q 294 576 369 576 q 222 565 254 576 q 185 546 190 553 q 149 463 180 539 l 144 460 m 458 353 q 222 284 269 321 q 175 171 175 248 q 280 65 175 65 q 458 170 370 65 l 458 353 m 343 689 m 329 -41 m 529 995 l 330 741 l 321 739 l 301 749 l 299 758 l 403 994 l 509 1014 l 517 1012 l 529 995 z "},"à":{"ha":694,"x_min":56,"x_max":661,"o":"m 144 460 l 117 467 l 112 473 l 112 557 q 347 647 233 647 q 476 618 425 647 q 551 545 528 589 q 574 443 574 501 l 570 307 l 570 104 q 576 54 570 63 q 589 42 582 45 q 617 37 597 39 l 656 34 l 661 28 l 661 1 l 656 -5 q 564 -1 606 -1 q 466 -5 523 -1 l 456 5 l 458 114 l 311 -1 q 229 -17 273 -17 q 136 3 175 -17 q 76 58 97 22 q 56 143 56 93 q 118 299 56 243 q 458 394 180 355 q 414 535 458 494 q 294 576 369 576 q 222 565 254 576 q 185 546 190 553 q 149 463 180 539 l 144 460 m 458 353 q 222 284 269 321 q 175 171 175 248 q 280 65 175 65 q 458 170 370 65 l 458 353 m 343 689 m 329 -41 m 366 758 l 364 749 l 345 739 l 336 741 l 136 995 l 148 1012 l 157 1014 l 205 1004 q 262 994 221 1001 l 366 758 z "},"â":{"ha":694,"x_min":56,"x_max":661,"o":"m 144 460 l 117 467 l 112 473 l 112 557 q 347 647 233 647 q 476 618 425 647 q 551 545 528 589 q 574 443 574 501 l 570 307 l 570 104 q 576 54 570 63 q 589 42 582 45 q 617 37 597 39 l 656 34 l 661 28 l 661 1 l 656 -5 q 564 -1 606 -1 q 466 -5 523 -1 l 456 5 l 458 114 l 311 -1 q 229 -17 273 -17 q 136 3 175 -17 q 76 58 97 22 q 56 143 56 93 q 118 299 56 243 q 458 394 180 355 q 414 535 458 494 q 294 576 369 576 q 222 565 254 576 q 185 546 190 553 q 149 463 180 539 l 144 460 m 458 353 q 222 284 269 321 q 175 171 175 248 q 280 65 175 65 q 458 170 370 65 l 458 353 m 343 689 m 329 -41 m 550 760 l 545 753 l 506 753 l 333 921 l 160 753 l 121 753 l 116 760 l 293 1005 l 373 1005 l 550 760 m 635 780 m 333 1005 z "},"ä":{"ha":694,"x_min":56,"x_max":661,"o":"m 144 460 l 117 467 l 112 473 l 112 557 q 347 647 233 647 q 476 618 425 647 q 551 545 528 589 q 574 443 574 501 l 570 307 l 570 104 q 576 54 570 63 q 589 42 582 45 q 617 37 597 39 l 656 34 l 661 28 l 661 1 l 656 -5 q 564 -1 606 -1 q 466 -5 523 -1 l 456 5 l 458 114 l 311 -1 q 229 -17 273 -17 q 136 3 175 -17 q 76 58 97 22 q 56 143 56 93 q 118 299 56 243 q 458 394 180 355 q 414 535 458 494 q 294 576 369 576 q 222 565 254 576 q 185 546 190 553 q 149 463 180 539 l 144 460 m 458 353 q 222 284 269 321 q 175 171 175 248 q 280 65 175 65 q 458 170 370 65 l 458 353 m 343 689 m 329 -41 m 486 789 q 434 810 456 789 q 412 863 412 832 q 434 915 412 894 q 486 937 455 937 q 539 915 517 937 q 560 863 560 894 q 538 810 560 832 q 486 789 517 789 m 199 789 q 147 810 169 789 q 125 863 125 832 q 147 915 125 893 q 199 937 169 937 q 252 915 231 937 q 273 863 273 894 q 252 810 273 832 q 199 789 230 789 z "},"ã":{"ha":694,"x_min":56,"x_max":661,"o":"m 144 460 l 117 467 l 112 473 l 112 557 q 347 647 233 647 q 476 618 425 647 q 551 545 528 589 q 574 443 574 501 l 570 307 l 570 104 q 576 54 570 63 q 589 42 582 45 q 617 37 597 39 l 656 34 l 661 28 l 661 1 l 656 -5 q 564 -1 606 -1 q 466 -5 523 -1 l 456 5 l 458 114 l 311 -1 q 229 -17 273 -17 q 136 3 175 -17 q 76 58 97 22 q 56 143 56 93 q 118 299 56 243 q 458 394 180 355 q 414 535 458 494 q 294 576 369 576 q 222 565 254 576 q 185 546 190 553 q 149 463 180 539 l 144 460 m 458 353 q 222 284 269 321 q 175 171 175 248 q 280 65 175 65 q 458 170 370 65 l 458 353 m 343 689 m 329 -41 m 570 943 q 516 837 556 880 q 423 793 475 793 q 312 828 380 793 q 216 863 244 863 q 137 794 163 863 l 103 794 l 99 799 q 153 901 111 858 q 245 945 194 945 q 357 910 288 945 q 454 876 427 876 q 531 947 505 876 l 566 947 l 570 943 z "},"ă":{"ha":694,"x_min":56,"x_max":661,"o":"m 144 460 l 117 467 l 112 473 l 112 557 q 347 647 233 647 q 476 618 425 647 q 551 545 528 589 q 574 443 574 501 l 570 307 l 570 104 q 576 54 570 63 q 589 42 582 45 q 617 37 597 39 l 656 34 l 661 28 l 661 1 l 656 -5 q 564 -1 606 -1 q 466 -5 523 -1 l 456 5 l 458 114 l 311 -1 q 229 -17 273 -17 q 136 3 175 -17 q 76 58 97 22 q 56 143 56 93 q 118 299 56 243 q 458 394 180 355 q 414 535 458 494 q 294 576 369 576 q 222 565 254 576 q 185 546 190 553 q 149 463 180 539 l 144 460 m 458 353 q 222 284 269 321 q 175 171 175 248 q 280 65 175 65 q 458 170 370 65 l 458 353 m 343 689 m 329 -41 m 532 966 q 477 803 528 863 q 340 742 427 742 q 241 768 282 742 q 175 845 199 795 q 147 966 150 895 l 153 971 l 189 971 q 240 868 199 908 q 340 827 280 827 q 440 868 399 827 q 490 971 480 908 l 527 971 l 532 966 m 339 965 z "},"å":{"ha":694,"x_min":56,"x_max":661,"o":"m 144 460 l 117 467 l 112 473 l 112 557 q 347 647 233 647 q 476 618 425 647 q 551 545 528 589 q 574 443 574 501 l 570 307 l 570 104 q 576 54 570 63 q 589 42 582 45 q 617 37 597 39 l 656 34 l 661 28 l 661 1 l 656 -5 q 564 -1 606 -1 q 466 -5 523 -1 l 456 5 l 458 114 l 311 -1 q 229 -17 273 -17 q 136 3 175 -17 q 76 58 97 22 q 56 143 56 93 q 118 299 56 243 q 458 394 180 355 q 414 535 458 494 q 294 576 369 576 q 222 565 254 576 q 185 546 190 553 q 149 463 180 539 l 144 460 m 458 353 q 222 284 269 321 q 175 171 175 248 q 280 65 175 65 q 458 170 370 65 l 458 353 m 343 689 m 329 -41 m 469 869 q 428 779 469 815 q 333 743 388 743 q 263 761 294 743 q 215 806 232 778 q 197 869 197 833 q 237 959 197 922 q 333 996 277 996 q 404 978 372 996 q 452 932 435 960 q 469 869 469 905 m 412 869 q 391 935 412 905 q 333 965 371 965 q 275 936 296 965 q 254 869 254 907 q 276 802 254 829 q 333 774 298 774 q 391 803 370 774 q 412 869 412 832 z "},"ǻ":{"ha":694,"x_min":56,"x_max":661,"o":"m 144 460 l 117 467 l 112 473 l 112 557 q 347 647 233 647 q 476 618 425 647 q 551 545 528 589 q 574 443 574 501 l 570 307 l 570 104 q 576 54 570 63 q 589 42 582 45 q 617 37 597 39 l 656 34 l 661 28 l 661 1 l 656 -5 q 564 -1 606 -1 q 466 -5 523 -1 l 456 5 l 458 114 l 311 -1 q 229 -17 273 -17 q 136 3 175 -17 q 76 58 97 22 q 56 143 56 93 q 118 299 56 243 q 458 394 180 355 q 414 535 458 494 q 294 576 369 576 q 222 565 254 576 q 185 546 190 553 q 149 463 180 539 l 144 460 m 458 353 q 222 284 269 321 q 175 171 175 248 q 280 65 175 65 q 458 170 370 65 l 458 353 m 343 689 m 329 -41 m 469 869 q 428 779 469 815 q 333 743 388 743 q 263 761 294 743 q 215 806 232 778 q 197 869 197 833 q 237 959 197 922 q 333 996 277 996 q 404 978 372 996 q 452 932 435 960 q 469 869 469 905 m 412 869 q 391 935 412 905 q 333 965 371 965 q 275 936 296 965 q 254 869 254 907 q 276 802 254 829 q 333 774 298 774 q 391 803 370 774 q 412 869 412 832 m 510 1286 l 311 1033 l 302 1030 l 282 1040 l 280 1049 l 384 1286 l 490 1305 l 498 1303 l 510 1286 z "},"ā":{"ha":694,"x_min":56,"x_max":661,"o":"m 144 460 l 117 467 l 112 473 l 112 557 q 347 647 233 647 q 476 618 425 647 q 551 545 528 589 q 574 443 574 501 l 570 307 l 570 104 q 576 54 570 63 q 589 42 582 45 q 617 37 597 39 l 656 34 l 661 28 l 661 1 l 656 -5 q 564 -1 606 -1 q 466 -5 523 -1 l 456 5 l 458 114 l 311 -1 q 229 -17 273 -17 q 136 3 175 -17 q 76 58 97 22 q 56 143 56 93 q 118 299 56 243 q 458 394 180 355 q 414 535 458 494 q 294 576 369 576 q 222 565 254 576 q 185 546 190 553 q 149 463 180 539 l 144 460 m 458 353 q 222 284 269 321 q 175 171 175 248 q 280 65 175 65 q 458 170 370 65 l 458 353 m 343 689 m 329 -41 m 553 824 l 126 824 l 126 895 l 553 895 l 553 824 z "},"ą":{"ha":694,"x_min":56,"x_max":722,"o":"m 591 -1 q 522 -74 542 -46 q 503 -129 503 -101 q 523 -179 503 -157 q 572 -200 543 -200 q 693 -142 627 -200 l 704 -143 l 722 -168 l 722 -178 q 611 -255 654 -238 q 532 -271 569 -271 q 452 -238 484 -271 q 419 -157 419 -204 q 446 -80 419 -115 q 534 -1 472 -44 q 466 -5 492 -3 l 456 5 l 458 114 l 372 46 q 311 -1 326 10 q 229 -17 273 -17 q 102 26 149 -17 q 56 143 56 69 q 81 249 56 203 q 137 314 106 294 q 259 357 169 333 q 458 394 350 381 q 453 466 458 436 q 425 523 447 496 q 369 563 403 549 q 294 576 336 576 q 248 572 269 576 q 208 559 227 568 q 187 549 190 551 q 149 463 184 546 l 144 460 l 117 467 l 112 473 l 112 557 q 238 627 189 607 q 347 647 288 647 q 513 592 452 647 q 574 443 574 537 l 570 307 l 570 104 q 575 59 570 71 q 588 43 581 47 q 617 37 596 39 l 656 34 l 661 28 l 661 1 l 656 -5 q 591 -1 616 -1 m 458 353 q 347 330 402 343 q 259 302 292 316 q 211 274 226 289 q 185 232 196 259 q 175 171 175 204 q 201 95 175 124 q 280 65 228 65 q 458 170 370 65 l 458 353 z "},"æ":{"ha":1053,"x_min":31,"x_max":1004,"o":"m 974 111 l 985 100 l 963 51 q 837 -8 892 5 q 739 -22 782 -22 q 575 15 647 -22 q 461 125 503 52 q 303 -6 349 28 q 211 -20 256 -20 q 76 30 122 -20 q 31 145 31 79 q 44 212 31 178 q 79 271 57 246 q 124 308 100 295 q 202 334 149 320 q 322 358 256 349 q 436 370 388 368 q 395 525 436 475 q 276 575 353 575 q 156 546 218 575 q 137 505 146 528 l 121 467 l 113 463 l 90 469 l 84 476 l 84 555 q 126 579 94 561 q 185 613 159 598 l 224 633 q 248 642 237 640 q 282 648 258 645 q 326 650 306 650 q 406 639 369 650 q 466 610 443 627 q 517 559 490 592 q 626 626 570 602 q 749 651 683 651 q 892 613 830 651 q 979 515 954 574 q 1004 388 1004 455 q 1002 347 1004 368 l 995 340 q 871 326 949 330 q 768 323 793 323 l 550 323 q 621 116 551 182 q 790 50 690 50 q 878 65 836 50 q 974 111 921 80 m 550 377 q 644 372 562 375 q 765 370 726 370 q 880 373 859 370 q 880 398 880 389 q 839 553 880 500 q 721 606 797 606 q 595 548 640 606 q 550 377 550 490 m 436 326 q 360 319 394 324 q 282 302 327 314 q 213 279 237 290 q 178 257 189 268 q 160 224 168 247 q 151 174 151 201 q 179 100 151 134 q 263 66 207 66 q 366 98 319 66 q 436 165 412 130 l 436 326 z "},"ǽ":{"ha":1053,"x_min":31,"x_max":1004,"o":"m 974 111 l 985 100 l 963 51 q 837 -8 892 5 q 739 -22 782 -22 q 575 15 647 -22 q 461 125 503 52 q 303 -6 349 28 q 211 -20 256 -20 q 76 30 122 -20 q 31 145 31 79 q 44 212 31 178 q 79 271 57 246 q 124 308 100 295 q 202 334 149 320 q 322 358 256 349 q 436 370 388 368 q 395 525 436 475 q 276 575 353 575 q 156 546 218 575 q 137 505 146 528 l 121 467 l 113 463 l 90 469 l 84 476 l 84 555 q 126 579 94 561 q 185 613 159 598 l 224 633 q 248 642 237 640 q 282 648 258 645 q 326 650 306 650 q 406 639 369 650 q 466 610 443 627 q 517 559 490 592 q 626 626 570 602 q 749 651 683 651 q 892 613 830 651 q 979 515 954 574 q 1004 388 1004 455 q 1002 347 1004 368 l 995 340 q 871 326 949 330 q 768 323 793 323 l 550 323 q 621 116 551 182 q 790 50 690 50 q 878 65 836 50 q 974 111 921 80 m 550 377 q 644 372 562 375 q 765 370 726 370 q 880 373 859 370 q 880 398 880 389 q 839 553 880 500 q 721 606 797 606 q 595 548 640 606 q 550 377 550 490 m 436 326 q 360 319 394 324 q 282 302 327 314 q 213 279 237 290 q 178 257 189 268 q 160 224 168 247 q 151 174 151 201 q 179 100 151 134 q 263 66 207 66 q 366 98 319 66 q 436 165 412 130 l 436 326 m 720 995 l 521 741 l 512 739 l 492 749 l 490 758 l 594 994 l 700 1014 l 709 1012 l 720 995 z "},"ć":{"ha":616,"x_min":54,"x_max":589,"o":"m 589 73 l 562 27 q 366 -21 474 -21 q 136 68 217 -21 q 54 297 54 157 q 68 411 54 361 q 103 493 82 460 q 151 545 125 526 q 238 597 176 564 q 330 642 299 631 q 416 652 361 652 q 589 612 522 652 q 569 441 576 536 l 563 436 l 535 436 l 529 442 q 522 519 526 499 q 468 561 517 538 q 363 583 418 583 q 264 560 307 583 q 198 483 220 536 q 176 356 176 430 q 194 234 176 294 q 240 136 212 175 q 317 73 269 97 q 422 50 364 50 q 494 59 459 50 q 574 90 529 68 l 589 73 m 556 995 l 357 741 l 348 739 l 328 749 l 326 758 l 430 994 l 536 1014 l 545 1012 l 556 995 z "},"ĉ":{"ha":616,"x_min":54,"x_max":663,"o":"m 589 73 l 562 27 q 366 -21 474 -21 q 136 68 217 -21 q 54 297 54 157 q 68 411 54 361 q 103 493 82 460 q 151 545 125 526 q 238 597 176 564 q 330 642 299 631 q 416 652 361 652 q 589 612 522 652 q 569 441 576 536 l 563 436 l 535 436 l 529 442 q 522 519 526 499 q 468 561 517 538 q 363 583 418 583 q 264 560 307 583 q 198 483 220 536 q 176 356 176 430 q 194 234 176 294 q 240 136 212 175 q 317 73 269 97 q 422 50 364 50 q 494 59 459 50 q 574 90 529 68 l 589 73 m 577 760 l 572 753 l 533 753 l 360 921 l 187 753 l 148 753 l 143 760 l 320 1005 l 400 1005 l 577 760 m 663 780 m 360 1005 z "},"č":{"ha":616,"x_min":54,"x_max":591,"o":"m 589 73 l 562 27 q 366 -21 474 -21 q 136 68 217 -21 q 54 297 54 157 q 68 411 54 361 q 103 493 82 460 q 151 545 125 526 q 238 597 176 564 q 330 642 299 631 q 416 652 361 652 q 589 612 522 652 q 569 441 576 536 l 563 436 l 535 436 l 529 442 q 522 519 526 499 q 468 561 517 538 q 363 583 418 583 q 264 560 307 583 q 198 483 220 536 q 176 356 176 430 q 194 234 176 294 q 240 136 212 175 q 317 73 269 97 q 422 50 364 50 q 494 59 459 50 q 574 90 529 68 l 589 73 m 591 998 l 414 753 l 327 753 l 157 998 l 161 1005 l 201 1005 l 370 838 l 540 1005 l 586 1005 l 591 998 z "},"ç":{"ha":616,"x_min":54,"x_max":589,"o":"m 374 -21 l 342 -96 q 384 -92 364 -92 q 470 -119 439 -92 q 502 -188 502 -145 q 478 -251 502 -222 q 419 -292 455 -280 q 336 -304 384 -304 q 214 -285 271 -304 l 211 -277 l 227 -242 l 235 -239 q 319 -254 276 -254 q 375 -236 357 -254 q 393 -197 393 -218 q 374 -158 393 -173 q 323 -144 355 -144 q 281 -151 304 -144 l 269 -141 l 324 -19 q 127 78 199 -8 q 54 297 54 163 q 68 411 54 361 q 103 493 82 460 q 151 545 125 526 q 238 597 176 564 q 330 642 299 631 q 416 652 361 652 q 589 612 522 652 q 569 441 576 536 l 563 436 l 535 436 l 529 442 q 522 519 526 499 q 468 561 517 538 q 363 583 418 583 q 264 560 307 583 q 198 483 220 536 q 176 356 176 430 q 194 234 176 294 q 240 136 212 175 q 317 73 269 97 q 422 50 364 50 q 494 59 459 50 q 574 90 529 68 l 589 73 l 562 27 q 374 -21 476 -20 z "},"ċ":{"ha":616,"x_min":54,"x_max":589,"o":"m 589 73 l 562 27 q 366 -21 474 -21 q 136 68 217 -21 q 54 297 54 157 q 68 411 54 361 q 103 493 82 460 q 151 545 125 526 q 238 597 176 564 q 330 642 299 631 q 416 652 361 652 q 589 612 522 652 q 569 441 576 536 l 563 436 l 535 436 l 529 442 q 522 519 526 499 q 468 561 517 538 q 363 583 418 583 q 264 560 307 583 q 198 483 220 536 q 176 356 176 430 q 194 234 176 294 q 240 136 212 175 q 317 73 269 97 q 422 50 364 50 q 494 59 459 50 q 574 90 529 68 l 589 73 m 380 789 q 327 810 349 789 q 305 863 305 832 q 327 917 305 895 q 380 939 349 939 q 434 917 412 939 q 455 863 455 895 q 433 810 455 832 q 380 789 411 789 z "},"ď":{"ha":935,"x_min":57,"x_max":921,"o":"m 456 920 l 456 948 l 462 954 q 680 1004 591 969 l 693 996 q 686 684 686 918 l 686 239 q 688 120 686 171 q 696 59 690 68 q 716 43 703 50 q 795 32 730 37 l 802 26 l 802 1 l 795 -5 q 682 -1 722 -1 q 577 -5 645 -1 l 570 2 q 572 95 572 68 q 572 121 572 98 q 498 60 535 94 q 426 -1 443 12 q 337 -16 395 -16 q 178 30 243 -16 q 85 148 113 76 q 57 294 57 219 q 86 442 57 371 q 168 545 115 513 q 284 613 221 578 q 408 648 347 648 q 572 605 494 648 l 570 756 q 566 866 568 835 q 559 902 563 897 q 545 911 555 908 q 463 913 535 913 l 456 920 m 572 489 q 479 562 530 536 q 376 587 428 587 q 270 556 319 587 q 199 464 221 525 q 178 332 178 404 q 238 142 178 214 q 389 70 298 70 q 476 93 438 70 q 539 154 515 115 q 568 231 564 193 q 572 373 572 270 l 572 489 m 764 737 l 758 761 q 865 841 865 787 q 842 861 865 861 q 760 935 760 864 q 782 986 760 966 q 836 1005 804 1005 q 898 978 875 1005 q 921 905 921 950 q 764 737 921 751 z "},"đ":{"ha":848,"x_min":57,"x_max":806,"o":"m 806 790 l 806 747 l 799 741 l 686 741 l 686 239 q 688 120 686 171 q 696 59 690 68 q 716 43 703 50 q 795 32 730 37 l 802 26 l 802 1 l 795 -5 q 682 -1 722 -1 q 577 -5 645 -1 l 570 2 q 572 95 572 68 q 572 121 572 98 q 498 60 535 94 q 426 -1 443 12 q 337 -16 395 -16 q 178 30 243 -16 q 85 148 113 76 q 57 294 57 219 q 86 442 57 371 q 168 545 115 513 q 284 613 221 578 q 408 648 347 648 q 572 605 494 648 q 570 741 572 631 l 374 741 l 366 747 l 366 790 l 373 798 l 568 798 q 563 891 567 877 q 548 910 559 906 q 463 913 537 913 l 456 920 l 456 948 l 462 954 q 680 1004 591 969 l 693 996 q 686 798 686 913 l 799 798 l 806 790 m 572 489 q 479 562 530 536 q 376 587 428 587 q 270 556 319 587 q 199 464 221 525 q 178 332 178 404 q 238 142 178 214 q 389 70 298 70 q 476 93 438 70 q 539 154 515 115 q 568 231 564 193 q 572 373 572 270 l 572 489 z "},"é":{"ha":665,"x_min":35,"x_max":619,"o":"m 600 100 l 578 51 q 452 -8 507 5 q 353 -22 397 -22 q 199 10 272 -22 q 80 118 126 42 q 35 301 35 194 q 52 430 35 372 q 89 515 70 487 q 155 576 109 543 q 252 631 201 610 q 363 651 304 651 q 507 613 445 651 q 594 515 569 574 q 619 388 619 455 q 617 347 619 367 l 610 340 q 486 326 564 330 q 382 323 408 323 l 165 323 q 235 116 166 182 q 405 50 304 50 q 496 66 452 50 q 589 111 540 82 l 600 100 m 165 377 q 259 372 177 375 q 380 370 340 370 q 494 373 474 370 q 495 398 495 389 q 452 554 495 503 q 336 606 410 606 q 210 548 255 606 q 165 377 165 490 m 354 689 m 346 -41 m 549 995 l 350 741 l 341 739 l 321 749 l 319 758 l 423 994 l 529 1014 l 538 1012 l 549 995 z "},"è":{"ha":665,"x_min":35,"x_max":619,"o":"m 600 100 l 578 51 q 452 -8 507 5 q 353 -22 397 -22 q 199 10 272 -22 q 80 118 126 42 q 35 301 35 194 q 52 430 35 372 q 89 515 70 487 q 155 576 109 543 q 252 631 201 610 q 363 651 304 651 q 507 613 445 651 q 594 515 569 574 q 619 388 619 455 q 617 347 619 367 l 610 340 q 486 326 564 330 q 382 323 408 323 l 165 323 q 235 116 166 182 q 405 50 304 50 q 496 66 452 50 q 589 111 540 82 l 600 100 m 165 377 q 259 372 177 375 q 380 370 340 370 q 494 373 474 370 q 495 398 495 389 q 452 554 495 503 q 336 606 410 606 q 210 548 255 606 q 165 377 165 490 m 354 689 m 346 -41 m 380 758 l 378 749 l 358 739 l 349 741 l 150 995 l 161 1012 l 170 1014 l 219 1004 q 276 994 235 1001 l 380 758 z "},"ê":{"ha":665,"x_min":35,"x_max":649,"o":"m 600 100 l 578 51 q 452 -8 507 5 q 353 -22 397 -22 q 199 10 272 -22 q 80 118 126 42 q 35 301 35 194 q 52 430 35 372 q 89 515 70 487 q 155 576 109 543 q 252 631 201 610 q 363 651 304 651 q 507 613 445 651 q 594 515 569 574 q 619 388 619 455 q 617 347 619 367 l 610 340 q 486 326 564 330 q 382 323 408 323 l 165 323 q 235 116 166 182 q 405 50 304 50 q 496 66 452 50 q 589 111 540 82 l 600 100 m 165 377 q 259 372 177 375 q 380 370 340 370 q 494 373 474 370 q 495 398 495 389 q 452 554 495 503 q 336 606 410 606 q 210 548 255 606 q 165 377 165 490 m 354 689 m 346 -41 m 564 760 l 559 753 l 519 753 l 347 921 l 174 753 l 134 753 l 130 760 l 307 1005 l 387 1005 l 564 760 m 649 780 m 347 1005 z "},"ë":{"ha":665,"x_min":35,"x_max":619,"o":"m 600 100 l 578 51 q 452 -8 507 5 q 353 -22 397 -22 q 199 10 272 -22 q 80 118 126 42 q 35 301 35 194 q 52 430 35 372 q 89 515 70 487 q 155 576 109 543 q 252 631 201 610 q 363 651 304 651 q 507 613 445 651 q 594 515 569 574 q 619 388 619 455 q 617 347 619 367 l 610 340 q 486 326 564 330 q 382 323 408 323 l 165 323 q 235 116 166 182 q 405 50 304 50 q 496 66 452 50 q 589 111 540 82 l 600 100 m 165 377 q 259 372 177 375 q 380 370 340 370 q 494 373 474 370 q 495 398 495 389 q 452 554 495 503 q 336 606 410 606 q 210 548 255 606 q 165 377 165 490 m 354 689 m 346 -41 m 486 789 q 434 810 456 789 q 412 863 412 832 q 434 915 412 894 q 486 937 455 937 q 539 915 517 937 q 560 863 560 894 q 538 810 560 832 q 486 789 517 789 m 199 789 q 147 810 169 789 q 125 863 125 832 q 147 915 125 893 q 199 937 169 937 q 252 915 231 937 q 273 863 273 894 q 252 810 273 832 q 199 789 230 789 z "},"ě":{"ha":665,"x_min":35,"x_max":619,"o":"m 600 100 l 578 51 q 452 -8 507 5 q 353 -22 397 -22 q 199 10 272 -22 q 80 118 126 42 q 35 301 35 194 q 52 430 35 372 q 89 515 70 487 q 155 576 109 543 q 252 631 201 610 q 363 651 304 651 q 507 613 445 651 q 594 515 569 574 q 619 388 619 455 q 617 347 619 367 l 610 340 q 486 326 564 330 q 382 323 408 323 l 165 323 q 235 116 166 182 q 405 50 304 50 q 496 66 452 50 q 589 111 540 82 l 600 100 m 165 377 q 259 372 177 375 q 380 370 340 370 q 494 373 474 370 q 495 398 495 389 q 452 554 495 503 q 336 606 410 606 q 210 548 255 606 q 165 377 165 490 m 354 689 m 346 -41 m 557 998 l 380 753 l 293 753 l 123 998 l 127 1005 l 167 1005 l 336 838 l 506 1005 l 552 1005 l 557 998 z "},"ĕ":{"ha":665,"x_min":35,"x_max":619,"o":"m 600 100 l 578 51 q 452 -8 507 5 q 353 -22 397 -22 q 199 10 272 -22 q 80 118 126 42 q 35 301 35 194 q 52 430 35 372 q 89 515 70 487 q 155 576 109 543 q 252 631 201 610 q 363 651 304 651 q 507 613 445 651 q 594 515 569 574 q 619 388 619 455 q 617 347 619 367 l 610 340 q 486 326 564 330 q 382 323 408 323 l 165 323 q 235 116 166 182 q 405 50 304 50 q 496 66 452 50 q 589 111 540 82 l 600 100 m 165 377 q 259 372 177 375 q 380 370 340 370 q 494 373 474 370 q 495 398 495 389 q 452 554 495 503 q 336 606 410 606 q 210 548 255 606 q 165 377 165 490 m 354 689 m 346 -41 m 539 966 q 484 803 534 863 q 347 742 433 742 q 248 768 289 742 q 181 845 206 795 q 154 966 157 895 l 159 971 l 196 971 q 247 868 206 908 q 347 827 287 827 q 447 868 406 827 q 497 971 487 908 l 534 971 l 539 966 m 346 965 z "},"ė":{"ha":665,"x_min":35,"x_max":619,"o":"m 600 100 l 578 51 q 452 -8 507 5 q 353 -22 397 -22 q 199 10 272 -22 q 80 118 126 42 q 35 301 35 194 q 52 430 35 372 q 89 515 70 487 q 155 576 109 543 q 252 631 201 610 q 363 651 304 651 q 507 613 445 651 q 594 515 569 574 q 619 388 619 455 q 617 347 619 367 l 610 340 q 486 326 564 330 q 382 323 408 323 l 165 323 q 235 116 166 182 q 405 50 304 50 q 496 66 452 50 q 589 111 540 82 l 600 100 m 165 377 q 259 372 177 375 q 380 370 340 370 q 494 373 474 370 q 495 398 495 389 q 452 554 495 503 q 336 606 410 606 q 210 548 255 606 q 165 377 165 490 m 354 689 m 346 -41 m 346 789 q 293 810 315 789 q 271 863 271 832 q 293 917 271 895 q 346 939 315 939 q 400 917 378 939 q 421 863 421 895 q 399 810 421 832 q 346 789 377 789 z "},"ē":{"ha":665,"x_min":35,"x_max":619,"o":"m 600 100 l 578 51 q 452 -8 507 5 q 353 -22 397 -22 q 199 10 272 -22 q 80 118 126 42 q 35 301 35 194 q 52 430 35 372 q 89 515 70 487 q 155 576 109 543 q 252 631 201 610 q 363 651 304 651 q 507 613 445 651 q 594 515 569 574 q 619 388 619 455 q 617 347 619 367 l 610 340 q 486 326 564 330 q 382 323 408 323 l 165 323 q 235 116 166 182 q 405 50 304 50 q 496 66 452 50 q 589 111 540 82 l 600 100 m 165 377 q 259 372 177 375 q 380 370 340 370 q 494 373 474 370 q 495 398 495 389 q 452 554 495 503 q 336 606 410 606 q 210 548 255 606 q 165 377 165 490 m 354 689 m 346 -41 m 550 824 l 123 824 l 123 895 l 550 895 l 550 824 z "},"ę":{"ha":665,"x_min":35,"x_max":619,"o":"m 600 100 l 578 51 q 478 -1 536 24 q 405 -36 430 -20 q 366 -73 380 -51 q 351 -122 351 -96 q 369 -172 351 -151 q 424 -193 387 -193 q 543 -142 473 -193 l 553 -143 l 572 -168 l 572 -178 q 475 -249 519 -227 q 386 -271 431 -271 q 326 -257 349 -271 q 285 -218 302 -243 q 269 -157 269 -192 q 357 -22 269 -81 q 120 66 205 -22 q 35 301 35 155 q 52 430 35 372 q 89 515 70 487 q 155 576 109 543 q 252 631 201 610 q 363 651 304 651 q 507 613 445 651 q 594 515 569 574 q 619 388 619 455 q 617 347 619 368 l 610 340 q 486 326 564 330 q 382 323 408 323 l 165 323 q 235 116 166 182 q 405 50 304 50 q 496 66 452 50 q 589 111 540 82 l 600 100 m 165 377 q 259 372 177 375 q 380 370 340 370 q 494 373 474 370 q 495 398 495 389 q 452 554 495 503 q 336 606 410 606 q 210 548 255 606 q 165 377 165 490 z "},"ǵ":{"ha":772,"x_min":48,"x_max":753,"o":"m 748 600 l 753 587 q 719 532 726 545 l 593 532 q 612 454 612 494 q 590 360 612 406 q 528 283 568 315 q 439 232 489 251 q 326 213 389 213 l 294 213 q 243 165 254 181 q 231 134 231 150 q 259 92 231 104 q 372 79 286 79 l 524 81 q 634 64 596 81 q 696 4 673 47 q 720 -89 720 -40 q 672 -238 720 -163 q 532 -351 623 -312 q 336 -389 440 -389 q 225 -376 277 -389 q 135 -337 174 -363 q 72 -269 96 -311 q 48 -182 48 -227 q 56 -129 48 -157 q 84 -70 63 -102 l 207 -1 q 133 35 148 17 q 117 78 117 53 q 134 139 117 104 l 243 218 q 114 293 147 243 q 80 403 80 343 q 104 508 80 458 q 175 587 127 557 q 282 634 223 617 q 391 652 342 652 q 552 597 475 652 q 748 600 675 597 m 197 442 q 213 353 197 401 q 266 281 229 306 q 347 257 302 257 q 451 296 408 257 q 495 419 495 336 q 455 546 495 490 q 342 602 415 602 q 238 562 280 602 q 197 442 197 522 m 395 -13 q 270 -16 286 -13 q 222 -39 253 -18 q 173 -94 192 -59 q 153 -172 153 -129 q 210 -297 153 -249 q 362 -345 267 -345 q 494 -315 433 -345 q 583 -235 554 -286 q 612 -139 612 -185 q 588 -60 612 -93 q 525 -20 564 -27 q 395 -13 487 -13 m 556 995 l 357 741 l 348 739 l 328 749 l 326 758 l 430 994 l 536 1014 l 545 1012 l 556 995 z "},"ĝ":{"ha":772,"x_min":48,"x_max":753,"o":"m 748 600 l 753 587 q 719 532 726 545 l 593 532 q 612 454 612 494 q 590 360 612 406 q 528 283 568 315 q 439 232 489 251 q 326 213 389 213 l 294 213 q 243 165 254 181 q 231 134 231 150 q 259 92 231 104 q 372 79 286 79 l 524 81 q 634 64 596 81 q 696 4 673 47 q 720 -89 720 -40 q 672 -238 720 -163 q 532 -351 623 -312 q 336 -389 440 -389 q 225 -376 277 -389 q 135 -337 174 -363 q 72 -269 96 -311 q 48 -182 48 -227 q 56 -129 48 -157 q 84 -70 63 -102 l 207 -1 q 133 35 148 17 q 117 78 117 53 q 134 139 117 104 l 243 218 q 114 293 147 243 q 80 403 80 343 q 104 508 80 458 q 175 587 127 557 q 282 634 223 617 q 391 652 342 652 q 552 597 475 652 q 748 600 675 597 m 197 442 q 213 353 197 401 q 266 281 229 306 q 347 257 302 257 q 451 296 408 257 q 495 419 495 336 q 455 546 495 490 q 342 602 415 602 q 238 562 280 602 q 197 442 197 522 m 395 -13 q 270 -16 286 -13 q 222 -39 253 -18 q 173 -94 192 -59 q 153 -172 153 -129 q 210 -297 153 -249 q 362 -345 267 -345 q 494 -315 433 -345 q 583 -235 554 -286 q 612 -139 612 -185 q 588 -60 612 -93 q 525 -20 564 -27 q 395 -13 487 -13 m 574 760 l 569 753 l 530 753 l 357 921 l 184 753 l 144 753 l 140 760 l 317 1005 l 397 1005 l 574 760 m 659 780 m 357 1005 z "},"ğ":{"ha":772,"x_min":48,"x_max":753,"o":"m 748 600 l 753 587 q 719 532 726 545 l 593 532 q 612 454 612 494 q 590 360 612 406 q 528 283 568 315 q 439 232 489 251 q 326 213 389 213 l 294 213 q 243 165 254 181 q 231 134 231 150 q 259 92 231 104 q 372 79 286 79 l 524 81 q 634 64 596 81 q 696 4 673 47 q 720 -89 720 -40 q 672 -238 720 -163 q 532 -351 623 -312 q 336 -389 440 -389 q 225 -376 277 -389 q 135 -337 174 -363 q 72 -269 96 -311 q 48 -182 48 -227 q 56 -129 48 -157 q 84 -70 63 -102 l 207 -1 q 133 35 148 17 q 117 78 117 53 q 134 139 117 104 l 243 218 q 114 293 147 243 q 80 403 80 343 q 104 508 80 458 q 175 587 127 557 q 282 634 223 617 q 391 652 342 652 q 552 597 475 652 q 748 600 675 597 m 197 442 q 213 353 197 401 q 266 281 229 306 q 347 257 302 257 q 451 296 408 257 q 495 419 495 336 q 455 546 495 490 q 342 602 415 602 q 238 562 280 602 q 197 442 197 522 m 395 -13 q 270 -16 286 -13 q 222 -39 253 -18 q 173 -94 192 -59 q 153 -172 153 -129 q 210 -297 153 -249 q 362 -345 267 -345 q 494 -315 433 -345 q 583 -235 554 -286 q 612 -139 612 -185 q 588 -60 612 -93 q 525 -20 564 -27 q 395 -13 487 -13 m 553 966 q 497 803 548 863 q 360 742 447 742 q 261 768 302 742 q 195 845 220 795 q 168 966 170 895 l 173 971 l 210 971 q 260 868 220 908 q 360 827 300 827 q 460 868 420 827 q 511 971 500 908 l 547 971 l 553 966 m 359 965 z "},"ģ":{"ha":772,"x_min":48,"x_max":753,"o":"m 748 600 l 753 587 q 719 532 726 545 l 593 532 q 612 454 612 494 q 590 360 612 406 q 528 283 568 315 q 439 232 489 251 q 326 213 389 213 l 294 213 q 243 165 254 181 q 231 134 231 150 q 259 92 231 104 q 372 79 286 79 l 524 81 q 634 64 596 81 q 696 4 673 47 q 720 -89 720 -40 q 672 -238 720 -163 q 532 -351 623 -312 q 336 -389 440 -389 q 225 -376 277 -389 q 135 -337 174 -363 q 72 -269 96 -311 q 48 -182 48 -227 q 56 -129 48 -157 q 84 -70 63 -102 l 207 -1 q 133 35 148 17 q 117 78 117 53 q 134 139 117 104 l 243 218 q 114 293 147 243 q 80 403 80 343 q 104 508 80 458 q 175 587 127 557 q 282 634 223 617 q 391 652 342 652 q 552 597 475 652 q 748 600 675 597 m 197 442 q 213 353 197 401 q 266 281 229 306 q 347 257 302 257 q 451 296 408 257 q 495 419 495 336 q 455 546 495 490 q 342 602 415 602 q 238 562 280 602 q 197 442 197 522 m 395 -13 q 270 -16 286 -13 q 222 -39 253 -18 q 173 -94 192 -59 q 153 -172 153 -129 q 210 -297 153 -249 q 362 -345 267 -345 q 494 -315 433 -345 q 583 -235 554 -286 q 612 -139 612 -185 q 588 -60 612 -93 q 525 -20 564 -27 q 395 -13 487 -13 m 434 987 q 328 907 328 969 q 351 887 328 888 q 433 813 433 884 q 411 763 433 782 q 357 743 389 743 q 295 771 318 743 q 272 843 272 798 q 429 1011 272 997 l 434 987 z "},"ġ":{"ha":772,"x_min":48,"x_max":753,"o":"m 748 600 l 753 587 q 719 532 726 545 l 593 532 q 612 454 612 494 q 590 360 612 406 q 528 283 568 315 q 439 232 489 251 q 326 213 389 213 l 294 213 q 243 165 254 181 q 231 134 231 150 q 259 92 231 104 q 372 79 286 79 l 524 81 q 634 64 596 81 q 696 4 673 47 q 720 -89 720 -40 q 672 -238 720 -163 q 532 -351 623 -312 q 336 -389 440 -389 q 225 -376 277 -389 q 135 -337 174 -363 q 72 -269 96 -311 q 48 -182 48 -227 q 56 -129 48 -157 q 84 -70 63 -102 l 207 -1 q 133 35 148 17 q 117 78 117 53 q 134 139 117 104 l 243 218 q 114 293 147 243 q 80 403 80 343 q 104 508 80 458 q 175 587 127 557 q 282 634 223 617 q 391 652 342 652 q 552 597 475 652 q 748 600 675 597 m 197 442 q 213 353 197 401 q 266 281 229 306 q 347 257 302 257 q 451 296 408 257 q 495 419 495 336 q 455 546 495 490 q 342 602 415 602 q 238 562 280 602 q 197 442 197 522 m 395 -13 q 270 -16 286 -13 q 222 -39 253 -18 q 173 -94 192 -59 q 153 -172 153 -129 q 210 -297 153 -249 q 362 -345 267 -345 q 494 -315 433 -345 q 583 -235 554 -286 q 612 -139 612 -185 q 588 -60 612 -93 q 525 -20 564 -27 q 395 -13 487 -13 m 353 789 q 300 810 321 789 q 278 863 278 832 q 300 917 278 895 q 353 939 321 939 q 407 917 385 939 q 428 863 428 895 q 406 810 428 832 q 353 789 384 789 z "},"ĥ":{"ha":808,"x_min":-54,"x_max":794,"o":"m 231 1004 l 243 996 q 236 684 236 918 l 236 516 q 342 609 293 563 q 369 628 356 622 q 411 641 382 634 q 470 648 439 648 q 570 627 522 648 q 643 577 618 606 q 677 509 668 548 q 687 412 687 469 l 687 292 q 690 123 687 281 q 705 47 692 59 q 789 35 718 35 l 794 29 l 794 0 l 789 -5 q 672 0 703 0 q 573 -5 656 0 l 565 2 q 574 232 574 90 l 574 321 q 570 436 574 401 q 547 500 566 471 q 497 545 528 529 q 420 561 465 561 q 343 548 374 561 q 281 506 313 536 q 242 456 249 476 q 236 379 236 436 l 236 258 q 239 162 236 243 q 244 68 241 81 q 254 48 248 54 q 269 40 260 42 q 342 35 277 39 l 348 29 l 348 1 l 342 -5 q 179 0 258 0 q 16 -5 101 0 l 10 1 l 10 29 l 16 35 q 91 41 82 39 q 105 49 99 43 q 114 69 112 56 q 120 156 117 82 q 123 269 123 231 l 123 620 l 120 764 q 116 868 118 839 q 109 903 113 897 q 95 911 105 908 q 13 913 85 913 l 7 920 l 7 948 l 12 954 q 231 1004 142 969 m 380 1053 l 376 1046 l 336 1046 l 163 1215 l -9 1046 l -49 1046 l -54 1053 l 123 1299 l 203 1299 l 380 1053 m 466 1074 m 163 1299 z "},"ħ":{"ha":808,"x_min":3,"x_max":795,"o":"m 3 747 l 3 790 l 11 798 l 119 798 q 113 897 117 886 q 96 910 109 907 q 13 913 83 913 l 7 920 l 7 948 l 13 954 q 231 1004 142 969 l 243 996 q 237 798 237 912 l 436 798 l 444 790 l 444 747 l 436 741 l 237 741 l 237 516 q 342 609 294 563 q 369 628 357 622 q 411 641 382 634 q 471 648 440 648 q 571 627 522 648 q 644 577 619 606 q 678 509 669 548 q 688 412 688 469 l 688 292 q 691 123 688 281 q 705 47 692 59 q 789 35 718 35 l 795 29 l 795 0 l 789 -5 q 673 0 703 0 q 574 -5 655 0 l 566 2 q 574 232 574 90 l 574 321 q 571 436 574 401 q 548 500 567 471 q 497 545 529 529 q 421 561 465 561 q 344 548 375 561 q 281 506 313 536 q 243 456 249 476 q 237 379 237 436 l 237 258 q 239 162 237 243 q 245 68 242 81 q 254 48 248 54 q 269 40 260 42 q 342 35 277 39 l 349 29 l 349 1 l 342 -5 q 180 0 258 0 q 16 -5 102 0 l 11 1 l 11 29 l 17 35 q 91 41 82 39 q 106 49 100 43 q 115 69 113 56 q 120 156 117 82 q 123 269 123 231 l 123 620 q 121 741 122 680 l 12 741 l 3 747 z "},"í":{"ha":404,"x_min":29,"x_max":373,"o":"m 253 646 l 266 637 q 258 412 258 549 l 258 258 q 261 162 258 243 q 267 68 264 81 q 276 48 270 54 q 291 40 282 42 q 364 35 300 39 l 370 29 l 370 1 l 365 -5 q 201 0 280 0 q 39 -5 123 0 l 33 1 l 33 29 l 39 35 q 113 41 104 39 q 128 49 121 43 q 137 69 134 56 q 142 156 139 82 q 145 269 145 231 l 145 402 q 142 476 145 429 q 138 534 140 523 q 127 550 136 545 q 92 555 119 555 l 35 555 l 29 561 l 29 590 l 35 595 q 253 646 164 611 m 203 689 m 200 -41 m 373 995 l 174 741 l 165 739 l 145 749 l 143 758 l 247 994 l 353 1014 l 361 1012 l 373 995 z "},"ì":{"ha":404,"x_min":-6,"x_max":370,"o":"m 253 646 l 266 637 q 258 412 258 549 l 258 258 q 261 162 258 243 q 267 68 264 81 q 276 48 270 54 q 291 40 282 42 q 364 35 300 39 l 370 29 l 370 1 l 365 -5 q 201 0 280 0 q 39 -5 123 0 l 33 1 l 33 29 l 39 35 q 113 41 104 39 q 128 49 121 43 q 137 69 134 56 q 142 156 139 82 q 145 269 145 231 l 145 402 q 142 476 145 429 q 138 534 140 523 q 127 550 136 545 q 92 555 119 555 l 35 555 l 29 561 l 29 590 l 35 595 q 253 646 164 611 m 203 689 m 200 -41 m 224 758 l 222 749 l 202 739 l 193 741 l -6 995 l 5 1012 l 14 1014 l 63 1004 q 120 994 79 1001 l 224 758 z "},"î":{"ha":404,"x_min":-33,"x_max":486,"o":"m 253 646 l 266 637 q 258 412 258 549 l 258 258 q 261 162 258 243 q 267 68 264 81 q 276 48 270 54 q 291 40 282 42 q 364 35 300 39 l 370 29 l 370 1 l 365 -5 q 201 0 280 0 q 39 -5 123 0 l 33 1 l 33 29 l 39 35 q 113 41 104 39 q 128 49 121 43 q 137 69 134 56 q 142 156 139 82 q 145 269 145 231 l 145 402 q 142 476 145 429 q 138 534 140 523 q 127 550 136 545 q 92 555 119 555 l 35 555 l 29 561 l 29 590 l 35 595 q 253 646 164 611 m 203 689 m 200 -41 m 401 760 l 396 753 l 357 753 l 184 921 l 11 753 l -28 753 l -33 760 l 144 1005 l 224 1005 l 401 760 m 486 780 m 184 1005 z "},"ï":{"ha":404,"x_min":-41,"x_max":394,"o":"m 253 646 l 266 637 q 258 412 258 549 l 258 258 q 261 162 258 243 q 267 68 264 81 q 276 48 270 54 q 291 40 282 42 q 364 35 300 39 l 370 29 l 370 1 l 365 -5 q 201 0 280 0 q 39 -5 123 0 l 33 1 l 33 29 l 39 35 q 113 41 104 39 q 128 49 121 43 q 137 69 134 56 q 142 156 139 82 q 145 269 145 231 l 145 402 q 142 476 145 429 q 138 534 140 523 q 127 550 136 545 q 92 555 119 555 l 35 555 l 29 561 l 29 590 l 35 595 q 253 646 164 611 m 203 689 m 200 -41 m 320 789 q 268 810 290 789 q 246 863 246 832 q 268 915 246 894 q 320 937 289 937 q 373 915 351 937 q 394 863 394 894 q 372 810 394 832 q 320 789 351 789 m 33 789 q -19 810 3 789 q -41 863 -41 832 q -19 915 -41 893 q 33 937 3 937 q 86 915 64 937 q 107 863 107 894 q 85 810 107 832 q 33 789 64 789 z "},"ĩ":{"ha":404,"x_min":-57,"x_max":414,"o":"m 253 646 l 266 637 q 258 412 258 549 l 258 258 q 261 162 258 243 q 267 68 264 81 q 276 48 270 54 q 291 40 282 42 q 364 35 300 39 l 370 29 l 370 1 l 365 -5 q 201 0 280 0 q 39 -5 123 0 l 33 1 l 33 29 l 39 35 q 113 41 104 39 q 128 49 121 43 q 137 69 134 56 q 142 156 139 82 q 145 269 145 231 l 145 402 q 142 476 145 429 q 138 534 140 523 q 127 550 136 545 q 92 555 119 555 l 35 555 l 29 561 l 29 590 l 35 595 q 253 646 164 611 m 203 689 m 200 -41 m 414 943 q 360 837 400 880 q 267 793 319 793 q 156 828 224 793 q 60 863 88 863 q -19 794 7 863 l -53 794 l -57 799 q -3 901 -45 858 q 89 945 38 945 q 201 910 132 945 q 298 876 271 876 q 375 947 349 876 l 410 947 l 414 943 z "},"ĭ":{"ha":404,"x_min":-9,"x_max":376,"o":"m 253 646 l 266 637 q 258 412 258 549 l 258 258 q 261 162 258 243 q 267 68 264 81 q 276 48 270 54 q 291 40 282 42 q 364 35 300 39 l 370 29 l 370 1 l 365 -5 q 201 0 280 0 q 39 -5 123 0 l 33 1 l 33 29 l 39 35 q 113 41 104 39 q 128 49 121 43 q 137 69 134 56 q 142 156 139 82 q 145 269 145 231 l 145 402 q 142 476 145 429 q 138 534 140 523 q 127 550 136 545 q 92 555 119 555 l 35 555 l 29 561 l 29 590 l 35 595 q 253 646 164 611 m 203 689 m 200 -41 m 376 966 q 321 803 372 863 q 184 742 271 742 q 85 768 126 742 q 19 845 43 795 q -9 966 -6 895 l -3 971 l 33 971 q 84 868 43 908 q 184 827 124 827 q 284 868 243 827 q 334 971 324 908 l 371 971 l 376 966 m 183 965 z "},"ı":{"ha":404,"x_min":29,"x_max":370,"o":"m 253 646 l 266 637 q 258 412 258 549 l 258 258 q 261 162 258 243 q 267 68 264 81 q 276 48 270 54 q 291 40 282 42 q 364 35 300 39 l 370 29 l 370 1 l 365 -5 q 201 0 280 0 q 39 -5 123 0 l 33 1 l 33 29 l 39 35 q 113 41 104 39 q 128 49 121 43 q 137 69 134 56 q 142 156 139 82 q 145 269 145 231 l 145 402 q 142 476 145 429 q 138 534 140 523 q 127 550 136 545 q 92 555 119 555 l 35 555 l 29 561 l 29 590 l 35 595 q 253 646 164 611 m 203 689 m 200 -41 z "},"ī":{"ha":404,"x_min":-43,"x_max":384,"o":"m 253 646 l 266 637 q 258 412 258 549 l 258 258 q 261 162 258 243 q 267 68 264 81 q 276 48 270 54 q 291 40 282 42 q 364 35 300 39 l 370 29 l 370 1 l 365 -5 q 201 0 280 0 q 39 -5 123 0 l 33 1 l 33 29 l 39 35 q 113 41 104 39 q 128 49 121 43 q 137 69 134 56 q 142 156 139 82 q 145 269 145 231 l 145 402 q 142 476 145 429 q 138 534 140 523 q 127 550 136 545 q 92 555 119 555 l 35 555 l 29 561 l 29 590 l 35 595 q 253 646 164 611 m 203 689 m 200 -41 m 384 824 l -43 824 l -43 895 l 384 895 l 384 824 z "},"į":{"ha":404,"x_min":29,"x_max":370,"o":"m 195 949 q 250 927 227 949 q 272 873 272 905 q 250 819 272 842 q 195 797 227 797 q 141 819 164 797 q 119 873 119 841 q 141 927 119 905 q 195 949 164 949 m 227 0 l 221 -6 q 154 -78 170 -53 q 138 -129 138 -104 q 157 -179 138 -157 q 208 -200 177 -200 q 328 -142 260 -200 l 338 -143 l 357 -168 l 357 -178 q 246 -255 288 -238 q 168 -271 203 -271 q 86 -238 119 -271 q 54 -157 54 -204 q 80 -81 54 -117 q 170 0 105 -46 q 39 -5 125 0 l 33 1 l 33 29 l 39 35 q 113 41 104 39 q 128 49 121 43 q 137 69 134 56 q 142 156 139 82 q 145 269 145 231 l 145 402 q 142 476 145 429 q 138 534 140 523 q 127 550 136 545 q 92 555 119 555 l 35 555 l 29 561 l 29 590 l 35 595 q 253 646 164 611 l 266 637 q 258 412 258 549 l 258 258 q 261 162 258 243 q 267 68 264 81 q 276 48 270 54 q 291 40 282 42 q 364 35 300 39 l 370 29 l 370 1 l 365 -5 q 227 0 278 0 z "},"ĵ":{"ha":325,"x_min":-66,"x_max":368,"o":"m 368 760 l 363 753 l 324 753 l 151 921 l -22 753 l -61 753 l -66 760 l 111 1005 l 191 1005 l 368 760 m 231 637 q 223 389 223 549 l 223 264 l 225 47 q 153 -286 225 -183 q -22 -389 81 -389 q -37 -389 -27 -389 l -43 -350 l -37 -341 q -14 -342 -23 -342 q 74 -284 39 -342 q 110 7 110 -225 l 110 402 q 108 487 110 453 q 103 533 106 520 q 89 550 100 545 q 57 555 78 554 l 0 555 l -6 561 l -6 590 l -1 595 q 218 646 129 611 l 231 637 z "},"ķ":{"ha":772,"x_min":23,"x_max":755,"o":"m 247 1004 l 260 996 q 252 684 252 918 l 252 366 q 343 434 275 379 q 487 558 411 488 q 564 635 562 629 q 633 633 622 633 q 696 635 649 633 l 703 629 l 703 602 l 697 596 q 645 587 663 594 q 572 543 627 581 q 441 443 517 505 l 376 389 q 502 257 412 347 q 647 118 591 168 q 720 61 703 68 q 755 54 736 54 l 755 25 q 626 -16 730 20 q 536 64 555 45 l 486 116 l 427 176 q 352 247 399 204 l 252 339 l 252 258 q 255 162 252 243 q 261 68 258 81 q 270 48 264 54 q 285 40 276 42 q 358 35 294 39 l 364 29 l 364 1 l 359 -5 q 195 0 274 0 q 33 -5 117 0 l 26 1 l 26 29 l 33 35 q 107 41 98 39 q 122 49 115 43 q 131 69 128 56 q 136 156 133 82 q 139 269 139 231 l 139 620 l 136 764 q 132 868 134 839 q 125 903 130 897 q 111 911 121 908 q 29 913 101 913 l 23 920 l 23 948 l 28 954 q 247 1004 158 969 m 330 -347 l 324 -323 q 431 -243 431 -296 q 408 -222 431 -223 q 326 -149 326 -220 q 348 -98 326 -117 q 401 -79 370 -79 q 464 -106 441 -79 q 487 -178 487 -134 q 330 -347 487 -332 z "},"ĸ":{"ha":728,"x_min":54,"x_max":722,"o":"m 722 0 l 718 -4 q 643 0 680 0 q 561 -4 602 0 q 267 309 409 176 l 262 309 l 262 256 q 263 130 262 178 q 268 70 265 83 q 280 50 271 56 q 297 40 288 43 q 351 33 305 37 l 357 28 l 357 0 l 351 -5 q 205 0 284 0 q 59 -5 123 0 l 54 0 l 54 28 l 59 33 q 115 41 102 37 q 137 56 128 45 q 147 108 145 66 q 149 256 149 150 l 149 402 l 146 486 q 141 536 144 525 q 130 550 137 547 q 96 555 123 554 l 60 555 l 54 561 l 54 590 l 59 595 q 256 646 159 608 l 269 637 q 262 374 262 528 l 262 327 l 267 327 q 434 484 353 401 l 522 573 q 529 590 529 581 q 517 602 529 598 l 517 628 l 522 633 q 600 628 581 628 q 678 633 633 628 l 683 628 l 683 600 l 678 595 q 617 579 642 591 q 536 516 592 567 l 377 372 l 662 65 q 718 33 692 33 l 722 29 l 722 0 z "},"ĺ":{"ha":404,"x_min":30,"x_max":371,"o":"m 254 1004 l 267 996 q 259 684 259 918 l 259 258 q 262 162 259 243 q 268 68 264 81 q 277 48 271 54 q 292 40 283 42 q 365 35 300 39 l 371 29 l 371 1 l 366 -5 q 202 0 281 0 q 39 -5 124 0 l 33 1 l 33 29 l 39 35 q 114 41 105 39 q 129 49 122 43 q 137 69 135 56 q 143 156 140 82 q 146 269 146 231 l 146 620 l 143 764 q 139 868 141 839 q 132 903 136 897 q 118 911 128 908 q 36 913 108 913 l 30 920 l 30 948 l 35 954 q 254 1004 165 969 m 366 1300 l 167 1046 l 158 1044 l 138 1054 l 136 1063 l 240 1299 l 346 1319 l 355 1317 l 366 1300 z "},"ļ":{"ha":404,"x_min":30,"x_max":371,"o":"m 254 1004 l 267 996 q 259 684 259 918 l 259 258 q 262 162 259 243 q 268 68 264 81 q 277 48 271 54 q 292 40 283 42 q 365 35 300 39 l 371 29 l 371 1 l 366 -5 q 202 0 281 0 q 39 -5 124 0 l 33 1 l 33 29 l 39 35 q 114 41 105 39 q 129 49 122 43 q 137 69 135 56 q 143 156 140 82 q 146 269 146 231 l 146 620 l 143 764 q 139 868 141 839 q 132 903 136 897 q 118 911 128 908 q 36 913 108 913 l 30 920 l 30 948 l 35 954 q 254 1004 165 969 m 134 -347 l 127 -323 q 234 -243 234 -296 q 211 -222 234 -223 q 129 -149 129 -220 q 151 -98 129 -117 q 205 -79 173 -79 q 267 -106 244 -79 q 290 -178 290 -134 q 134 -347 290 -332 z "},"ľ":{"ha":510,"x_min":30,"x_max":494,"o":"m 254 1004 l 267 996 q 259 684 259 918 l 259 258 q 262 162 259 243 q 268 68 264 81 q 277 48 271 54 q 292 40 283 42 q 365 35 300 39 l 371 29 l 371 1 l 366 -5 q 202 0 281 0 q 39 -5 124 0 l 33 1 l 33 29 l 39 35 q 114 41 105 39 q 129 49 122 43 q 137 69 135 56 q 143 156 140 82 q 146 269 146 231 l 146 620 l 143 764 q 139 868 141 839 q 132 903 136 897 q 118 911 128 908 q 36 913 108 913 l 30 920 l 30 948 l 35 954 q 254 1004 165 969 m 337 737 l 331 761 q 437 841 437 787 q 414 861 437 861 q 332 935 332 864 q 354 986 332 966 q 408 1005 376 1005 q 471 978 448 1005 q 494 905 494 950 q 337 737 494 751 z "},"ŀ":{"ha":473,"x_min":30,"x_max":469,"o":"m 254 1004 l 267 996 q 259 684 259 918 l 259 258 q 262 162 259 243 q 268 68 264 81 q 277 48 271 54 q 292 40 283 42 q 365 35 300 39 l 371 29 l 371 1 l 366 -5 q 202 0 281 0 q 39 -5 124 0 l 33 1 l 33 29 l 39 35 q 114 41 105 39 q 129 49 122 43 q 137 69 135 56 q 143 156 140 82 q 146 269 146 231 l 146 620 l 143 764 q 139 868 141 839 q 132 903 136 897 q 118 911 128 908 q 36 913 108 913 l 30 920 l 30 948 l 35 954 q 254 1004 165 969 m 393 476 q 340 498 362 476 q 319 551 319 519 q 340 604 319 582 q 393 626 362 626 q 447 604 426 626 q 469 551 469 582 q 447 498 469 519 q 393 476 425 476 z "},"ł":{"ha":404,"x_min":-13,"x_max":427,"o":"m 145 534 l 145 620 l 142 764 q 139 868 141 839 q 132 903 136 897 q 118 911 127 908 q 35 913 108 913 l 30 920 l 30 948 l 35 954 q 254 1004 165 969 l 266 996 q 258 684 258 918 l 258 600 l 399 681 l 407 679 l 427 645 l 425 637 l 258 542 l 258 258 q 261 162 258 243 q 268 68 264 81 q 277 48 271 54 q 291 40 283 42 q 365 35 300 39 l 370 29 l 370 1 l 365 -5 q 202 0 281 0 q 39 -5 129 0 l 33 1 l 33 29 l 39 35 q 113 41 104 39 q 128 49 122 43 q 137 69 134 56 q 142 156 139 82 q 145 269 145 231 l 145 477 l 12 400 l 4 402 l -13 435 l -11 443 l 145 534 z "},"ń":{"ha":808,"x_min":8,"x_max":795,"o":"m 232 646 l 245 637 q 239 518 241 592 q 342 609 294 563 q 369 628 357 622 q 411 641 382 634 q 471 648 440 648 q 571 627 522 648 q 644 577 619 606 q 678 509 669 548 q 688 412 688 469 l 688 292 q 691 123 688 281 q 705 47 692 59 q 789 35 718 35 l 795 29 l 795 0 l 789 -5 q 673 0 703 0 q 574 -5 655 0 l 566 2 q 574 232 574 90 l 574 321 q 571 436 574 401 q 548 500 567 471 q 497 545 529 529 q 421 561 465 561 q 361 554 386 561 q 304 525 336 547 q 258 483 273 503 q 240 447 243 464 q 237 376 237 431 l 237 258 q 240 162 237 243 q 246 68 243 81 q 255 48 249 54 q 270 40 261 42 q 343 35 279 39 l 349 29 l 349 1 l 344 -5 q 180 0 259 0 q 18 -5 102 0 l 12 1 l 12 29 l 18 35 q 92 41 83 39 q 107 49 100 43 q 116 69 113 56 q 121 156 118 82 q 124 269 124 231 l 124 402 q 121 476 124 429 q 117 534 119 523 q 106 550 115 545 q 71 555 98 555 l 14 555 l 8 561 l 8 590 l 14 595 q 232 646 143 611 m 604 995 l 404 741 l 395 739 l 376 749 l 374 758 l 477 994 l 583 1014 l 592 1012 l 604 995 z "},"ñ":{"ha":808,"x_min":8,"x_max":795,"o":"m 232 646 l 245 637 q 239 518 241 592 q 342 609 294 563 q 369 628 357 622 q 411 641 382 634 q 471 648 440 648 q 571 627 522 648 q 644 577 619 606 q 678 509 669 548 q 688 412 688 469 l 688 292 q 691 123 688 281 q 705 47 692 59 q 789 35 718 35 l 795 29 l 795 0 l 789 -5 q 673 0 703 0 q 574 -5 655 0 l 566 2 q 574 232 574 90 l 574 321 q 571 436 574 401 q 548 500 567 471 q 497 545 529 529 q 421 561 465 561 q 361 554 386 561 q 304 525 336 547 q 258 483 273 503 q 240 447 243 464 q 237 376 237 431 l 237 258 q 240 162 237 243 q 246 68 243 81 q 255 48 249 54 q 270 40 261 42 q 343 35 279 39 l 349 29 l 349 1 l 344 -5 q 180 0 259 0 q 18 -5 102 0 l 12 1 l 12 29 l 18 35 q 92 41 83 39 q 107 49 100 43 q 116 69 113 56 q 121 156 118 82 q 124 269 124 231 l 124 402 q 121 476 124 429 q 117 534 119 523 q 106 550 115 545 q 71 555 98 555 l 14 555 l 8 561 l 8 590 l 14 595 q 232 646 143 611 m 657 943 q 603 837 643 880 q 510 793 562 793 q 399 828 467 793 q 303 863 331 863 q 224 794 250 863 l 190 794 l 186 799 q 239 901 198 858 q 332 945 281 945 q 444 910 374 945 q 541 876 513 876 q 618 947 591 876 l 653 947 l 657 943 z "},"ň":{"ha":808,"x_min":8,"x_max":795,"o":"m 232 646 l 245 637 q 239 518 241 592 q 342 609 294 563 q 369 628 357 622 q 411 641 382 634 q 471 648 440 648 q 571 627 522 648 q 644 577 619 606 q 678 509 669 548 q 688 412 688 469 l 688 292 q 691 123 688 281 q 705 47 692 59 q 789 35 718 35 l 795 29 l 795 0 l 789 -5 q 673 0 703 0 q 574 -5 655 0 l 566 2 q 574 232 574 90 l 574 321 q 571 436 574 401 q 548 500 567 471 q 497 545 529 529 q 421 561 465 561 q 361 554 386 561 q 304 525 336 547 q 258 483 273 503 q 240 447 243 464 q 237 376 237 431 l 237 258 q 240 162 237 243 q 246 68 243 81 q 255 48 249 54 q 270 40 261 42 q 343 35 279 39 l 349 29 l 349 1 l 344 -5 q 180 0 259 0 q 18 -5 102 0 l 12 1 l 12 29 l 18 35 q 92 41 83 39 q 107 49 100 43 q 116 69 113 56 q 121 156 118 82 q 124 269 124 231 l 124 402 q 121 476 124 429 q 117 534 119 523 q 106 550 115 545 q 71 555 98 555 l 14 555 l 8 561 l 8 590 l 14 595 q 232 646 143 611 m 631 998 l 454 753 l 368 753 l 197 998 l 202 1005 l 241 1005 l 411 838 l 581 1005 l 627 1005 l 631 998 z "},"ņ":{"ha":808,"x_min":8,"x_max":795,"o":"m 232 646 l 245 637 q 239 518 241 592 q 342 609 294 563 q 369 628 357 622 q 411 641 382 634 q 471 648 440 648 q 571 627 522 648 q 644 577 619 606 q 678 509 669 548 q 688 412 688 469 l 688 292 q 691 123 688 281 q 705 47 692 59 q 789 35 718 35 l 795 29 l 795 0 l 789 -5 q 673 0 703 0 q 574 -5 655 0 l 566 2 q 574 232 574 90 l 574 321 q 571 436 574 401 q 548 500 567 471 q 497 545 529 529 q 421 561 465 561 q 361 554 386 561 q 304 525 336 547 q 258 483 273 503 q 240 447 243 464 q 237 376 237 431 l 237 258 q 240 162 237 243 q 246 68 243 81 q 255 48 249 54 q 270 40 261 42 q 343 35 279 39 l 349 29 l 349 1 l 344 -5 q 180 0 259 0 q 18 -5 102 0 l 12 1 l 12 29 l 18 35 q 92 41 83 39 q 107 49 100 43 q 116 69 113 56 q 121 156 118 82 q 124 269 124 231 l 124 402 q 121 476 124 429 q 117 534 119 523 q 106 550 115 545 q 71 555 98 555 l 14 555 l 8 561 l 8 590 l 14 595 q 232 646 143 611 m 351 -347 l 345 -323 q 451 -243 451 -296 q 428 -222 451 -223 q 346 -149 346 -220 q 368 -98 346 -117 q 422 -79 390 -79 q 484 -106 461 -79 q 507 -178 507 -134 q 351 -347 507 -332 z "},"ŉ":{"ha":1002,"x_min":46,"x_max":988,"o":"m 425 646 l 438 637 q 433 518 434 592 q 536 609 487 563 q 563 628 550 622 q 604 641 575 634 q 664 648 633 648 q 764 627 715 648 q 837 577 812 606 q 871 509 862 548 q 881 412 881 469 l 881 292 q 884 123 881 281 q 899 47 886 59 q 983 35 911 35 l 988 29 l 988 0 l 983 -5 q 866 0 897 0 q 767 -5 848 0 l 759 2 q 768 232 768 90 l 768 321 q 764 436 768 401 q 741 500 760 471 q 690 545 722 529 q 614 561 659 561 q 554 554 579 561 q 498 525 529 547 q 452 483 467 503 q 434 447 437 464 q 431 376 431 431 l 431 258 q 433 162 431 243 q 439 68 436 81 q 448 48 442 54 q 463 40 454 42 q 536 35 472 39 l 543 29 l 543 1 l 537 -5 q 374 0 452 0 q 211 -5 296 0 l 205 1 l 205 29 l 211 35 q 285 41 277 39 q 300 49 294 43 q 309 69 307 56 q 314 156 311 82 q 317 269 317 231 l 317 402 q 315 476 317 429 q 310 534 312 523 q 300 550 309 545 q 264 555 291 555 l 208 555 l 201 561 l 201 590 l 207 595 q 425 646 336 611 m 52 736 l 46 760 q 153 840 153 787 q 130 861 153 860 q 47 935 47 863 q 70 985 47 966 q 123 1004 92 1004 q 186 977 163 1004 q 209 905 209 949 q 52 736 209 751 z "},"ó":{"ha":758,"x_min":46,"x_max":712,"o":"m 46 311 q 79 466 46 391 q 195 596 113 541 q 391 650 277 650 q 623 561 533 650 q 712 330 712 471 q 609 74 712 174 q 361 -26 507 -26 q 192 25 267 -26 q 82 150 117 76 q 46 311 46 224 m 174 357 q 199 188 174 262 q 276 67 223 113 q 397 22 329 22 q 529 85 477 22 q 581 276 581 149 q 525 513 581 420 q 361 605 468 605 q 224 541 273 605 q 174 357 174 477 m 380 689 m 370 -41 m 556 995 l 357 741 l 348 739 l 328 749 l 326 758 l 430 994 l 536 1014 l 545 1012 l 556 995 z "},"ò":{"ha":758,"x_min":46,"x_max":712,"o":"m 46 311 q 79 466 46 391 q 195 596 113 541 q 391 650 277 650 q 623 561 533 650 q 712 330 712 471 q 609 74 712 174 q 361 -26 507 -26 q 192 25 267 -26 q 82 150 117 76 q 46 311 46 224 m 174 357 q 199 188 174 262 q 276 67 223 113 q 397 22 329 22 q 529 85 477 22 q 581 276 581 149 q 525 513 581 420 q 361 605 468 605 q 224 541 273 605 q 174 357 174 477 m 380 689 m 370 -41 m 393 758 l 391 749 l 372 739 l 363 741 l 163 995 l 175 1012 l 184 1014 l 233 1004 q 290 994 248 1001 l 393 758 z "},"ô":{"ha":758,"x_min":46,"x_max":712,"o":"m 46 311 q 79 466 46 391 q 195 596 113 541 q 391 650 277 650 q 623 561 533 650 q 712 330 712 471 q 609 74 712 174 q 361 -26 507 -26 q 192 25 267 -26 q 82 150 117 76 q 46 311 46 224 m 174 357 q 199 188 174 262 q 276 67 223 113 q 397 22 329 22 q 529 85 477 22 q 581 276 581 149 q 525 513 581 420 q 361 605 468 605 q 224 541 273 605 q 174 357 174 477 m 380 689 m 370 -41 m 591 760 l 586 753 l 547 753 l 374 921 l 201 753 l 161 753 l 157 760 l 334 1005 l 414 1005 l 591 760 m 676 780 m 374 1005 z "},"ö":{"ha":758,"x_min":46,"x_max":712,"o":"m 46 311 q 79 466 46 391 q 195 596 113 541 q 391 650 277 650 q 623 561 533 650 q 712 330 712 471 q 609 74 712 174 q 361 -26 507 -26 q 192 25 267 -26 q 82 150 117 76 q 46 311 46 224 m 174 357 q 199 188 174 262 q 276 67 223 113 q 397 22 329 22 q 529 85 477 22 q 581 276 581 149 q 525 513 581 420 q 361 605 468 605 q 224 541 273 605 q 174 357 174 477 m 380 689 m 370 -41 m 517 789 q 465 810 486 789 q 443 863 443 832 q 464 915 443 894 q 517 937 486 937 q 569 915 548 937 q 591 863 591 894 q 569 810 591 832 q 517 789 547 789 m 230 789 q 178 810 199 789 q 156 863 156 832 q 178 915 156 893 q 230 937 199 937 q 282 915 261 937 q 304 863 304 894 q 282 810 304 832 q 230 789 260 789 z "},"õ":{"ha":758,"x_min":46,"x_max":712,"o":"m 46 311 q 79 466 46 391 q 195 596 113 541 q 391 650 277 650 q 623 561 533 650 q 712 330 712 471 q 609 74 712 174 q 361 -26 507 -26 q 192 25 267 -26 q 82 150 117 76 q 46 311 46 224 m 174 357 q 199 188 174 262 q 276 67 223 113 q 397 22 329 22 q 529 85 477 22 q 581 276 581 149 q 525 513 581 420 q 361 605 468 605 q 224 541 273 605 q 174 357 174 477 m 380 689 m 370 -41 m 603 943 q 548 837 589 880 q 456 793 508 793 q 345 828 412 793 q 249 863 277 863 q 170 794 196 863 l 136 794 l 132 799 q 185 901 144 858 q 277 945 227 945 q 389 910 320 945 q 486 876 459 876 q 564 947 537 876 l 599 947 l 603 943 z "},"ŏ":{"ha":758,"x_min":46,"x_max":712,"o":"m 46 311 q 79 466 46 391 q 195 596 113 541 q 391 650 277 650 q 623 561 533 650 q 712 330 712 471 q 609 74 712 174 q 361 -26 507 -26 q 192 25 267 -26 q 82 150 117 76 q 46 311 46 224 m 174 357 q 199 188 174 262 q 276 67 223 113 q 397 22 329 22 q 529 85 477 22 q 581 276 581 149 q 525 513 581 420 q 361 605 468 605 q 224 541 273 605 q 174 357 174 477 m 380 689 m 370 -41 m 566 966 q 511 803 562 863 q 374 742 460 742 q 275 768 316 742 q 209 845 233 795 q 181 966 184 895 l 186 971 l 223 971 q 274 868 233 908 q 374 827 314 827 q 474 868 433 827 q 524 971 514 908 l 561 971 l 566 966 m 373 965 z "},"ő":{"ha":758,"x_min":46,"x_max":712,"o":"m 46 311 q 79 466 46 391 q 195 596 113 541 q 391 650 277 650 q 623 561 533 650 q 712 330 712 471 q 609 74 712 174 q 361 -26 507 -26 q 192 25 267 -26 q 82 150 117 76 q 46 311 46 224 m 174 357 q 199 188 174 262 q 276 67 223 113 q 397 22 329 22 q 529 85 477 22 q 581 276 581 149 q 525 513 581 420 q 361 605 468 605 q 224 541 273 605 q 174 357 174 477 m 380 689 m 370 -41 m 661 1000 l 464 741 l 457 739 l 437 749 l 435 756 l 538 994 l 643 1014 l 650 1011 l 661 1000 m 448 1000 l 251 741 l 244 739 l 224 749 l 222 756 l 326 994 l 430 1014 l 437 1011 l 448 1000 z "},"ō":{"ha":758,"x_min":46,"x_max":712,"o":"m 46 311 q 79 466 46 391 q 195 596 113 541 q 391 650 277 650 q 623 561 533 650 q 712 330 712 471 q 609 74 712 174 q 361 -26 507 -26 q 192 25 267 -26 q 82 150 117 76 q 46 311 46 224 m 174 357 q 199 188 174 262 q 276 67 223 113 q 397 22 329 22 q 529 85 477 22 q 581 276 581 149 q 525 513 581 420 q 361 605 468 605 q 224 541 273 605 q 174 357 174 477 m 380 689 m 370 -41 m 587 824 l 160 824 l 160 895 l 587 895 l 587 824 z "},"ø":{"ha":758,"x_min":31,"x_max":730,"o":"m 119 93 q 46 311 46 184 q 144 555 46 459 q 391 650 241 650 q 609 574 519 650 l 692 656 l 701 656 l 730 627 l 730 619 l 645 536 q 712 330 712 450 q 609 74 712 174 q 362 -26 507 -26 q 154 54 241 -26 l 69 -28 l 61 -28 l 31 -1 l 31 7 l 119 93 m 203 176 l 532 499 q 361 605 475 605 q 224 541 273 605 q 174 357 174 477 q 203 176 174 252 m 555 448 l 227 126 q 397 22 292 22 q 529 85 477 22 q 581 276 581 148 q 555 448 581 370 z "},"ǿ":{"ha":758,"x_min":31,"x_max":730,"o":"m 119 93 q 46 311 46 184 q 144 555 46 459 q 391 650 241 650 q 609 574 519 650 l 692 656 l 701 656 l 730 627 l 730 619 l 645 536 q 712 330 712 450 q 609 74 712 174 q 362 -26 507 -26 q 154 54 241 -26 l 69 -28 l 61 -28 l 31 -1 l 31 7 l 119 93 m 203 176 l 532 499 q 361 605 475 605 q 224 541 273 605 q 174 357 174 477 q 203 176 174 252 m 555 448 l 227 126 q 397 22 292 22 q 529 85 477 22 q 581 276 581 148 q 555 448 581 370 m 556 995 l 357 741 l 348 739 l 328 749 l 326 758 l 430 994 l 536 1014 l 545 1012 l 556 995 z "},"œ":{"ha":1149,"x_min":36,"x_max":1114,"o":"m 1083 111 l 1094 100 l 1072 51 q 946 -8 1002 5 q 848 -22 891 -22 q 736 -6 787 -22 q 657 30 685 10 q 591 94 630 50 q 347 -20 492 -20 q 122 72 208 -20 q 36 320 36 164 q 82 503 36 429 q 205 614 129 576 q 372 651 281 651 q 470 638 427 651 q 543 604 514 625 q 609 546 572 584 q 731 630 676 610 q 850 651 787 651 q 960 633 914 651 q 1043 580 1006 616 q 1097 493 1080 545 q 1114 388 1114 441 q 1111 347 1114 367 l 1103 340 q 980 326 1058 330 q 876 323 902 323 l 659 323 q 730 116 661 182 q 899 50 799 50 q 987 65 945 50 q 1083 111 1030 80 m 159 374 q 181 212 159 296 q 253 77 203 128 q 376 25 302 25 q 502 92 456 25 q 549 285 549 159 q 492 521 549 435 q 341 606 435 606 q 212 550 266 606 q 159 374 159 494 m 659 377 q 755 372 679 375 q 874 370 831 370 q 989 373 968 370 q 989 398 989 389 q 948 553 989 500 q 830 606 906 606 q 704 548 749 606 q 659 377 659 490 z "},"ŕ":{"ha":549,"x_min":37,"x_max":522,"o":"m 260 646 l 273 637 q 267 498 269 598 l 318 562 q 362 611 343 594 q 408 638 382 629 q 460 648 433 648 q 517 635 490 648 l 522 626 q 509 467 511 536 l 479 467 q 391 530 452 530 q 318 503 349 530 q 276 436 287 476 q 266 334 266 395 l 266 258 q 269 159 266 238 q 274 67 271 79 q 284 49 277 55 q 301 41 290 43 q 397 35 311 39 l 404 29 l 404 1 l 397 -5 q 209 0 307 0 q 46 -5 131 0 l 40 1 l 40 29 l 46 35 q 120 41 112 39 q 135 49 129 43 q 144 69 142 56 q 150 156 146 82 q 153 269 153 231 l 153 402 q 150 476 153 429 q 145 534 147 523 q 135 550 144 545 q 100 555 126 555 l 43 555 l 37 561 l 37 590 l 42 595 q 260 646 172 611 m 495 995 l 296 741 l 287 739 l 267 749 l 265 758 l 369 994 l 475 1014 l 484 1012 l 495 995 z "},"ř":{"ha":549,"x_min":37,"x_max":522,"o":"m 260 646 l 273 637 q 267 498 269 598 l 318 562 q 362 611 343 594 q 408 638 382 629 q 460 648 433 648 q 517 635 490 648 l 522 626 q 509 467 511 536 l 479 467 q 391 530 452 530 q 318 503 349 530 q 276 436 287 476 q 266 334 266 395 l 266 258 q 269 159 266 238 q 274 67 271 79 q 284 49 277 55 q 301 41 290 43 q 397 35 311 39 l 404 29 l 404 1 l 397 -5 q 209 0 307 0 q 46 -5 131 0 l 40 1 l 40 29 l 46 35 q 120 41 112 39 q 135 49 129 43 q 144 69 142 56 q 150 156 146 82 q 153 269 153 231 l 153 402 q 150 476 153 429 q 145 534 147 523 q 135 550 144 545 q 100 555 126 555 l 43 555 l 37 561 l 37 590 l 42 595 q 260 646 172 611 m 503 998 l 326 753 l 239 753 l 68 998 l 73 1005 l 113 1005 l 282 838 l 452 1005 l 498 1005 l 503 998 z "},"ŗ":{"ha":549,"x_min":37,"x_max":522,"o":"m 260 646 l 273 637 q 267 498 269 598 l 318 562 q 362 611 343 594 q 408 638 382 629 q 460 648 433 648 q 517 635 490 648 l 522 626 q 509 467 511 536 l 479 467 q 391 530 452 530 q 318 503 349 530 q 276 436 287 476 q 266 334 266 395 l 266 258 q 269 159 266 238 q 274 67 271 79 q 284 49 277 55 q 301 41 290 43 q 397 35 311 39 l 404 29 l 404 1 l 397 -5 q 209 0 307 0 q 46 -5 131 0 l 40 1 l 40 29 l 46 35 q 120 41 112 39 q 135 49 129 43 q 144 69 142 56 q 150 156 146 82 q 153 269 153 231 l 153 402 q 150 476 153 429 q 145 534 147 523 q 135 550 144 545 q 100 555 126 555 l 43 555 l 37 561 l 37 590 l 42 595 q 260 646 172 611 m 140 -347 l 134 -323 q 241 -243 241 -296 q 218 -222 241 -223 q 136 -149 136 -220 q 158 -98 136 -117 q 212 -79 180 -79 q 274 -106 251 -79 q 297 -178 297 -134 q 140 -347 297 -332 z "},"ś":{"ha":589,"x_min":50,"x_max":544,"o":"m 68 199 l 98 199 l 104 193 q 111 96 105 136 q 183 44 132 64 q 285 24 235 24 q 400 62 357 24 q 443 155 443 101 q 427 205 443 184 q 380 240 412 227 q 267 273 349 254 q 170 299 197 290 q 116 330 142 308 q 77 383 90 351 q 63 452 63 414 q 135 598 63 543 q 315 652 208 652 q 414 640 361 652 q 496 616 468 627 l 502 606 q 495 464 496 579 l 489 458 l 462 458 l 456 464 q 448 522 453 505 q 424 558 444 538 q 368 590 404 577 q 292 604 332 604 q 223 591 251 604 q 177 554 195 579 q 160 494 160 530 q 171 448 160 469 q 203 415 181 428 q 248 397 224 403 l 322 378 q 458 338 417 355 q 522 287 499 321 q 544 204 544 253 q 467 43 544 111 q 268 -24 389 -24 q 162 -14 225 -24 q 54 7 98 -5 l 50 16 l 57 61 q 61 103 60 82 q 62 193 62 125 l 68 199 m 488 995 l 289 741 l 280 739 l 260 749 l 258 758 l 362 994 l 468 1014 l 477 1012 l 488 995 z "},"ŝ":{"ha":589,"x_min":50,"x_max":602,"o":"m 68 199 l 98 199 l 104 193 q 111 96 105 136 q 183 44 132 64 q 285 24 235 24 q 400 62 357 24 q 443 155 443 101 q 427 205 443 184 q 380 240 412 227 q 267 273 349 254 q 170 299 197 290 q 116 330 142 308 q 77 383 90 351 q 63 452 63 414 q 135 598 63 543 q 315 652 208 652 q 414 640 361 652 q 496 616 468 627 l 502 606 q 495 464 496 579 l 489 458 l 462 458 l 456 464 q 448 522 453 505 q 424 558 444 538 q 368 590 404 577 q 292 604 332 604 q 223 591 251 604 q 177 554 195 579 q 160 494 160 530 q 171 448 160 469 q 203 415 181 428 q 248 397 224 403 l 322 378 q 458 338 417 355 q 522 287 499 321 q 544 204 544 253 q 467 43 544 111 q 268 -24 389 -24 q 162 -14 225 -24 q 54 7 98 -5 l 50 16 l 57 61 q 61 103 60 82 q 62 193 62 125 l 68 199 m 516 760 l 511 753 l 472 753 l 299 921 l 126 753 l 87 753 l 82 760 l 259 1005 l 339 1005 l 516 760 m 602 780 m 299 1005 z "},"š":{"ha":589,"x_min":50,"x_max":544,"o":"m 68 199 l 98 199 l 104 193 q 111 96 105 136 q 183 44 132 64 q 285 24 235 24 q 400 62 357 24 q 443 155 443 101 q 427 205 443 184 q 380 240 412 227 q 267 273 349 254 q 170 299 197 290 q 116 330 142 308 q 77 383 90 351 q 63 452 63 414 q 135 598 63 543 q 315 652 208 652 q 414 640 361 652 q 496 616 468 627 l 502 606 q 495 464 496 579 l 489 458 l 462 458 l 456 464 q 448 522 453 505 q 424 558 444 538 q 368 590 404 577 q 292 604 332 604 q 223 591 251 604 q 177 554 195 579 q 160 494 160 530 q 171 448 160 469 q 203 415 181 428 q 248 397 224 403 l 322 378 q 458 338 417 355 q 522 287 499 321 q 544 204 544 253 q 467 43 544 111 q 268 -24 389 -24 q 162 -14 225 -24 q 54 7 98 -5 l 50 16 l 57 61 q 61 103 60 82 q 62 193 62 125 l 68 199 m 509 998 l 332 753 l 245 753 l 75 998 l 80 1005 l 119 1005 l 289 838 l 458 1005 l 505 1005 l 509 998 z "},"ș":{"ha":589,"x_min":50,"x_max":544,"o":"m 68 199 l 98 199 l 104 193 q 111 96 105 136 q 183 44 132 64 q 285 24 235 24 q 400 62 357 24 q 443 155 443 101 q 427 205 443 184 q 380 240 412 227 q 267 273 349 254 q 170 299 197 290 q 116 330 142 308 q 77 383 90 351 q 63 452 63 414 q 135 598 63 543 q 315 652 208 652 q 414 640 361 652 q 496 616 468 627 l 502 606 q 495 464 496 579 l 489 458 l 462 458 l 456 464 q 448 522 453 505 q 424 558 444 538 q 368 590 404 577 q 292 604 332 604 q 223 591 251 604 q 177 554 195 579 q 160 494 160 530 q 171 448 160 469 q 203 415 181 428 q 248 397 224 403 l 322 378 q 458 338 417 355 q 522 287 499 321 q 544 204 544 253 q 467 43 544 111 q 268 -24 389 -24 q 162 -14 225 -24 q 54 7 98 -5 l 50 16 l 57 61 q 61 103 60 82 q 62 193 62 125 l 68 199 m 215 -347 l 209 -323 q 315 -243 315 -296 q 292 -222 315 -223 q 210 -149 210 -220 q 232 -98 210 -117 q 286 -79 254 -79 q 349 -106 326 -79 q 372 -178 372 -134 q 215 -347 372 -332 z "}}}
